G04 #@! TF.GenerationSoftware,KiCad,Pcbnew,(5.1.5)-3*
G04 #@! TF.CreationDate,2020-09-01T10:20:14-07:00*
G04 #@! TF.ProjectId,batty_trees_test_pcb,62617474-795f-4747-9265-65735f746573,rev?*
G04 #@! TF.SameCoordinates,Original*
G04 #@! TF.FileFunction,Soldermask,Bot*
G04 #@! TF.FilePolarity,Negative*
%FSLAX46Y46*%
G04 Gerber Fmt 4.6, Leading zero omitted, Abs format (unit mm)*
G04 Created by KiCad (PCBNEW (5.1.5)-3) date 2020-09-01 10:20:14*
%MOMM*%
%LPD*%
G04 APERTURE LIST*
%ADD10C,0.010000*%
%ADD11C,0.100000*%
G04 APERTURE END LIST*
D10*
G36*
X30988000Y-157224000D02*
G01*
X30978000Y-157224000D01*
X30978000Y-157824000D01*
X30638000Y-157824000D01*
X30606598Y-157823178D01*
X30575283Y-157820713D01*
X30544139Y-157816613D01*
X30513253Y-157810889D01*
X30482709Y-157803555D01*
X30452590Y-157794634D01*
X30422979Y-157784148D01*
X30393958Y-157772127D01*
X30365606Y-157758604D01*
X30338000Y-157743615D01*
X30311217Y-157727202D01*
X30285329Y-157709410D01*
X30260408Y-157690288D01*
X30236522Y-157669887D01*
X30213736Y-157648264D01*
X30192113Y-157625478D01*
X30171712Y-157601592D01*
X30152590Y-157576671D01*
X30134798Y-157550783D01*
X30118385Y-157524000D01*
X30103396Y-157496394D01*
X30089873Y-157468042D01*
X30077852Y-157439021D01*
X30067366Y-157409410D01*
X30058445Y-157379291D01*
X30051111Y-157348747D01*
X30045387Y-157317861D01*
X30041287Y-157286717D01*
X30038822Y-157255402D01*
X30038000Y-157224000D01*
X30038822Y-157192598D01*
X30041287Y-157161283D01*
X30045387Y-157130139D01*
X30051111Y-157099253D01*
X30058445Y-157068709D01*
X30067366Y-157038590D01*
X30077852Y-157008979D01*
X30089873Y-156979958D01*
X30103396Y-156951606D01*
X30118385Y-156924000D01*
X30134798Y-156897217D01*
X30152590Y-156871329D01*
X30171712Y-156846408D01*
X30192113Y-156822522D01*
X30213736Y-156799736D01*
X30236522Y-156778113D01*
X30260408Y-156757712D01*
X30285329Y-156738590D01*
X30311217Y-156720798D01*
X30338000Y-156704385D01*
X30365606Y-156689396D01*
X30393958Y-156675873D01*
X30422979Y-156663852D01*
X30452590Y-156653366D01*
X30482709Y-156644445D01*
X30513253Y-156637111D01*
X30544139Y-156631387D01*
X30575283Y-156627287D01*
X30606598Y-156624822D01*
X30638000Y-156624000D01*
X31338000Y-156624000D01*
X31369402Y-156624822D01*
X31400717Y-156627287D01*
X31431861Y-156631387D01*
X31462747Y-156637111D01*
X31493291Y-156644445D01*
X31523410Y-156653366D01*
X31553021Y-156663852D01*
X31582042Y-156675873D01*
X31610394Y-156689396D01*
X31638000Y-156704385D01*
X31664783Y-156720798D01*
X31690671Y-156738590D01*
X31715592Y-156757712D01*
X31739478Y-156778113D01*
X31762264Y-156799736D01*
X31783887Y-156822522D01*
X31804288Y-156846408D01*
X31823410Y-156871329D01*
X31841202Y-156897217D01*
X31857615Y-156924000D01*
X31872604Y-156951606D01*
X31886127Y-156979958D01*
X31898148Y-157008979D01*
X31908634Y-157038590D01*
X31917555Y-157068709D01*
X31924889Y-157099253D01*
X31930613Y-157130139D01*
X31934713Y-157161283D01*
X31937178Y-157192598D01*
X31938000Y-157224000D01*
X31937178Y-157255402D01*
X31934713Y-157286717D01*
X31930613Y-157317861D01*
X31924889Y-157348747D01*
X31917555Y-157379291D01*
X31908634Y-157409410D01*
X31898148Y-157439021D01*
X31886127Y-157468042D01*
X31872604Y-157496394D01*
X31857615Y-157524000D01*
X31841202Y-157550783D01*
X31823410Y-157576671D01*
X31804288Y-157601592D01*
X31783887Y-157625478D01*
X31762264Y-157648264D01*
X31739478Y-157669887D01*
X31715592Y-157690288D01*
X31690671Y-157709410D01*
X31664783Y-157727202D01*
X31638000Y-157743615D01*
X31610394Y-157758604D01*
X31582042Y-157772127D01*
X31553021Y-157784148D01*
X31523410Y-157794634D01*
X31493291Y-157803555D01*
X31462747Y-157810889D01*
X31431861Y-157816613D01*
X31400717Y-157820713D01*
X31369402Y-157823178D01*
X31338000Y-157824000D01*
X30988000Y-157824000D01*
X30988000Y-157224000D01*
G37*
X30988000Y-157224000D02*
X30978000Y-157224000D01*
X30978000Y-157824000D01*
X30638000Y-157824000D01*
X30606598Y-157823178D01*
X30575283Y-157820713D01*
X30544139Y-157816613D01*
X30513253Y-157810889D01*
X30482709Y-157803555D01*
X30452590Y-157794634D01*
X30422979Y-157784148D01*
X30393958Y-157772127D01*
X30365606Y-157758604D01*
X30338000Y-157743615D01*
X30311217Y-157727202D01*
X30285329Y-157709410D01*
X30260408Y-157690288D01*
X30236522Y-157669887D01*
X30213736Y-157648264D01*
X30192113Y-157625478D01*
X30171712Y-157601592D01*
X30152590Y-157576671D01*
X30134798Y-157550783D01*
X30118385Y-157524000D01*
X30103396Y-157496394D01*
X30089873Y-157468042D01*
X30077852Y-157439021D01*
X30067366Y-157409410D01*
X30058445Y-157379291D01*
X30051111Y-157348747D01*
X30045387Y-157317861D01*
X30041287Y-157286717D01*
X30038822Y-157255402D01*
X30038000Y-157224000D01*
X30038822Y-157192598D01*
X30041287Y-157161283D01*
X30045387Y-157130139D01*
X30051111Y-157099253D01*
X30058445Y-157068709D01*
X30067366Y-157038590D01*
X30077852Y-157008979D01*
X30089873Y-156979958D01*
X30103396Y-156951606D01*
X30118385Y-156924000D01*
X30134798Y-156897217D01*
X30152590Y-156871329D01*
X30171712Y-156846408D01*
X30192113Y-156822522D01*
X30213736Y-156799736D01*
X30236522Y-156778113D01*
X30260408Y-156757712D01*
X30285329Y-156738590D01*
X30311217Y-156720798D01*
X30338000Y-156704385D01*
X30365606Y-156689396D01*
X30393958Y-156675873D01*
X30422979Y-156663852D01*
X30452590Y-156653366D01*
X30482709Y-156644445D01*
X30513253Y-156637111D01*
X30544139Y-156631387D01*
X30575283Y-156627287D01*
X30606598Y-156624822D01*
X30638000Y-156624000D01*
X31338000Y-156624000D01*
X31369402Y-156624822D01*
X31400717Y-156627287D01*
X31431861Y-156631387D01*
X31462747Y-156637111D01*
X31493291Y-156644445D01*
X31523410Y-156653366D01*
X31553021Y-156663852D01*
X31582042Y-156675873D01*
X31610394Y-156689396D01*
X31638000Y-156704385D01*
X31664783Y-156720798D01*
X31690671Y-156738590D01*
X31715592Y-156757712D01*
X31739478Y-156778113D01*
X31762264Y-156799736D01*
X31783887Y-156822522D01*
X31804288Y-156846408D01*
X31823410Y-156871329D01*
X31841202Y-156897217D01*
X31857615Y-156924000D01*
X31872604Y-156951606D01*
X31886127Y-156979958D01*
X31898148Y-157008979D01*
X31908634Y-157038590D01*
X31917555Y-157068709D01*
X31924889Y-157099253D01*
X31930613Y-157130139D01*
X31934713Y-157161283D01*
X31937178Y-157192598D01*
X31938000Y-157224000D01*
X31937178Y-157255402D01*
X31934713Y-157286717D01*
X31930613Y-157317861D01*
X31924889Y-157348747D01*
X31917555Y-157379291D01*
X31908634Y-157409410D01*
X31898148Y-157439021D01*
X31886127Y-157468042D01*
X31872604Y-157496394D01*
X31857615Y-157524000D01*
X31841202Y-157550783D01*
X31823410Y-157576671D01*
X31804288Y-157601592D01*
X31783887Y-157625478D01*
X31762264Y-157648264D01*
X31739478Y-157669887D01*
X31715592Y-157690288D01*
X31690671Y-157709410D01*
X31664783Y-157727202D01*
X31638000Y-157743615D01*
X31610394Y-157758604D01*
X31582042Y-157772127D01*
X31553021Y-157784148D01*
X31523410Y-157794634D01*
X31493291Y-157803555D01*
X31462747Y-157810889D01*
X31431861Y-157816613D01*
X31400717Y-157820713D01*
X31369402Y-157823178D01*
X31338000Y-157824000D01*
X30988000Y-157824000D01*
X30988000Y-157224000D01*
G36*
X30988000Y-165864000D02*
G01*
X30978000Y-165864000D01*
X30978000Y-166464000D01*
X30638000Y-166464000D01*
X30606598Y-166463178D01*
X30575283Y-166460713D01*
X30544139Y-166456613D01*
X30513253Y-166450889D01*
X30482709Y-166443555D01*
X30452590Y-166434634D01*
X30422979Y-166424148D01*
X30393958Y-166412127D01*
X30365606Y-166398604D01*
X30338000Y-166383615D01*
X30311217Y-166367202D01*
X30285329Y-166349410D01*
X30260408Y-166330288D01*
X30236522Y-166309887D01*
X30213736Y-166288264D01*
X30192113Y-166265478D01*
X30171712Y-166241592D01*
X30152590Y-166216671D01*
X30134798Y-166190783D01*
X30118385Y-166164000D01*
X30103396Y-166136394D01*
X30089873Y-166108042D01*
X30077852Y-166079021D01*
X30067366Y-166049410D01*
X30058445Y-166019291D01*
X30051111Y-165988747D01*
X30045387Y-165957861D01*
X30041287Y-165926717D01*
X30038822Y-165895402D01*
X30038000Y-165864000D01*
X30038822Y-165832598D01*
X30041287Y-165801283D01*
X30045387Y-165770139D01*
X30051111Y-165739253D01*
X30058445Y-165708709D01*
X30067366Y-165678590D01*
X30077852Y-165648979D01*
X30089873Y-165619958D01*
X30103396Y-165591606D01*
X30118385Y-165564000D01*
X30134798Y-165537217D01*
X30152590Y-165511329D01*
X30171712Y-165486408D01*
X30192113Y-165462522D01*
X30213736Y-165439736D01*
X30236522Y-165418113D01*
X30260408Y-165397712D01*
X30285329Y-165378590D01*
X30311217Y-165360798D01*
X30338000Y-165344385D01*
X30365606Y-165329396D01*
X30393958Y-165315873D01*
X30422979Y-165303852D01*
X30452590Y-165293366D01*
X30482709Y-165284445D01*
X30513253Y-165277111D01*
X30544139Y-165271387D01*
X30575283Y-165267287D01*
X30606598Y-165264822D01*
X30638000Y-165264000D01*
X31338000Y-165264000D01*
X31369402Y-165264822D01*
X31400717Y-165267287D01*
X31431861Y-165271387D01*
X31462747Y-165277111D01*
X31493291Y-165284445D01*
X31523410Y-165293366D01*
X31553021Y-165303852D01*
X31582042Y-165315873D01*
X31610394Y-165329396D01*
X31638000Y-165344385D01*
X31664783Y-165360798D01*
X31690671Y-165378590D01*
X31715592Y-165397712D01*
X31739478Y-165418113D01*
X31762264Y-165439736D01*
X31783887Y-165462522D01*
X31804288Y-165486408D01*
X31823410Y-165511329D01*
X31841202Y-165537217D01*
X31857615Y-165564000D01*
X31872604Y-165591606D01*
X31886127Y-165619958D01*
X31898148Y-165648979D01*
X31908634Y-165678590D01*
X31917555Y-165708709D01*
X31924889Y-165739253D01*
X31930613Y-165770139D01*
X31934713Y-165801283D01*
X31937178Y-165832598D01*
X31938000Y-165864000D01*
X31937178Y-165895402D01*
X31934713Y-165926717D01*
X31930613Y-165957861D01*
X31924889Y-165988747D01*
X31917555Y-166019291D01*
X31908634Y-166049410D01*
X31898148Y-166079021D01*
X31886127Y-166108042D01*
X31872604Y-166136394D01*
X31857615Y-166164000D01*
X31841202Y-166190783D01*
X31823410Y-166216671D01*
X31804288Y-166241592D01*
X31783887Y-166265478D01*
X31762264Y-166288264D01*
X31739478Y-166309887D01*
X31715592Y-166330288D01*
X31690671Y-166349410D01*
X31664783Y-166367202D01*
X31638000Y-166383615D01*
X31610394Y-166398604D01*
X31582042Y-166412127D01*
X31553021Y-166424148D01*
X31523410Y-166434634D01*
X31493291Y-166443555D01*
X31462747Y-166450889D01*
X31431861Y-166456613D01*
X31400717Y-166460713D01*
X31369402Y-166463178D01*
X31338000Y-166464000D01*
X30988000Y-166464000D01*
X30988000Y-165864000D01*
G37*
X30988000Y-165864000D02*
X30978000Y-165864000D01*
X30978000Y-166464000D01*
X30638000Y-166464000D01*
X30606598Y-166463178D01*
X30575283Y-166460713D01*
X30544139Y-166456613D01*
X30513253Y-166450889D01*
X30482709Y-166443555D01*
X30452590Y-166434634D01*
X30422979Y-166424148D01*
X30393958Y-166412127D01*
X30365606Y-166398604D01*
X30338000Y-166383615D01*
X30311217Y-166367202D01*
X30285329Y-166349410D01*
X30260408Y-166330288D01*
X30236522Y-166309887D01*
X30213736Y-166288264D01*
X30192113Y-166265478D01*
X30171712Y-166241592D01*
X30152590Y-166216671D01*
X30134798Y-166190783D01*
X30118385Y-166164000D01*
X30103396Y-166136394D01*
X30089873Y-166108042D01*
X30077852Y-166079021D01*
X30067366Y-166049410D01*
X30058445Y-166019291D01*
X30051111Y-165988747D01*
X30045387Y-165957861D01*
X30041287Y-165926717D01*
X30038822Y-165895402D01*
X30038000Y-165864000D01*
X30038822Y-165832598D01*
X30041287Y-165801283D01*
X30045387Y-165770139D01*
X30051111Y-165739253D01*
X30058445Y-165708709D01*
X30067366Y-165678590D01*
X30077852Y-165648979D01*
X30089873Y-165619958D01*
X30103396Y-165591606D01*
X30118385Y-165564000D01*
X30134798Y-165537217D01*
X30152590Y-165511329D01*
X30171712Y-165486408D01*
X30192113Y-165462522D01*
X30213736Y-165439736D01*
X30236522Y-165418113D01*
X30260408Y-165397712D01*
X30285329Y-165378590D01*
X30311217Y-165360798D01*
X30338000Y-165344385D01*
X30365606Y-165329396D01*
X30393958Y-165315873D01*
X30422979Y-165303852D01*
X30452590Y-165293366D01*
X30482709Y-165284445D01*
X30513253Y-165277111D01*
X30544139Y-165271387D01*
X30575283Y-165267287D01*
X30606598Y-165264822D01*
X30638000Y-165264000D01*
X31338000Y-165264000D01*
X31369402Y-165264822D01*
X31400717Y-165267287D01*
X31431861Y-165271387D01*
X31462747Y-165277111D01*
X31493291Y-165284445D01*
X31523410Y-165293366D01*
X31553021Y-165303852D01*
X31582042Y-165315873D01*
X31610394Y-165329396D01*
X31638000Y-165344385D01*
X31664783Y-165360798D01*
X31690671Y-165378590D01*
X31715592Y-165397712D01*
X31739478Y-165418113D01*
X31762264Y-165439736D01*
X31783887Y-165462522D01*
X31804288Y-165486408D01*
X31823410Y-165511329D01*
X31841202Y-165537217D01*
X31857615Y-165564000D01*
X31872604Y-165591606D01*
X31886127Y-165619958D01*
X31898148Y-165648979D01*
X31908634Y-165678590D01*
X31917555Y-165708709D01*
X31924889Y-165739253D01*
X31930613Y-165770139D01*
X31934713Y-165801283D01*
X31937178Y-165832598D01*
X31938000Y-165864000D01*
X31937178Y-165895402D01*
X31934713Y-165926717D01*
X31930613Y-165957861D01*
X31924889Y-165988747D01*
X31917555Y-166019291D01*
X31908634Y-166049410D01*
X31898148Y-166079021D01*
X31886127Y-166108042D01*
X31872604Y-166136394D01*
X31857615Y-166164000D01*
X31841202Y-166190783D01*
X31823410Y-166216671D01*
X31804288Y-166241592D01*
X31783887Y-166265478D01*
X31762264Y-166288264D01*
X31739478Y-166309887D01*
X31715592Y-166330288D01*
X31690671Y-166349410D01*
X31664783Y-166367202D01*
X31638000Y-166383615D01*
X31610394Y-166398604D01*
X31582042Y-166412127D01*
X31553021Y-166424148D01*
X31523410Y-166434634D01*
X31493291Y-166443555D01*
X31462747Y-166450889D01*
X31431861Y-166456613D01*
X31400717Y-166460713D01*
X31369402Y-166463178D01*
X31338000Y-166464000D01*
X30988000Y-166464000D01*
X30988000Y-165864000D01*
G36*
X27188000Y-157224000D02*
G01*
X27178000Y-157224000D01*
X27178000Y-157824000D01*
X26838000Y-157824000D01*
X26806598Y-157823178D01*
X26775283Y-157820713D01*
X26744139Y-157816613D01*
X26713253Y-157810889D01*
X26682709Y-157803555D01*
X26652590Y-157794634D01*
X26622979Y-157784148D01*
X26593958Y-157772127D01*
X26565606Y-157758604D01*
X26538000Y-157743615D01*
X26511217Y-157727202D01*
X26485329Y-157709410D01*
X26460408Y-157690288D01*
X26436522Y-157669887D01*
X26413736Y-157648264D01*
X26392113Y-157625478D01*
X26371712Y-157601592D01*
X26352590Y-157576671D01*
X26334798Y-157550783D01*
X26318385Y-157524000D01*
X26303396Y-157496394D01*
X26289873Y-157468042D01*
X26277852Y-157439021D01*
X26267366Y-157409410D01*
X26258445Y-157379291D01*
X26251111Y-157348747D01*
X26245387Y-157317861D01*
X26241287Y-157286717D01*
X26238822Y-157255402D01*
X26238000Y-157224000D01*
X26238822Y-157192598D01*
X26241287Y-157161283D01*
X26245387Y-157130139D01*
X26251111Y-157099253D01*
X26258445Y-157068709D01*
X26267366Y-157038590D01*
X26277852Y-157008979D01*
X26289873Y-156979958D01*
X26303396Y-156951606D01*
X26318385Y-156924000D01*
X26334798Y-156897217D01*
X26352590Y-156871329D01*
X26371712Y-156846408D01*
X26392113Y-156822522D01*
X26413736Y-156799736D01*
X26436522Y-156778113D01*
X26460408Y-156757712D01*
X26485329Y-156738590D01*
X26511217Y-156720798D01*
X26538000Y-156704385D01*
X26565606Y-156689396D01*
X26593958Y-156675873D01*
X26622979Y-156663852D01*
X26652590Y-156653366D01*
X26682709Y-156644445D01*
X26713253Y-156637111D01*
X26744139Y-156631387D01*
X26775283Y-156627287D01*
X26806598Y-156624822D01*
X26838000Y-156624000D01*
X27538000Y-156624000D01*
X27569402Y-156624822D01*
X27600717Y-156627287D01*
X27631861Y-156631387D01*
X27662747Y-156637111D01*
X27693291Y-156644445D01*
X27723410Y-156653366D01*
X27753021Y-156663852D01*
X27782042Y-156675873D01*
X27810394Y-156689396D01*
X27838000Y-156704385D01*
X27864783Y-156720798D01*
X27890671Y-156738590D01*
X27915592Y-156757712D01*
X27939478Y-156778113D01*
X27962264Y-156799736D01*
X27983887Y-156822522D01*
X28004288Y-156846408D01*
X28023410Y-156871329D01*
X28041202Y-156897217D01*
X28057615Y-156924000D01*
X28072604Y-156951606D01*
X28086127Y-156979958D01*
X28098148Y-157008979D01*
X28108634Y-157038590D01*
X28117555Y-157068709D01*
X28124889Y-157099253D01*
X28130613Y-157130139D01*
X28134713Y-157161283D01*
X28137178Y-157192598D01*
X28138000Y-157224000D01*
X28137178Y-157255402D01*
X28134713Y-157286717D01*
X28130613Y-157317861D01*
X28124889Y-157348747D01*
X28117555Y-157379291D01*
X28108634Y-157409410D01*
X28098148Y-157439021D01*
X28086127Y-157468042D01*
X28072604Y-157496394D01*
X28057615Y-157524000D01*
X28041202Y-157550783D01*
X28023410Y-157576671D01*
X28004288Y-157601592D01*
X27983887Y-157625478D01*
X27962264Y-157648264D01*
X27939478Y-157669887D01*
X27915592Y-157690288D01*
X27890671Y-157709410D01*
X27864783Y-157727202D01*
X27838000Y-157743615D01*
X27810394Y-157758604D01*
X27782042Y-157772127D01*
X27753021Y-157784148D01*
X27723410Y-157794634D01*
X27693291Y-157803555D01*
X27662747Y-157810889D01*
X27631861Y-157816613D01*
X27600717Y-157820713D01*
X27569402Y-157823178D01*
X27538000Y-157824000D01*
X27188000Y-157824000D01*
X27188000Y-157224000D01*
G37*
X27188000Y-157224000D02*
X27178000Y-157224000D01*
X27178000Y-157824000D01*
X26838000Y-157824000D01*
X26806598Y-157823178D01*
X26775283Y-157820713D01*
X26744139Y-157816613D01*
X26713253Y-157810889D01*
X26682709Y-157803555D01*
X26652590Y-157794634D01*
X26622979Y-157784148D01*
X26593958Y-157772127D01*
X26565606Y-157758604D01*
X26538000Y-157743615D01*
X26511217Y-157727202D01*
X26485329Y-157709410D01*
X26460408Y-157690288D01*
X26436522Y-157669887D01*
X26413736Y-157648264D01*
X26392113Y-157625478D01*
X26371712Y-157601592D01*
X26352590Y-157576671D01*
X26334798Y-157550783D01*
X26318385Y-157524000D01*
X26303396Y-157496394D01*
X26289873Y-157468042D01*
X26277852Y-157439021D01*
X26267366Y-157409410D01*
X26258445Y-157379291D01*
X26251111Y-157348747D01*
X26245387Y-157317861D01*
X26241287Y-157286717D01*
X26238822Y-157255402D01*
X26238000Y-157224000D01*
X26238822Y-157192598D01*
X26241287Y-157161283D01*
X26245387Y-157130139D01*
X26251111Y-157099253D01*
X26258445Y-157068709D01*
X26267366Y-157038590D01*
X26277852Y-157008979D01*
X26289873Y-156979958D01*
X26303396Y-156951606D01*
X26318385Y-156924000D01*
X26334798Y-156897217D01*
X26352590Y-156871329D01*
X26371712Y-156846408D01*
X26392113Y-156822522D01*
X26413736Y-156799736D01*
X26436522Y-156778113D01*
X26460408Y-156757712D01*
X26485329Y-156738590D01*
X26511217Y-156720798D01*
X26538000Y-156704385D01*
X26565606Y-156689396D01*
X26593958Y-156675873D01*
X26622979Y-156663852D01*
X26652590Y-156653366D01*
X26682709Y-156644445D01*
X26713253Y-156637111D01*
X26744139Y-156631387D01*
X26775283Y-156627287D01*
X26806598Y-156624822D01*
X26838000Y-156624000D01*
X27538000Y-156624000D01*
X27569402Y-156624822D01*
X27600717Y-156627287D01*
X27631861Y-156631387D01*
X27662747Y-156637111D01*
X27693291Y-156644445D01*
X27723410Y-156653366D01*
X27753021Y-156663852D01*
X27782042Y-156675873D01*
X27810394Y-156689396D01*
X27838000Y-156704385D01*
X27864783Y-156720798D01*
X27890671Y-156738590D01*
X27915592Y-156757712D01*
X27939478Y-156778113D01*
X27962264Y-156799736D01*
X27983887Y-156822522D01*
X28004288Y-156846408D01*
X28023410Y-156871329D01*
X28041202Y-156897217D01*
X28057615Y-156924000D01*
X28072604Y-156951606D01*
X28086127Y-156979958D01*
X28098148Y-157008979D01*
X28108634Y-157038590D01*
X28117555Y-157068709D01*
X28124889Y-157099253D01*
X28130613Y-157130139D01*
X28134713Y-157161283D01*
X28137178Y-157192598D01*
X28138000Y-157224000D01*
X28137178Y-157255402D01*
X28134713Y-157286717D01*
X28130613Y-157317861D01*
X28124889Y-157348747D01*
X28117555Y-157379291D01*
X28108634Y-157409410D01*
X28098148Y-157439021D01*
X28086127Y-157468042D01*
X28072604Y-157496394D01*
X28057615Y-157524000D01*
X28041202Y-157550783D01*
X28023410Y-157576671D01*
X28004288Y-157601592D01*
X27983887Y-157625478D01*
X27962264Y-157648264D01*
X27939478Y-157669887D01*
X27915592Y-157690288D01*
X27890671Y-157709410D01*
X27864783Y-157727202D01*
X27838000Y-157743615D01*
X27810394Y-157758604D01*
X27782042Y-157772127D01*
X27753021Y-157784148D01*
X27723410Y-157794634D01*
X27693291Y-157803555D01*
X27662747Y-157810889D01*
X27631861Y-157816613D01*
X27600717Y-157820713D01*
X27569402Y-157823178D01*
X27538000Y-157824000D01*
X27188000Y-157824000D01*
X27188000Y-157224000D01*
G36*
X27188000Y-165864000D02*
G01*
X27178000Y-165864000D01*
X27178000Y-166464000D01*
X26838000Y-166464000D01*
X26806598Y-166463178D01*
X26775283Y-166460713D01*
X26744139Y-166456613D01*
X26713253Y-166450889D01*
X26682709Y-166443555D01*
X26652590Y-166434634D01*
X26622979Y-166424148D01*
X26593958Y-166412127D01*
X26565606Y-166398604D01*
X26538000Y-166383615D01*
X26511217Y-166367202D01*
X26485329Y-166349410D01*
X26460408Y-166330288D01*
X26436522Y-166309887D01*
X26413736Y-166288264D01*
X26392113Y-166265478D01*
X26371712Y-166241592D01*
X26352590Y-166216671D01*
X26334798Y-166190783D01*
X26318385Y-166164000D01*
X26303396Y-166136394D01*
X26289873Y-166108042D01*
X26277852Y-166079021D01*
X26267366Y-166049410D01*
X26258445Y-166019291D01*
X26251111Y-165988747D01*
X26245387Y-165957861D01*
X26241287Y-165926717D01*
X26238822Y-165895402D01*
X26238000Y-165864000D01*
X26238822Y-165832598D01*
X26241287Y-165801283D01*
X26245387Y-165770139D01*
X26251111Y-165739253D01*
X26258445Y-165708709D01*
X26267366Y-165678590D01*
X26277852Y-165648979D01*
X26289873Y-165619958D01*
X26303396Y-165591606D01*
X26318385Y-165564000D01*
X26334798Y-165537217D01*
X26352590Y-165511329D01*
X26371712Y-165486408D01*
X26392113Y-165462522D01*
X26413736Y-165439736D01*
X26436522Y-165418113D01*
X26460408Y-165397712D01*
X26485329Y-165378590D01*
X26511217Y-165360798D01*
X26538000Y-165344385D01*
X26565606Y-165329396D01*
X26593958Y-165315873D01*
X26622979Y-165303852D01*
X26652590Y-165293366D01*
X26682709Y-165284445D01*
X26713253Y-165277111D01*
X26744139Y-165271387D01*
X26775283Y-165267287D01*
X26806598Y-165264822D01*
X26838000Y-165264000D01*
X27538000Y-165264000D01*
X27569402Y-165264822D01*
X27600717Y-165267287D01*
X27631861Y-165271387D01*
X27662747Y-165277111D01*
X27693291Y-165284445D01*
X27723410Y-165293366D01*
X27753021Y-165303852D01*
X27782042Y-165315873D01*
X27810394Y-165329396D01*
X27838000Y-165344385D01*
X27864783Y-165360798D01*
X27890671Y-165378590D01*
X27915592Y-165397712D01*
X27939478Y-165418113D01*
X27962264Y-165439736D01*
X27983887Y-165462522D01*
X28004288Y-165486408D01*
X28023410Y-165511329D01*
X28041202Y-165537217D01*
X28057615Y-165564000D01*
X28072604Y-165591606D01*
X28086127Y-165619958D01*
X28098148Y-165648979D01*
X28108634Y-165678590D01*
X28117555Y-165708709D01*
X28124889Y-165739253D01*
X28130613Y-165770139D01*
X28134713Y-165801283D01*
X28137178Y-165832598D01*
X28138000Y-165864000D01*
X28137178Y-165895402D01*
X28134713Y-165926717D01*
X28130613Y-165957861D01*
X28124889Y-165988747D01*
X28117555Y-166019291D01*
X28108634Y-166049410D01*
X28098148Y-166079021D01*
X28086127Y-166108042D01*
X28072604Y-166136394D01*
X28057615Y-166164000D01*
X28041202Y-166190783D01*
X28023410Y-166216671D01*
X28004288Y-166241592D01*
X27983887Y-166265478D01*
X27962264Y-166288264D01*
X27939478Y-166309887D01*
X27915592Y-166330288D01*
X27890671Y-166349410D01*
X27864783Y-166367202D01*
X27838000Y-166383615D01*
X27810394Y-166398604D01*
X27782042Y-166412127D01*
X27753021Y-166424148D01*
X27723410Y-166434634D01*
X27693291Y-166443555D01*
X27662747Y-166450889D01*
X27631861Y-166456613D01*
X27600717Y-166460713D01*
X27569402Y-166463178D01*
X27538000Y-166464000D01*
X27188000Y-166464000D01*
X27188000Y-165864000D01*
G37*
X27188000Y-165864000D02*
X27178000Y-165864000D01*
X27178000Y-166464000D01*
X26838000Y-166464000D01*
X26806598Y-166463178D01*
X26775283Y-166460713D01*
X26744139Y-166456613D01*
X26713253Y-166450889D01*
X26682709Y-166443555D01*
X26652590Y-166434634D01*
X26622979Y-166424148D01*
X26593958Y-166412127D01*
X26565606Y-166398604D01*
X26538000Y-166383615D01*
X26511217Y-166367202D01*
X26485329Y-166349410D01*
X26460408Y-166330288D01*
X26436522Y-166309887D01*
X26413736Y-166288264D01*
X26392113Y-166265478D01*
X26371712Y-166241592D01*
X26352590Y-166216671D01*
X26334798Y-166190783D01*
X26318385Y-166164000D01*
X26303396Y-166136394D01*
X26289873Y-166108042D01*
X26277852Y-166079021D01*
X26267366Y-166049410D01*
X26258445Y-166019291D01*
X26251111Y-165988747D01*
X26245387Y-165957861D01*
X26241287Y-165926717D01*
X26238822Y-165895402D01*
X26238000Y-165864000D01*
X26238822Y-165832598D01*
X26241287Y-165801283D01*
X26245387Y-165770139D01*
X26251111Y-165739253D01*
X26258445Y-165708709D01*
X26267366Y-165678590D01*
X26277852Y-165648979D01*
X26289873Y-165619958D01*
X26303396Y-165591606D01*
X26318385Y-165564000D01*
X26334798Y-165537217D01*
X26352590Y-165511329D01*
X26371712Y-165486408D01*
X26392113Y-165462522D01*
X26413736Y-165439736D01*
X26436522Y-165418113D01*
X26460408Y-165397712D01*
X26485329Y-165378590D01*
X26511217Y-165360798D01*
X26538000Y-165344385D01*
X26565606Y-165329396D01*
X26593958Y-165315873D01*
X26622979Y-165303852D01*
X26652590Y-165293366D01*
X26682709Y-165284445D01*
X26713253Y-165277111D01*
X26744139Y-165271387D01*
X26775283Y-165267287D01*
X26806598Y-165264822D01*
X26838000Y-165264000D01*
X27538000Y-165264000D01*
X27569402Y-165264822D01*
X27600717Y-165267287D01*
X27631861Y-165271387D01*
X27662747Y-165277111D01*
X27693291Y-165284445D01*
X27723410Y-165293366D01*
X27753021Y-165303852D01*
X27782042Y-165315873D01*
X27810394Y-165329396D01*
X27838000Y-165344385D01*
X27864783Y-165360798D01*
X27890671Y-165378590D01*
X27915592Y-165397712D01*
X27939478Y-165418113D01*
X27962264Y-165439736D01*
X27983887Y-165462522D01*
X28004288Y-165486408D01*
X28023410Y-165511329D01*
X28041202Y-165537217D01*
X28057615Y-165564000D01*
X28072604Y-165591606D01*
X28086127Y-165619958D01*
X28098148Y-165648979D01*
X28108634Y-165678590D01*
X28117555Y-165708709D01*
X28124889Y-165739253D01*
X28130613Y-165770139D01*
X28134713Y-165801283D01*
X28137178Y-165832598D01*
X28138000Y-165864000D01*
X28137178Y-165895402D01*
X28134713Y-165926717D01*
X28130613Y-165957861D01*
X28124889Y-165988747D01*
X28117555Y-166019291D01*
X28108634Y-166049410D01*
X28098148Y-166079021D01*
X28086127Y-166108042D01*
X28072604Y-166136394D01*
X28057615Y-166164000D01*
X28041202Y-166190783D01*
X28023410Y-166216671D01*
X28004288Y-166241592D01*
X27983887Y-166265478D01*
X27962264Y-166288264D01*
X27939478Y-166309887D01*
X27915592Y-166330288D01*
X27890671Y-166349410D01*
X27864783Y-166367202D01*
X27838000Y-166383615D01*
X27810394Y-166398604D01*
X27782042Y-166412127D01*
X27753021Y-166424148D01*
X27723410Y-166434634D01*
X27693291Y-166443555D01*
X27662747Y-166450889D01*
X27631861Y-166456613D01*
X27600717Y-166460713D01*
X27569402Y-166463178D01*
X27538000Y-166464000D01*
X27188000Y-166464000D01*
X27188000Y-165864000D01*
D11*
G36*
X149670433Y-173386893D02*
G01*
X149760657Y-173404839D01*
X149826668Y-173432182D01*
X150015621Y-173510449D01*
X150091763Y-173561325D01*
X150245086Y-173663772D01*
X150440228Y-173858914D01*
X150542675Y-174012237D01*
X150593551Y-174088379D01*
X150699161Y-174343344D01*
X150753000Y-174614012D01*
X150753000Y-174889988D01*
X150699161Y-175160656D01*
X150593551Y-175415621D01*
X150593550Y-175415622D01*
X150440228Y-175645086D01*
X150245086Y-175840228D01*
X150091763Y-175942675D01*
X150015621Y-175993551D01*
X149866267Y-176055415D01*
X149760657Y-176099161D01*
X149670433Y-176117107D01*
X149489988Y-176153000D01*
X149214012Y-176153000D01*
X149033567Y-176117107D01*
X148943343Y-176099161D01*
X148837733Y-176055415D01*
X148688379Y-175993551D01*
X148612237Y-175942675D01*
X148458914Y-175840228D01*
X148263772Y-175645086D01*
X148110450Y-175415622D01*
X148110449Y-175415621D01*
X148004839Y-175160656D01*
X147951000Y-174889988D01*
X147951000Y-174614012D01*
X148004839Y-174343344D01*
X148110449Y-174088379D01*
X148161325Y-174012237D01*
X148263772Y-173858914D01*
X148458914Y-173663772D01*
X148612237Y-173561325D01*
X148688379Y-173510449D01*
X148877332Y-173432182D01*
X148943343Y-173404839D01*
X149033567Y-173386893D01*
X149214012Y-173351000D01*
X149489988Y-173351000D01*
X149670433Y-173386893D01*
G37*
G36*
X28766433Y-173386893D02*
G01*
X28856657Y-173404839D01*
X28922668Y-173432182D01*
X29111621Y-173510449D01*
X29187763Y-173561325D01*
X29341086Y-173663772D01*
X29536228Y-173858914D01*
X29638675Y-174012237D01*
X29689551Y-174088379D01*
X29795161Y-174343344D01*
X29849000Y-174614012D01*
X29849000Y-174889988D01*
X29795161Y-175160656D01*
X29689551Y-175415621D01*
X29689550Y-175415622D01*
X29536228Y-175645086D01*
X29341086Y-175840228D01*
X29187763Y-175942675D01*
X29111621Y-175993551D01*
X28962267Y-176055415D01*
X28856657Y-176099161D01*
X28766433Y-176117107D01*
X28585988Y-176153000D01*
X28310012Y-176153000D01*
X28129567Y-176117107D01*
X28039343Y-176099161D01*
X27933733Y-176055415D01*
X27784379Y-175993551D01*
X27708237Y-175942675D01*
X27554914Y-175840228D01*
X27359772Y-175645086D01*
X27206450Y-175415622D01*
X27206449Y-175415621D01*
X27100839Y-175160656D01*
X27047000Y-174889988D01*
X27047000Y-174614012D01*
X27100839Y-174343344D01*
X27206449Y-174088379D01*
X27257325Y-174012237D01*
X27359772Y-173858914D01*
X27554914Y-173663772D01*
X27708237Y-173561325D01*
X27784379Y-173510449D01*
X27973332Y-173432182D01*
X28039343Y-173404839D01*
X28129567Y-173386893D01*
X28310012Y-173351000D01*
X28585988Y-173351000D01*
X28766433Y-173386893D01*
G37*
G36*
X111498254Y-169487818D02*
G01*
X111871511Y-169642426D01*
X111871513Y-169642427D01*
X112207436Y-169866884D01*
X112493116Y-170152564D01*
X112717574Y-170488489D01*
X112872182Y-170861746D01*
X112951000Y-171257993D01*
X112951000Y-171662007D01*
X112872182Y-172058254D01*
X112717574Y-172431511D01*
X112717573Y-172431513D01*
X112493116Y-172767436D01*
X112207436Y-173053116D01*
X111871513Y-173277573D01*
X111871512Y-173277574D01*
X111871511Y-173277574D01*
X111498254Y-173432182D01*
X111102007Y-173511000D01*
X110697993Y-173511000D01*
X110301746Y-173432182D01*
X109928489Y-173277574D01*
X109928488Y-173277574D01*
X109928487Y-173277573D01*
X109592564Y-173053116D01*
X109306884Y-172767436D01*
X109082427Y-172431513D01*
X109082426Y-172431511D01*
X108927818Y-172058254D01*
X108849000Y-171662007D01*
X108849000Y-171257993D01*
X108927818Y-170861746D01*
X109082426Y-170488489D01*
X109306884Y-170152564D01*
X109592564Y-169866884D01*
X109928487Y-169642427D01*
X109928489Y-169642426D01*
X110301746Y-169487818D01*
X110697993Y-169409000D01*
X111102007Y-169409000D01*
X111498254Y-169487818D01*
G37*
G36*
X67498254Y-169487818D02*
G01*
X67871511Y-169642426D01*
X67871513Y-169642427D01*
X68207436Y-169866884D01*
X68493116Y-170152564D01*
X68717574Y-170488489D01*
X68872182Y-170861746D01*
X68951000Y-171257993D01*
X68951000Y-171662007D01*
X68872182Y-172058254D01*
X68717574Y-172431511D01*
X68717573Y-172431513D01*
X68493116Y-172767436D01*
X68207436Y-173053116D01*
X67871513Y-173277573D01*
X67871512Y-173277574D01*
X67871511Y-173277574D01*
X67498254Y-173432182D01*
X67102007Y-173511000D01*
X66697993Y-173511000D01*
X66301746Y-173432182D01*
X65928489Y-173277574D01*
X65928488Y-173277574D01*
X65928487Y-173277573D01*
X65592564Y-173053116D01*
X65306884Y-172767436D01*
X65082427Y-172431513D01*
X65082426Y-172431511D01*
X64927818Y-172058254D01*
X64849000Y-171662007D01*
X64849000Y-171257993D01*
X64927818Y-170861746D01*
X65082426Y-170488489D01*
X65306884Y-170152564D01*
X65592564Y-169866884D01*
X65928487Y-169642427D01*
X65928489Y-169642426D01*
X66301746Y-169487818D01*
X66697993Y-169409000D01*
X67102007Y-169409000D01*
X67498254Y-169487818D01*
G37*
G36*
X31075797Y-165574567D02*
G01*
X31130575Y-165597257D01*
X31130577Y-165597258D01*
X31179876Y-165630198D01*
X31221802Y-165672124D01*
X31254742Y-165721423D01*
X31254743Y-165721425D01*
X31277433Y-165776203D01*
X31289000Y-165834353D01*
X31289000Y-165893647D01*
X31277433Y-165951797D01*
X31254743Y-166006575D01*
X31254742Y-166006577D01*
X31221802Y-166055876D01*
X31179876Y-166097802D01*
X31130577Y-166130742D01*
X31130576Y-166130743D01*
X31130575Y-166130743D01*
X31075797Y-166153433D01*
X31017647Y-166165000D01*
X30958353Y-166165000D01*
X30900203Y-166153433D01*
X30845425Y-166130743D01*
X30845424Y-166130743D01*
X30845423Y-166130742D01*
X30796124Y-166097802D01*
X30754198Y-166055876D01*
X30721258Y-166006577D01*
X30721257Y-166006575D01*
X30698567Y-165951797D01*
X30687000Y-165893647D01*
X30687000Y-165834353D01*
X30698567Y-165776203D01*
X30721257Y-165721425D01*
X30721258Y-165721423D01*
X30754198Y-165672124D01*
X30796124Y-165630198D01*
X30845423Y-165597258D01*
X30845425Y-165597257D01*
X30900203Y-165574567D01*
X30958353Y-165563000D01*
X31017647Y-165563000D01*
X31075797Y-165574567D01*
G37*
G36*
X27275797Y-165574567D02*
G01*
X27330575Y-165597257D01*
X27330577Y-165597258D01*
X27379876Y-165630198D01*
X27421802Y-165672124D01*
X27454742Y-165721423D01*
X27454743Y-165721425D01*
X27477433Y-165776203D01*
X27489000Y-165834353D01*
X27489000Y-165893647D01*
X27477433Y-165951797D01*
X27454743Y-166006575D01*
X27454742Y-166006577D01*
X27421802Y-166055876D01*
X27379876Y-166097802D01*
X27330577Y-166130742D01*
X27330576Y-166130743D01*
X27330575Y-166130743D01*
X27275797Y-166153433D01*
X27217647Y-166165000D01*
X27158353Y-166165000D01*
X27100203Y-166153433D01*
X27045425Y-166130743D01*
X27045424Y-166130743D01*
X27045423Y-166130742D01*
X26996124Y-166097802D01*
X26954198Y-166055876D01*
X26921258Y-166006577D01*
X26921257Y-166006575D01*
X26898567Y-165951797D01*
X26887000Y-165893647D01*
X26887000Y-165834353D01*
X26898567Y-165776203D01*
X26921257Y-165721425D01*
X26921258Y-165721423D01*
X26954198Y-165672124D01*
X26996124Y-165630198D01*
X27045423Y-165597258D01*
X27045425Y-165597257D01*
X27100203Y-165574567D01*
X27158353Y-165563000D01*
X27217647Y-165563000D01*
X27275797Y-165574567D01*
G37*
G36*
X27275797Y-156934567D02*
G01*
X27330575Y-156957257D01*
X27330577Y-156957258D01*
X27379876Y-156990198D01*
X27421802Y-157032124D01*
X27454742Y-157081423D01*
X27454743Y-157081425D01*
X27477433Y-157136203D01*
X27489000Y-157194353D01*
X27489000Y-157253647D01*
X27477433Y-157311797D01*
X27454743Y-157366575D01*
X27454742Y-157366577D01*
X27421802Y-157415876D01*
X27379876Y-157457802D01*
X27330577Y-157490742D01*
X27330576Y-157490743D01*
X27330575Y-157490743D01*
X27275797Y-157513433D01*
X27217647Y-157525000D01*
X27158353Y-157525000D01*
X27100203Y-157513433D01*
X27045425Y-157490743D01*
X27045424Y-157490743D01*
X27045423Y-157490742D01*
X26996124Y-157457802D01*
X26954198Y-157415876D01*
X26921258Y-157366577D01*
X26921257Y-157366575D01*
X26898567Y-157311797D01*
X26887000Y-157253647D01*
X26887000Y-157194353D01*
X26898567Y-157136203D01*
X26921257Y-157081425D01*
X26921258Y-157081423D01*
X26954198Y-157032124D01*
X26996124Y-156990198D01*
X27045423Y-156957258D01*
X27045425Y-156957257D01*
X27100203Y-156934567D01*
X27158353Y-156923000D01*
X27217647Y-156923000D01*
X27275797Y-156934567D01*
G37*
G36*
X31075797Y-156934567D02*
G01*
X31130575Y-156957257D01*
X31130577Y-156957258D01*
X31179876Y-156990198D01*
X31221802Y-157032124D01*
X31254742Y-157081423D01*
X31254743Y-157081425D01*
X31277433Y-157136203D01*
X31289000Y-157194353D01*
X31289000Y-157253647D01*
X31277433Y-157311797D01*
X31254743Y-157366575D01*
X31254742Y-157366577D01*
X31221802Y-157415876D01*
X31179876Y-157457802D01*
X31130577Y-157490742D01*
X31130576Y-157490743D01*
X31130575Y-157490743D01*
X31075797Y-157513433D01*
X31017647Y-157525000D01*
X30958353Y-157525000D01*
X30900203Y-157513433D01*
X30845425Y-157490743D01*
X30845424Y-157490743D01*
X30845423Y-157490742D01*
X30796124Y-157457802D01*
X30754198Y-157415876D01*
X30721258Y-157366577D01*
X30721257Y-157366575D01*
X30698567Y-157311797D01*
X30687000Y-157253647D01*
X30687000Y-157194353D01*
X30698567Y-157136203D01*
X30721257Y-157081425D01*
X30721258Y-157081423D01*
X30754198Y-157032124D01*
X30796124Y-156990198D01*
X30845423Y-156957258D01*
X30845425Y-156957257D01*
X30900203Y-156934567D01*
X30958353Y-156923000D01*
X31017647Y-156923000D01*
X31075797Y-156934567D01*
G37*
G36*
X33233116Y-150058590D02*
G01*
X33338641Y-150079580D01*
X33537446Y-150161927D01*
X33716365Y-150281477D01*
X33868523Y-150433635D01*
X33988073Y-150612554D01*
X34070420Y-150811359D01*
X34112400Y-151022408D01*
X34112400Y-151237592D01*
X34070420Y-151448641D01*
X33988073Y-151647446D01*
X33868523Y-151826365D01*
X33716365Y-151978523D01*
X33537446Y-152098073D01*
X33338641Y-152180420D01*
X33127593Y-152222400D01*
X32912407Y-152222400D01*
X32701359Y-152180420D01*
X32502554Y-152098073D01*
X32323635Y-151978523D01*
X32171477Y-151826365D01*
X32051927Y-151647446D01*
X31969580Y-151448641D01*
X31927600Y-151237592D01*
X31927600Y-151022408D01*
X31969580Y-150811359D01*
X32051927Y-150612554D01*
X32171477Y-150433635D01*
X32323635Y-150281477D01*
X32502554Y-150161927D01*
X32701359Y-150079580D01*
X32806884Y-150058590D01*
X32912407Y-150037600D01*
X33127593Y-150037600D01*
X33233116Y-150058590D01*
G37*
G36*
X28153116Y-150058590D02*
G01*
X28258641Y-150079580D01*
X28457446Y-150161927D01*
X28636365Y-150281477D01*
X28788523Y-150433635D01*
X28908073Y-150612554D01*
X28990420Y-150811359D01*
X29032400Y-151022408D01*
X29032400Y-151237592D01*
X28990420Y-151448641D01*
X28908073Y-151647446D01*
X28788523Y-151826365D01*
X28636365Y-151978523D01*
X28457446Y-152098073D01*
X28258641Y-152180420D01*
X28047593Y-152222400D01*
X27832407Y-152222400D01*
X27621359Y-152180420D01*
X27422554Y-152098073D01*
X27243635Y-151978523D01*
X27091477Y-151826365D01*
X26971927Y-151647446D01*
X26889580Y-151448641D01*
X26847600Y-151237592D01*
X26847600Y-151022408D01*
X26889580Y-150811359D01*
X26971927Y-150612554D01*
X27091477Y-150433635D01*
X27243635Y-150281477D01*
X27422554Y-150161927D01*
X27621359Y-150079580D01*
X27726884Y-150058590D01*
X27832407Y-150037600D01*
X28047593Y-150037600D01*
X28153116Y-150058590D01*
G37*
G36*
X127825549Y-148350116D02*
G01*
X127936734Y-148372232D01*
X128146203Y-148458997D01*
X128334720Y-148584960D01*
X128495040Y-148745280D01*
X128621003Y-148933797D01*
X128707768Y-149143266D01*
X128752000Y-149365636D01*
X128752000Y-149592364D01*
X128707768Y-149814734D01*
X128621003Y-150024203D01*
X128495040Y-150212720D01*
X128334720Y-150373040D01*
X128146203Y-150499003D01*
X127936734Y-150585768D01*
X127825549Y-150607884D01*
X127714365Y-150630000D01*
X127487635Y-150630000D01*
X127376451Y-150607884D01*
X127265266Y-150585768D01*
X127055797Y-150499003D01*
X126867280Y-150373040D01*
X126706960Y-150212720D01*
X126580997Y-150024203D01*
X126494232Y-149814734D01*
X126450000Y-149592364D01*
X126450000Y-149365636D01*
X126494232Y-149143266D01*
X126580997Y-148933797D01*
X126706960Y-148745280D01*
X126867280Y-148584960D01*
X127055797Y-148458997D01*
X127265266Y-148372232D01*
X127376451Y-148350116D01*
X127487635Y-148328000D01*
X127714365Y-148328000D01*
X127825549Y-148350116D01*
G37*
G36*
X123452000Y-150630000D02*
G01*
X121150000Y-150630000D01*
X121150000Y-148328000D01*
X123452000Y-148328000D01*
X123452000Y-150630000D01*
G37*
G36*
X28153116Y-142184590D02*
G01*
X28258641Y-142205580D01*
X28457446Y-142287927D01*
X28636365Y-142407477D01*
X28788523Y-142559635D01*
X28908073Y-142738554D01*
X28990420Y-142937359D01*
X29032400Y-143148408D01*
X29032400Y-143363592D01*
X28990420Y-143574641D01*
X28908073Y-143773446D01*
X28788523Y-143952365D01*
X28636365Y-144104523D01*
X28457446Y-144224073D01*
X28258641Y-144306420D01*
X28153116Y-144327410D01*
X28047593Y-144348400D01*
X27832407Y-144348400D01*
X27726884Y-144327410D01*
X27621359Y-144306420D01*
X27422554Y-144224073D01*
X27243635Y-144104523D01*
X27091477Y-143952365D01*
X26971927Y-143773446D01*
X26889580Y-143574641D01*
X26847600Y-143363592D01*
X26847600Y-143148408D01*
X26889580Y-142937359D01*
X26971927Y-142738554D01*
X27091477Y-142559635D01*
X27243635Y-142407477D01*
X27422554Y-142287927D01*
X27621359Y-142205580D01*
X27726884Y-142184590D01*
X27832407Y-142163600D01*
X28047593Y-142163600D01*
X28153116Y-142184590D01*
G37*
G36*
X33233116Y-142184590D02*
G01*
X33338641Y-142205580D01*
X33537446Y-142287927D01*
X33716365Y-142407477D01*
X33868523Y-142559635D01*
X33988073Y-142738554D01*
X34070420Y-142937359D01*
X34112400Y-143148408D01*
X34112400Y-143363592D01*
X34070420Y-143574641D01*
X33988073Y-143773446D01*
X33868523Y-143952365D01*
X33716365Y-144104523D01*
X33537446Y-144224073D01*
X33338641Y-144306420D01*
X33233116Y-144327410D01*
X33127593Y-144348400D01*
X32912407Y-144348400D01*
X32806884Y-144327410D01*
X32701359Y-144306420D01*
X32502554Y-144224073D01*
X32323635Y-144104523D01*
X32171477Y-143952365D01*
X32051927Y-143773446D01*
X31969580Y-143574641D01*
X31927600Y-143363592D01*
X31927600Y-143148408D01*
X31969580Y-142937359D01*
X32051927Y-142738554D01*
X32171477Y-142559635D01*
X32323635Y-142407477D01*
X32502554Y-142287927D01*
X32701359Y-142205580D01*
X32806884Y-142184590D01*
X32912407Y-142163600D01*
X33127593Y-142163600D01*
X33233116Y-142184590D01*
G37*
G36*
X67033638Y-141160559D02*
G01*
X67084685Y-141181704D01*
X67135734Y-141202849D01*
X67227614Y-141264241D01*
X67305759Y-141342386D01*
X67367151Y-141434266D01*
X67409441Y-141536363D01*
X67431000Y-141644747D01*
X67431000Y-141755253D01*
X67409441Y-141863637D01*
X67367151Y-141965734D01*
X67305759Y-142057614D01*
X67227614Y-142135759D01*
X67135734Y-142197151D01*
X67084685Y-142218296D01*
X67033638Y-142239441D01*
X66925254Y-142261000D01*
X66814746Y-142261000D01*
X66706362Y-142239441D01*
X66655315Y-142218296D01*
X66604266Y-142197151D01*
X66512386Y-142135759D01*
X66434241Y-142057614D01*
X66372849Y-141965734D01*
X66330559Y-141863637D01*
X66309000Y-141755253D01*
X66309000Y-141644747D01*
X66330559Y-141536363D01*
X66372849Y-141434266D01*
X66434241Y-141342386D01*
X66512386Y-141264241D01*
X66604266Y-141202849D01*
X66655315Y-141181704D01*
X66706362Y-141160559D01*
X66814746Y-141139000D01*
X66925254Y-141139000D01*
X67033638Y-141160559D01*
G37*
G36*
X107033638Y-141160559D02*
G01*
X107084685Y-141181704D01*
X107135734Y-141202849D01*
X107227614Y-141264241D01*
X107305759Y-141342386D01*
X107367151Y-141434266D01*
X107409441Y-141536363D01*
X107431000Y-141644747D01*
X107431000Y-141755253D01*
X107409441Y-141863637D01*
X107367151Y-141965734D01*
X107305759Y-142057614D01*
X107227614Y-142135759D01*
X107135734Y-142197151D01*
X107084685Y-142218296D01*
X107033638Y-142239441D01*
X106925254Y-142261000D01*
X106814746Y-142261000D01*
X106706362Y-142239441D01*
X106655315Y-142218296D01*
X106604266Y-142197151D01*
X106512386Y-142135759D01*
X106434241Y-142057614D01*
X106372849Y-141965734D01*
X106330559Y-141863637D01*
X106309000Y-141755253D01*
X106309000Y-141644747D01*
X106330559Y-141536363D01*
X106372849Y-141434266D01*
X106434241Y-141342386D01*
X106512386Y-141264241D01*
X106604266Y-141202849D01*
X106655315Y-141181704D01*
X106706362Y-141160559D01*
X106814746Y-141139000D01*
X106925254Y-141139000D01*
X107033638Y-141160559D01*
G37*
G36*
X132600000Y-140601000D02*
G01*
X130798000Y-140601000D01*
X130798000Y-138799000D01*
X132600000Y-138799000D01*
X132600000Y-140601000D01*
G37*
G36*
X129272512Y-138803927D02*
G01*
X129421812Y-138833624D01*
X129585784Y-138901544D01*
X129733354Y-139000147D01*
X129858853Y-139125646D01*
X129957456Y-139273216D01*
X130025376Y-139437188D01*
X130060000Y-139611259D01*
X130060000Y-139788741D01*
X130025376Y-139962812D01*
X129957456Y-140126784D01*
X129858853Y-140274354D01*
X129733354Y-140399853D01*
X129585784Y-140498456D01*
X129421812Y-140566376D01*
X129272512Y-140596073D01*
X129247742Y-140601000D01*
X129070258Y-140601000D01*
X129045488Y-140596073D01*
X128896188Y-140566376D01*
X128732216Y-140498456D01*
X128584646Y-140399853D01*
X128459147Y-140274354D01*
X128360544Y-140126784D01*
X128292624Y-139962812D01*
X128258000Y-139788741D01*
X128258000Y-139611259D01*
X128292624Y-139437188D01*
X128360544Y-139273216D01*
X128459147Y-139125646D01*
X128584646Y-139000147D01*
X128732216Y-138901544D01*
X128896188Y-138833624D01*
X129045488Y-138803927D01*
X129070258Y-138799000D01*
X129247742Y-138799000D01*
X129272512Y-138803927D01*
G37*
G36*
X136650589Y-132334876D02*
G01*
X136749893Y-132354629D01*
X136890206Y-132412748D01*
X137016484Y-132497125D01*
X137123875Y-132604516D01*
X137208252Y-132730794D01*
X137266371Y-132871107D01*
X137296000Y-133020063D01*
X137296000Y-133171937D01*
X137266371Y-133320893D01*
X137208252Y-133461206D01*
X137123875Y-133587484D01*
X137016484Y-133694875D01*
X136890206Y-133779252D01*
X136749893Y-133837371D01*
X136650589Y-133857124D01*
X136600938Y-133867000D01*
X136449062Y-133867000D01*
X136399411Y-133857124D01*
X136300107Y-133837371D01*
X136159794Y-133779252D01*
X136033516Y-133694875D01*
X135926125Y-133587484D01*
X135841748Y-133461206D01*
X135783629Y-133320893D01*
X135754000Y-133171937D01*
X135754000Y-133020063D01*
X135783629Y-132871107D01*
X135841748Y-132730794D01*
X135926125Y-132604516D01*
X136033516Y-132497125D01*
X136159794Y-132412748D01*
X136300107Y-132354629D01*
X136399411Y-132334876D01*
X136449062Y-132325000D01*
X136600938Y-132325000D01*
X136650589Y-132334876D01*
G37*
G36*
X134110589Y-129794876D02*
G01*
X134209893Y-129814629D01*
X134350206Y-129872748D01*
X134476484Y-129957125D01*
X134583875Y-130064516D01*
X134668252Y-130190794D01*
X134726371Y-130331107D01*
X134756000Y-130480063D01*
X134756000Y-130631937D01*
X134726371Y-130780893D01*
X134668252Y-130921206D01*
X134583875Y-131047484D01*
X134476484Y-131154875D01*
X134350206Y-131239252D01*
X134209893Y-131297371D01*
X134110589Y-131317124D01*
X134060938Y-131327000D01*
X133909062Y-131327000D01*
X133859411Y-131317124D01*
X133760107Y-131297371D01*
X133619794Y-131239252D01*
X133493516Y-131154875D01*
X133386125Y-131047484D01*
X133301748Y-130921206D01*
X133243629Y-130780893D01*
X133214000Y-130631937D01*
X133214000Y-130480063D01*
X133243629Y-130331107D01*
X133301748Y-130190794D01*
X133386125Y-130064516D01*
X133493516Y-129957125D01*
X133619794Y-129872748D01*
X133760107Y-129814629D01*
X133859411Y-129794876D01*
X133909062Y-129785000D01*
X134060938Y-129785000D01*
X134110589Y-129794876D01*
G37*
G36*
X136650589Y-127254876D02*
G01*
X136749893Y-127274629D01*
X136890206Y-127332748D01*
X137016484Y-127417125D01*
X137123875Y-127524516D01*
X137208252Y-127650794D01*
X137266371Y-127791107D01*
X137296000Y-127940063D01*
X137296000Y-128091937D01*
X137266371Y-128240893D01*
X137208252Y-128381206D01*
X137123875Y-128507484D01*
X137016484Y-128614875D01*
X136890206Y-128699252D01*
X136749893Y-128757371D01*
X136650589Y-128777124D01*
X136600938Y-128787000D01*
X136449062Y-128787000D01*
X136399411Y-128777124D01*
X136300107Y-128757371D01*
X136159794Y-128699252D01*
X136033516Y-128614875D01*
X135926125Y-128507484D01*
X135841748Y-128381206D01*
X135783629Y-128240893D01*
X135754000Y-128091937D01*
X135754000Y-127940063D01*
X135783629Y-127791107D01*
X135841748Y-127650794D01*
X135926125Y-127524516D01*
X136033516Y-127417125D01*
X136159794Y-127332748D01*
X136300107Y-127274629D01*
X136399411Y-127254876D01*
X136449062Y-127245000D01*
X136600938Y-127245000D01*
X136650589Y-127254876D01*
G37*
G36*
X67033638Y-106680559D02*
G01*
X67084685Y-106701704D01*
X67135734Y-106722849D01*
X67227614Y-106784241D01*
X67305759Y-106862386D01*
X67367151Y-106954266D01*
X67409441Y-107056363D01*
X67431000Y-107164747D01*
X67431000Y-107275253D01*
X67409441Y-107383637D01*
X67367151Y-107485734D01*
X67305759Y-107577614D01*
X67227614Y-107655759D01*
X67135734Y-107717151D01*
X67084685Y-107738296D01*
X67033638Y-107759441D01*
X66925254Y-107781000D01*
X66814746Y-107781000D01*
X66706362Y-107759441D01*
X66655315Y-107738296D01*
X66604266Y-107717151D01*
X66512386Y-107655759D01*
X66434241Y-107577614D01*
X66372849Y-107485734D01*
X66330559Y-107383637D01*
X66309000Y-107275253D01*
X66309000Y-107164747D01*
X66330559Y-107056363D01*
X66372849Y-106954266D01*
X66434241Y-106862386D01*
X66512386Y-106784241D01*
X66604266Y-106722849D01*
X66655315Y-106701704D01*
X66706362Y-106680559D01*
X66814746Y-106659000D01*
X66925254Y-106659000D01*
X67033638Y-106680559D01*
G37*
G36*
X107033638Y-106680559D02*
G01*
X107084685Y-106701704D01*
X107135734Y-106722849D01*
X107227614Y-106784241D01*
X107305759Y-106862386D01*
X107367151Y-106954266D01*
X107409441Y-107056363D01*
X107431000Y-107164747D01*
X107431000Y-107275253D01*
X107409441Y-107383637D01*
X107367151Y-107485734D01*
X107305759Y-107577614D01*
X107227614Y-107655759D01*
X107135734Y-107717151D01*
X107084685Y-107738296D01*
X107033638Y-107759441D01*
X106925254Y-107781000D01*
X106814746Y-107781000D01*
X106706362Y-107759441D01*
X106655315Y-107738296D01*
X106604266Y-107717151D01*
X106512386Y-107655759D01*
X106434241Y-107577614D01*
X106372849Y-107485734D01*
X106330559Y-107383637D01*
X106309000Y-107275253D01*
X106309000Y-107164747D01*
X106330559Y-107056363D01*
X106372849Y-106954266D01*
X106434241Y-106862386D01*
X106512386Y-106784241D01*
X106604266Y-106722849D01*
X106655315Y-106701704D01*
X106706362Y-106680559D01*
X106814746Y-106659000D01*
X106925254Y-106659000D01*
X107033638Y-106680559D01*
G37*
G36*
X111498254Y-100487818D02*
G01*
X111871511Y-100642426D01*
X111871513Y-100642427D01*
X112207436Y-100866884D01*
X112493116Y-101152564D01*
X112717574Y-101488489D01*
X112872182Y-101861746D01*
X112951000Y-102257993D01*
X112951000Y-102662007D01*
X112872182Y-103058254D01*
X112717574Y-103431511D01*
X112717573Y-103431513D01*
X112493116Y-103767436D01*
X112207436Y-104053116D01*
X111871513Y-104277573D01*
X111871512Y-104277574D01*
X111871511Y-104277574D01*
X111498254Y-104432182D01*
X111102007Y-104511000D01*
X110697993Y-104511000D01*
X110301746Y-104432182D01*
X109928489Y-104277574D01*
X109928488Y-104277574D01*
X109928487Y-104277573D01*
X109592564Y-104053116D01*
X109306884Y-103767436D01*
X109082427Y-103431513D01*
X109082426Y-103431511D01*
X108927818Y-103058254D01*
X108849000Y-102662007D01*
X108849000Y-102257993D01*
X108927818Y-101861746D01*
X109082426Y-101488489D01*
X109306884Y-101152564D01*
X109592564Y-100866884D01*
X109928487Y-100642427D01*
X109928489Y-100642426D01*
X110301746Y-100487818D01*
X110697993Y-100409000D01*
X111102007Y-100409000D01*
X111498254Y-100487818D01*
G37*
G36*
X67498254Y-100487818D02*
G01*
X67871511Y-100642426D01*
X67871513Y-100642427D01*
X68207436Y-100866884D01*
X68493116Y-101152564D01*
X68717574Y-101488489D01*
X68872182Y-101861746D01*
X68951000Y-102257993D01*
X68951000Y-102662007D01*
X68872182Y-103058254D01*
X68717574Y-103431511D01*
X68717573Y-103431513D01*
X68493116Y-103767436D01*
X68207436Y-104053116D01*
X67871513Y-104277573D01*
X67871512Y-104277574D01*
X67871511Y-104277574D01*
X67498254Y-104432182D01*
X67102007Y-104511000D01*
X66697993Y-104511000D01*
X66301746Y-104432182D01*
X65928489Y-104277574D01*
X65928488Y-104277574D01*
X65928487Y-104277573D01*
X65592564Y-104053116D01*
X65306884Y-103767436D01*
X65082427Y-103431513D01*
X65082426Y-103431511D01*
X64927818Y-103058254D01*
X64849000Y-102662007D01*
X64849000Y-102257993D01*
X64927818Y-101861746D01*
X65082426Y-101488489D01*
X65306884Y-101152564D01*
X65592564Y-100866884D01*
X65928487Y-100642427D01*
X65928489Y-100642426D01*
X66301746Y-100487818D01*
X66697993Y-100409000D01*
X67102007Y-100409000D01*
X67498254Y-100487818D01*
G37*
G36*
X97421000Y-92341000D02*
G01*
X95619000Y-92341000D01*
X95619000Y-90539000D01*
X97421000Y-90539000D01*
X97421000Y-92341000D01*
G37*
G36*
X104253512Y-90543927D02*
G01*
X104402812Y-90573624D01*
X104566784Y-90641544D01*
X104714354Y-90740147D01*
X104839853Y-90865646D01*
X104938456Y-91013216D01*
X105006376Y-91177188D01*
X105041000Y-91351259D01*
X105041000Y-91528741D01*
X105006376Y-91702812D01*
X104938456Y-91866784D01*
X104839853Y-92014354D01*
X104714354Y-92139853D01*
X104566784Y-92238456D01*
X104402812Y-92306376D01*
X104253512Y-92336073D01*
X104228742Y-92341000D01*
X104051258Y-92341000D01*
X104026488Y-92336073D01*
X103877188Y-92306376D01*
X103713216Y-92238456D01*
X103565646Y-92139853D01*
X103440147Y-92014354D01*
X103341544Y-91866784D01*
X103273624Y-91702812D01*
X103239000Y-91528741D01*
X103239000Y-91351259D01*
X103273624Y-91177188D01*
X103341544Y-91013216D01*
X103440147Y-90865646D01*
X103565646Y-90740147D01*
X103713216Y-90641544D01*
X103877188Y-90573624D01*
X104026488Y-90543927D01*
X104051258Y-90539000D01*
X104228742Y-90539000D01*
X104253512Y-90543927D01*
G37*
G36*
X99173512Y-90543927D02*
G01*
X99322812Y-90573624D01*
X99486784Y-90641544D01*
X99634354Y-90740147D01*
X99759853Y-90865646D01*
X99858456Y-91013216D01*
X99926376Y-91177188D01*
X99961000Y-91351259D01*
X99961000Y-91528741D01*
X99926376Y-91702812D01*
X99858456Y-91866784D01*
X99759853Y-92014354D01*
X99634354Y-92139853D01*
X99486784Y-92238456D01*
X99322812Y-92306376D01*
X99173512Y-92336073D01*
X99148742Y-92341000D01*
X98971258Y-92341000D01*
X98946488Y-92336073D01*
X98797188Y-92306376D01*
X98633216Y-92238456D01*
X98485646Y-92139853D01*
X98360147Y-92014354D01*
X98261544Y-91866784D01*
X98193624Y-91702812D01*
X98159000Y-91528741D01*
X98159000Y-91351259D01*
X98193624Y-91177188D01*
X98261544Y-91013216D01*
X98360147Y-90865646D01*
X98485646Y-90740147D01*
X98633216Y-90641544D01*
X98797188Y-90573624D01*
X98946488Y-90543927D01*
X98971258Y-90539000D01*
X99148742Y-90539000D01*
X99173512Y-90543927D01*
G37*
G36*
X80149000Y-92341000D02*
G01*
X78347000Y-92341000D01*
X78347000Y-90539000D01*
X80149000Y-90539000D01*
X80149000Y-92341000D01*
G37*
G36*
X84441512Y-90543927D02*
G01*
X84590812Y-90573624D01*
X84754784Y-90641544D01*
X84902354Y-90740147D01*
X85027853Y-90865646D01*
X85126456Y-91013216D01*
X85194376Y-91177188D01*
X85229000Y-91351259D01*
X85229000Y-91528741D01*
X85194376Y-91702812D01*
X85126456Y-91866784D01*
X85027853Y-92014354D01*
X84902354Y-92139853D01*
X84754784Y-92238456D01*
X84590812Y-92306376D01*
X84441512Y-92336073D01*
X84416742Y-92341000D01*
X84239258Y-92341000D01*
X84214488Y-92336073D01*
X84065188Y-92306376D01*
X83901216Y-92238456D01*
X83753646Y-92139853D01*
X83628147Y-92014354D01*
X83529544Y-91866784D01*
X83461624Y-91702812D01*
X83427000Y-91528741D01*
X83427000Y-91351259D01*
X83461624Y-91177188D01*
X83529544Y-91013216D01*
X83628147Y-90865646D01*
X83753646Y-90740147D01*
X83901216Y-90641544D01*
X84065188Y-90573624D01*
X84214488Y-90543927D01*
X84239258Y-90539000D01*
X84416742Y-90539000D01*
X84441512Y-90543927D01*
G37*
G36*
X86981512Y-90543927D02*
G01*
X87130812Y-90573624D01*
X87294784Y-90641544D01*
X87442354Y-90740147D01*
X87567853Y-90865646D01*
X87666456Y-91013216D01*
X87734376Y-91177188D01*
X87769000Y-91351259D01*
X87769000Y-91528741D01*
X87734376Y-91702812D01*
X87666456Y-91866784D01*
X87567853Y-92014354D01*
X87442354Y-92139853D01*
X87294784Y-92238456D01*
X87130812Y-92306376D01*
X86981512Y-92336073D01*
X86956742Y-92341000D01*
X86779258Y-92341000D01*
X86754488Y-92336073D01*
X86605188Y-92306376D01*
X86441216Y-92238456D01*
X86293646Y-92139853D01*
X86168147Y-92014354D01*
X86069544Y-91866784D01*
X86001624Y-91702812D01*
X85967000Y-91528741D01*
X85967000Y-91351259D01*
X86001624Y-91177188D01*
X86069544Y-91013216D01*
X86168147Y-90865646D01*
X86293646Y-90740147D01*
X86441216Y-90641544D01*
X86605188Y-90573624D01*
X86754488Y-90543927D01*
X86779258Y-90539000D01*
X86956742Y-90539000D01*
X86981512Y-90543927D01*
G37*
G36*
X101713512Y-90543927D02*
G01*
X101862812Y-90573624D01*
X102026784Y-90641544D01*
X102174354Y-90740147D01*
X102299853Y-90865646D01*
X102398456Y-91013216D01*
X102466376Y-91177188D01*
X102501000Y-91351259D01*
X102501000Y-91528741D01*
X102466376Y-91702812D01*
X102398456Y-91866784D01*
X102299853Y-92014354D01*
X102174354Y-92139853D01*
X102026784Y-92238456D01*
X101862812Y-92306376D01*
X101713512Y-92336073D01*
X101688742Y-92341000D01*
X101511258Y-92341000D01*
X101486488Y-92336073D01*
X101337188Y-92306376D01*
X101173216Y-92238456D01*
X101025646Y-92139853D01*
X100900147Y-92014354D01*
X100801544Y-91866784D01*
X100733624Y-91702812D01*
X100699000Y-91528741D01*
X100699000Y-91351259D01*
X100733624Y-91177188D01*
X100801544Y-91013216D01*
X100900147Y-90865646D01*
X101025646Y-90740147D01*
X101173216Y-90641544D01*
X101337188Y-90573624D01*
X101486488Y-90543927D01*
X101511258Y-90539000D01*
X101688742Y-90539000D01*
X101713512Y-90543927D01*
G37*
G36*
X81901512Y-90543927D02*
G01*
X82050812Y-90573624D01*
X82214784Y-90641544D01*
X82362354Y-90740147D01*
X82487853Y-90865646D01*
X82586456Y-91013216D01*
X82654376Y-91177188D01*
X82689000Y-91351259D01*
X82689000Y-91528741D01*
X82654376Y-91702812D01*
X82586456Y-91866784D01*
X82487853Y-92014354D01*
X82362354Y-92139853D01*
X82214784Y-92238456D01*
X82050812Y-92306376D01*
X81901512Y-92336073D01*
X81876742Y-92341000D01*
X81699258Y-92341000D01*
X81674488Y-92336073D01*
X81525188Y-92306376D01*
X81361216Y-92238456D01*
X81213646Y-92139853D01*
X81088147Y-92014354D01*
X80989544Y-91866784D01*
X80921624Y-91702812D01*
X80887000Y-91528741D01*
X80887000Y-91351259D01*
X80921624Y-91177188D01*
X80989544Y-91013216D01*
X81088147Y-90865646D01*
X81213646Y-90740147D01*
X81361216Y-90641544D01*
X81525188Y-90573624D01*
X81674488Y-90543927D01*
X81699258Y-90539000D01*
X81876742Y-90539000D01*
X81901512Y-90543927D01*
G37*
G36*
X99173512Y-88003927D02*
G01*
X99322812Y-88033624D01*
X99486784Y-88101544D01*
X99634354Y-88200147D01*
X99759853Y-88325646D01*
X99858456Y-88473216D01*
X99926376Y-88637188D01*
X99961000Y-88811259D01*
X99961000Y-88988741D01*
X99926376Y-89162812D01*
X99858456Y-89326784D01*
X99759853Y-89474354D01*
X99634354Y-89599853D01*
X99486784Y-89698456D01*
X99322812Y-89766376D01*
X99173512Y-89796073D01*
X99148742Y-89801000D01*
X98971258Y-89801000D01*
X98946488Y-89796073D01*
X98797188Y-89766376D01*
X98633216Y-89698456D01*
X98485646Y-89599853D01*
X98360147Y-89474354D01*
X98261544Y-89326784D01*
X98193624Y-89162812D01*
X98159000Y-88988741D01*
X98159000Y-88811259D01*
X98193624Y-88637188D01*
X98261544Y-88473216D01*
X98360147Y-88325646D01*
X98485646Y-88200147D01*
X98633216Y-88101544D01*
X98797188Y-88033624D01*
X98946488Y-88003927D01*
X98971258Y-87999000D01*
X99148742Y-87999000D01*
X99173512Y-88003927D01*
G37*
G36*
X96633512Y-88003927D02*
G01*
X96782812Y-88033624D01*
X96946784Y-88101544D01*
X97094354Y-88200147D01*
X97219853Y-88325646D01*
X97318456Y-88473216D01*
X97386376Y-88637188D01*
X97421000Y-88811259D01*
X97421000Y-88988741D01*
X97386376Y-89162812D01*
X97318456Y-89326784D01*
X97219853Y-89474354D01*
X97094354Y-89599853D01*
X96946784Y-89698456D01*
X96782812Y-89766376D01*
X96633512Y-89796073D01*
X96608742Y-89801000D01*
X96431258Y-89801000D01*
X96406488Y-89796073D01*
X96257188Y-89766376D01*
X96093216Y-89698456D01*
X95945646Y-89599853D01*
X95820147Y-89474354D01*
X95721544Y-89326784D01*
X95653624Y-89162812D01*
X95619000Y-88988741D01*
X95619000Y-88811259D01*
X95653624Y-88637188D01*
X95721544Y-88473216D01*
X95820147Y-88325646D01*
X95945646Y-88200147D01*
X96093216Y-88101544D01*
X96257188Y-88033624D01*
X96406488Y-88003927D01*
X96431258Y-87999000D01*
X96608742Y-87999000D01*
X96633512Y-88003927D01*
G37*
G36*
X86981512Y-88003927D02*
G01*
X87130812Y-88033624D01*
X87294784Y-88101544D01*
X87442354Y-88200147D01*
X87567853Y-88325646D01*
X87666456Y-88473216D01*
X87734376Y-88637188D01*
X87769000Y-88811259D01*
X87769000Y-88988741D01*
X87734376Y-89162812D01*
X87666456Y-89326784D01*
X87567853Y-89474354D01*
X87442354Y-89599853D01*
X87294784Y-89698456D01*
X87130812Y-89766376D01*
X86981512Y-89796073D01*
X86956742Y-89801000D01*
X86779258Y-89801000D01*
X86754488Y-89796073D01*
X86605188Y-89766376D01*
X86441216Y-89698456D01*
X86293646Y-89599853D01*
X86168147Y-89474354D01*
X86069544Y-89326784D01*
X86001624Y-89162812D01*
X85967000Y-88988741D01*
X85967000Y-88811259D01*
X86001624Y-88637188D01*
X86069544Y-88473216D01*
X86168147Y-88325646D01*
X86293646Y-88200147D01*
X86441216Y-88101544D01*
X86605188Y-88033624D01*
X86754488Y-88003927D01*
X86779258Y-87999000D01*
X86956742Y-87999000D01*
X86981512Y-88003927D01*
G37*
G36*
X101713512Y-88003927D02*
G01*
X101862812Y-88033624D01*
X102026784Y-88101544D01*
X102174354Y-88200147D01*
X102299853Y-88325646D01*
X102398456Y-88473216D01*
X102466376Y-88637188D01*
X102501000Y-88811259D01*
X102501000Y-88988741D01*
X102466376Y-89162812D01*
X102398456Y-89326784D01*
X102299853Y-89474354D01*
X102174354Y-89599853D01*
X102026784Y-89698456D01*
X101862812Y-89766376D01*
X101713512Y-89796073D01*
X101688742Y-89801000D01*
X101511258Y-89801000D01*
X101486488Y-89796073D01*
X101337188Y-89766376D01*
X101173216Y-89698456D01*
X101025646Y-89599853D01*
X100900147Y-89474354D01*
X100801544Y-89326784D01*
X100733624Y-89162812D01*
X100699000Y-88988741D01*
X100699000Y-88811259D01*
X100733624Y-88637188D01*
X100801544Y-88473216D01*
X100900147Y-88325646D01*
X101025646Y-88200147D01*
X101173216Y-88101544D01*
X101337188Y-88033624D01*
X101486488Y-88003927D01*
X101511258Y-87999000D01*
X101688742Y-87999000D01*
X101713512Y-88003927D01*
G37*
G36*
X104253512Y-88003927D02*
G01*
X104402812Y-88033624D01*
X104566784Y-88101544D01*
X104714354Y-88200147D01*
X104839853Y-88325646D01*
X104938456Y-88473216D01*
X105006376Y-88637188D01*
X105041000Y-88811259D01*
X105041000Y-88988741D01*
X105006376Y-89162812D01*
X104938456Y-89326784D01*
X104839853Y-89474354D01*
X104714354Y-89599853D01*
X104566784Y-89698456D01*
X104402812Y-89766376D01*
X104253512Y-89796073D01*
X104228742Y-89801000D01*
X104051258Y-89801000D01*
X104026488Y-89796073D01*
X103877188Y-89766376D01*
X103713216Y-89698456D01*
X103565646Y-89599853D01*
X103440147Y-89474354D01*
X103341544Y-89326784D01*
X103273624Y-89162812D01*
X103239000Y-88988741D01*
X103239000Y-88811259D01*
X103273624Y-88637188D01*
X103341544Y-88473216D01*
X103440147Y-88325646D01*
X103565646Y-88200147D01*
X103713216Y-88101544D01*
X103877188Y-88033624D01*
X104026488Y-88003927D01*
X104051258Y-87999000D01*
X104228742Y-87999000D01*
X104253512Y-88003927D01*
G37*
G36*
X84441512Y-88003927D02*
G01*
X84590812Y-88033624D01*
X84754784Y-88101544D01*
X84902354Y-88200147D01*
X85027853Y-88325646D01*
X85126456Y-88473216D01*
X85194376Y-88637188D01*
X85229000Y-88811259D01*
X85229000Y-88988741D01*
X85194376Y-89162812D01*
X85126456Y-89326784D01*
X85027853Y-89474354D01*
X84902354Y-89599853D01*
X84754784Y-89698456D01*
X84590812Y-89766376D01*
X84441512Y-89796073D01*
X84416742Y-89801000D01*
X84239258Y-89801000D01*
X84214488Y-89796073D01*
X84065188Y-89766376D01*
X83901216Y-89698456D01*
X83753646Y-89599853D01*
X83628147Y-89474354D01*
X83529544Y-89326784D01*
X83461624Y-89162812D01*
X83427000Y-88988741D01*
X83427000Y-88811259D01*
X83461624Y-88637188D01*
X83529544Y-88473216D01*
X83628147Y-88325646D01*
X83753646Y-88200147D01*
X83901216Y-88101544D01*
X84065188Y-88033624D01*
X84214488Y-88003927D01*
X84239258Y-87999000D01*
X84416742Y-87999000D01*
X84441512Y-88003927D01*
G37*
G36*
X79361512Y-88003927D02*
G01*
X79510812Y-88033624D01*
X79674784Y-88101544D01*
X79822354Y-88200147D01*
X79947853Y-88325646D01*
X80046456Y-88473216D01*
X80114376Y-88637188D01*
X80149000Y-88811259D01*
X80149000Y-88988741D01*
X80114376Y-89162812D01*
X80046456Y-89326784D01*
X79947853Y-89474354D01*
X79822354Y-89599853D01*
X79674784Y-89698456D01*
X79510812Y-89766376D01*
X79361512Y-89796073D01*
X79336742Y-89801000D01*
X79159258Y-89801000D01*
X79134488Y-89796073D01*
X78985188Y-89766376D01*
X78821216Y-89698456D01*
X78673646Y-89599853D01*
X78548147Y-89474354D01*
X78449544Y-89326784D01*
X78381624Y-89162812D01*
X78347000Y-88988741D01*
X78347000Y-88811259D01*
X78381624Y-88637188D01*
X78449544Y-88473216D01*
X78548147Y-88325646D01*
X78673646Y-88200147D01*
X78821216Y-88101544D01*
X78985188Y-88033624D01*
X79134488Y-88003927D01*
X79159258Y-87999000D01*
X79336742Y-87999000D01*
X79361512Y-88003927D01*
G37*
G36*
X81901512Y-88003927D02*
G01*
X82050812Y-88033624D01*
X82214784Y-88101544D01*
X82362354Y-88200147D01*
X82487853Y-88325646D01*
X82586456Y-88473216D01*
X82654376Y-88637188D01*
X82689000Y-88811259D01*
X82689000Y-88988741D01*
X82654376Y-89162812D01*
X82586456Y-89326784D01*
X82487853Y-89474354D01*
X82362354Y-89599853D01*
X82214784Y-89698456D01*
X82050812Y-89766376D01*
X81901512Y-89796073D01*
X81876742Y-89801000D01*
X81699258Y-89801000D01*
X81674488Y-89796073D01*
X81525188Y-89766376D01*
X81361216Y-89698456D01*
X81213646Y-89599853D01*
X81088147Y-89474354D01*
X80989544Y-89326784D01*
X80921624Y-89162812D01*
X80887000Y-88988741D01*
X80887000Y-88811259D01*
X80921624Y-88637188D01*
X80989544Y-88473216D01*
X81088147Y-88325646D01*
X81213646Y-88200147D01*
X81361216Y-88101544D01*
X81525188Y-88033624D01*
X81674488Y-88003927D01*
X81699258Y-87999000D01*
X81876742Y-87999000D01*
X81901512Y-88003927D01*
G37*
G36*
X38225589Y-81026876D02*
G01*
X38324893Y-81046629D01*
X38465206Y-81104748D01*
X38591484Y-81189125D01*
X38698875Y-81296516D01*
X38783252Y-81422794D01*
X38841371Y-81563107D01*
X38871000Y-81712063D01*
X38871000Y-81863937D01*
X38841371Y-82012893D01*
X38783252Y-82153206D01*
X38698875Y-82279484D01*
X38591484Y-82386875D01*
X38465206Y-82471252D01*
X38324893Y-82529371D01*
X38225589Y-82549124D01*
X38175938Y-82559000D01*
X38024062Y-82559000D01*
X37974411Y-82549124D01*
X37875107Y-82529371D01*
X37734794Y-82471252D01*
X37608516Y-82386875D01*
X37501125Y-82279484D01*
X37416748Y-82153206D01*
X37358629Y-82012893D01*
X37329000Y-81863937D01*
X37329000Y-81712063D01*
X37358629Y-81563107D01*
X37416748Y-81422794D01*
X37501125Y-81296516D01*
X37608516Y-81189125D01*
X37734794Y-81104748D01*
X37875107Y-81046629D01*
X37974411Y-81026876D01*
X38024062Y-81017000D01*
X38175938Y-81017000D01*
X38225589Y-81026876D01*
G37*
G36*
X44055512Y-79113927D02*
G01*
X44204812Y-79143624D01*
X44368784Y-79211544D01*
X44516354Y-79310147D01*
X44641853Y-79435646D01*
X44740456Y-79583216D01*
X44808376Y-79747188D01*
X44843000Y-79921259D01*
X44843000Y-80098741D01*
X44808376Y-80272812D01*
X44740456Y-80436784D01*
X44641853Y-80584354D01*
X44516354Y-80709853D01*
X44368784Y-80808456D01*
X44204812Y-80876376D01*
X44055512Y-80906073D01*
X44030742Y-80911000D01*
X43853258Y-80911000D01*
X43828488Y-80906073D01*
X43679188Y-80876376D01*
X43515216Y-80808456D01*
X43367646Y-80709853D01*
X43242147Y-80584354D01*
X43143544Y-80436784D01*
X43075624Y-80272812D01*
X43041000Y-80098741D01*
X43041000Y-79921259D01*
X43075624Y-79747188D01*
X43143544Y-79583216D01*
X43242147Y-79435646D01*
X43367646Y-79310147D01*
X43515216Y-79211544D01*
X43679188Y-79143624D01*
X43828488Y-79113927D01*
X43853258Y-79109000D01*
X44030742Y-79109000D01*
X44055512Y-79113927D01*
G37*
G36*
X99264473Y-79335938D02*
G01*
X99392049Y-79388782D01*
X99506859Y-79465495D01*
X99604505Y-79563141D01*
X99681218Y-79677951D01*
X99734062Y-79805527D01*
X99761000Y-79940956D01*
X99761000Y-80079044D01*
X99734062Y-80214473D01*
X99681218Y-80342049D01*
X99604505Y-80456859D01*
X99506859Y-80554505D01*
X99392049Y-80631218D01*
X99264473Y-80684062D01*
X99129044Y-80711000D01*
X98990956Y-80711000D01*
X98855527Y-80684062D01*
X98727951Y-80631218D01*
X98613141Y-80554505D01*
X98515495Y-80456859D01*
X98438782Y-80342049D01*
X98385938Y-80214473D01*
X98359000Y-80079044D01*
X98359000Y-79940956D01*
X98385938Y-79805527D01*
X98438782Y-79677951D01*
X98515495Y-79563141D01*
X98613141Y-79465495D01*
X98727951Y-79388782D01*
X98855527Y-79335938D01*
X98990956Y-79309000D01*
X99129044Y-79309000D01*
X99264473Y-79335938D01*
G37*
G36*
X101804473Y-79335938D02*
G01*
X101932049Y-79388782D01*
X102046859Y-79465495D01*
X102144505Y-79563141D01*
X102221218Y-79677951D01*
X102274062Y-79805527D01*
X102301000Y-79940956D01*
X102301000Y-80079044D01*
X102274062Y-80214473D01*
X102221218Y-80342049D01*
X102144505Y-80456859D01*
X102046859Y-80554505D01*
X101932049Y-80631218D01*
X101804473Y-80684062D01*
X101669044Y-80711000D01*
X101530956Y-80711000D01*
X101395527Y-80684062D01*
X101267951Y-80631218D01*
X101153141Y-80554505D01*
X101055495Y-80456859D01*
X100978782Y-80342049D01*
X100925938Y-80214473D01*
X100899000Y-80079044D01*
X100899000Y-79940956D01*
X100925938Y-79805527D01*
X100978782Y-79677951D01*
X101055495Y-79563141D01*
X101153141Y-79465495D01*
X101267951Y-79388782D01*
X101395527Y-79335938D01*
X101530956Y-79309000D01*
X101669044Y-79309000D01*
X101804473Y-79335938D01*
G37*
G36*
X96724473Y-79335938D02*
G01*
X96852049Y-79388782D01*
X96966859Y-79465495D01*
X97064505Y-79563141D01*
X97141218Y-79677951D01*
X97194062Y-79805527D01*
X97221000Y-79940956D01*
X97221000Y-80079044D01*
X97194062Y-80214473D01*
X97141218Y-80342049D01*
X97064505Y-80456859D01*
X96966859Y-80554505D01*
X96852049Y-80631218D01*
X96724473Y-80684062D01*
X96589044Y-80711000D01*
X96450956Y-80711000D01*
X96315527Y-80684062D01*
X96187951Y-80631218D01*
X96073141Y-80554505D01*
X95975495Y-80456859D01*
X95898782Y-80342049D01*
X95845938Y-80214473D01*
X95819000Y-80079044D01*
X95819000Y-79940956D01*
X95845938Y-79805527D01*
X95898782Y-79677951D01*
X95975495Y-79563141D01*
X96073141Y-79465495D01*
X96187951Y-79388782D01*
X96315527Y-79335938D01*
X96450956Y-79309000D01*
X96589044Y-79309000D01*
X96724473Y-79335938D01*
G37*
G36*
X76404473Y-79335938D02*
G01*
X76532049Y-79388782D01*
X76646859Y-79465495D01*
X76744505Y-79563141D01*
X76821218Y-79677951D01*
X76874062Y-79805527D01*
X76901000Y-79940956D01*
X76901000Y-80079044D01*
X76874062Y-80214473D01*
X76821218Y-80342049D01*
X76744505Y-80456859D01*
X76646859Y-80554505D01*
X76532049Y-80631218D01*
X76404473Y-80684062D01*
X76269044Y-80711000D01*
X76130956Y-80711000D01*
X75995527Y-80684062D01*
X75867951Y-80631218D01*
X75753141Y-80554505D01*
X75655495Y-80456859D01*
X75578782Y-80342049D01*
X75525938Y-80214473D01*
X75499000Y-80079044D01*
X75499000Y-79940956D01*
X75525938Y-79805527D01*
X75578782Y-79677951D01*
X75655495Y-79563141D01*
X75753141Y-79465495D01*
X75867951Y-79388782D01*
X75995527Y-79335938D01*
X76130956Y-79309000D01*
X76269044Y-79309000D01*
X76404473Y-79335938D01*
G37*
G36*
X94184473Y-79335938D02*
G01*
X94312049Y-79388782D01*
X94426859Y-79465495D01*
X94524505Y-79563141D01*
X94601218Y-79677951D01*
X94654062Y-79805527D01*
X94681000Y-79940956D01*
X94681000Y-80079044D01*
X94654062Y-80214473D01*
X94601218Y-80342049D01*
X94524505Y-80456859D01*
X94426859Y-80554505D01*
X94312049Y-80631218D01*
X94184473Y-80684062D01*
X94049044Y-80711000D01*
X93910956Y-80711000D01*
X93775527Y-80684062D01*
X93647951Y-80631218D01*
X93533141Y-80554505D01*
X93435495Y-80456859D01*
X93358782Y-80342049D01*
X93305938Y-80214473D01*
X93279000Y-80079044D01*
X93279000Y-79940956D01*
X93305938Y-79805527D01*
X93358782Y-79677951D01*
X93435495Y-79563141D01*
X93533141Y-79465495D01*
X93647951Y-79388782D01*
X93775527Y-79335938D01*
X93910956Y-79309000D01*
X94049044Y-79309000D01*
X94184473Y-79335938D01*
G37*
G36*
X91644473Y-79335938D02*
G01*
X91772049Y-79388782D01*
X91886859Y-79465495D01*
X91984505Y-79563141D01*
X92061218Y-79677951D01*
X92114062Y-79805527D01*
X92141000Y-79940956D01*
X92141000Y-80079044D01*
X92114062Y-80214473D01*
X92061218Y-80342049D01*
X91984505Y-80456859D01*
X91886859Y-80554505D01*
X91772049Y-80631218D01*
X91644473Y-80684062D01*
X91509044Y-80711000D01*
X91370956Y-80711000D01*
X91235527Y-80684062D01*
X91107951Y-80631218D01*
X90993141Y-80554505D01*
X90895495Y-80456859D01*
X90818782Y-80342049D01*
X90765938Y-80214473D01*
X90739000Y-80079044D01*
X90739000Y-79940956D01*
X90765938Y-79805527D01*
X90818782Y-79677951D01*
X90895495Y-79563141D01*
X90993141Y-79465495D01*
X91107951Y-79388782D01*
X91235527Y-79335938D01*
X91370956Y-79309000D01*
X91509044Y-79309000D01*
X91644473Y-79335938D01*
G37*
G36*
X78944473Y-79335938D02*
G01*
X79072049Y-79388782D01*
X79186859Y-79465495D01*
X79284505Y-79563141D01*
X79361218Y-79677951D01*
X79414062Y-79805527D01*
X79441000Y-79940956D01*
X79441000Y-80079044D01*
X79414062Y-80214473D01*
X79361218Y-80342049D01*
X79284505Y-80456859D01*
X79186859Y-80554505D01*
X79072049Y-80631218D01*
X78944473Y-80684062D01*
X78809044Y-80711000D01*
X78670956Y-80711000D01*
X78535527Y-80684062D01*
X78407951Y-80631218D01*
X78293141Y-80554505D01*
X78195495Y-80456859D01*
X78118782Y-80342049D01*
X78065938Y-80214473D01*
X78039000Y-80079044D01*
X78039000Y-79940956D01*
X78065938Y-79805527D01*
X78118782Y-79677951D01*
X78195495Y-79563141D01*
X78293141Y-79465495D01*
X78407951Y-79388782D01*
X78535527Y-79335938D01*
X78670956Y-79309000D01*
X78809044Y-79309000D01*
X78944473Y-79335938D01*
G37*
G36*
X86564473Y-79335938D02*
G01*
X86692049Y-79388782D01*
X86806859Y-79465495D01*
X86904505Y-79563141D01*
X86981218Y-79677951D01*
X87034062Y-79805527D01*
X87061000Y-79940956D01*
X87061000Y-80079044D01*
X87034062Y-80214473D01*
X86981218Y-80342049D01*
X86904505Y-80456859D01*
X86806859Y-80554505D01*
X86692049Y-80631218D01*
X86564473Y-80684062D01*
X86429044Y-80711000D01*
X86290956Y-80711000D01*
X86155527Y-80684062D01*
X86027951Y-80631218D01*
X85913141Y-80554505D01*
X85815495Y-80456859D01*
X85738782Y-80342049D01*
X85685938Y-80214473D01*
X85659000Y-80079044D01*
X85659000Y-79940956D01*
X85685938Y-79805527D01*
X85738782Y-79677951D01*
X85815495Y-79563141D01*
X85913141Y-79465495D01*
X86027951Y-79388782D01*
X86155527Y-79335938D01*
X86290956Y-79309000D01*
X86429044Y-79309000D01*
X86564473Y-79335938D01*
G37*
G36*
X81484473Y-79335938D02*
G01*
X81612049Y-79388782D01*
X81726859Y-79465495D01*
X81824505Y-79563141D01*
X81901218Y-79677951D01*
X81954062Y-79805527D01*
X81981000Y-79940956D01*
X81981000Y-80079044D01*
X81954062Y-80214473D01*
X81901218Y-80342049D01*
X81824505Y-80456859D01*
X81726859Y-80554505D01*
X81612049Y-80631218D01*
X81484473Y-80684062D01*
X81349044Y-80711000D01*
X81210956Y-80711000D01*
X81075527Y-80684062D01*
X80947951Y-80631218D01*
X80833141Y-80554505D01*
X80735495Y-80456859D01*
X80658782Y-80342049D01*
X80605938Y-80214473D01*
X80579000Y-80079044D01*
X80579000Y-79940956D01*
X80605938Y-79805527D01*
X80658782Y-79677951D01*
X80735495Y-79563141D01*
X80833141Y-79465495D01*
X80947951Y-79388782D01*
X81075527Y-79335938D01*
X81210956Y-79309000D01*
X81349044Y-79309000D01*
X81484473Y-79335938D01*
G37*
G36*
X84024473Y-79335938D02*
G01*
X84152049Y-79388782D01*
X84266859Y-79465495D01*
X84364505Y-79563141D01*
X84441218Y-79677951D01*
X84494062Y-79805527D01*
X84521000Y-79940956D01*
X84521000Y-80079044D01*
X84494062Y-80214473D01*
X84441218Y-80342049D01*
X84364505Y-80456859D01*
X84266859Y-80554505D01*
X84152049Y-80631218D01*
X84024473Y-80684062D01*
X83889044Y-80711000D01*
X83750956Y-80711000D01*
X83615527Y-80684062D01*
X83487951Y-80631218D01*
X83373141Y-80554505D01*
X83275495Y-80456859D01*
X83198782Y-80342049D01*
X83145938Y-80214473D01*
X83119000Y-80079044D01*
X83119000Y-79940956D01*
X83145938Y-79805527D01*
X83198782Y-79677951D01*
X83275495Y-79563141D01*
X83373141Y-79465495D01*
X83487951Y-79388782D01*
X83615527Y-79335938D01*
X83750956Y-79309000D01*
X83889044Y-79309000D01*
X84024473Y-79335938D01*
G37*
G36*
X89104473Y-79335938D02*
G01*
X89232049Y-79388782D01*
X89346859Y-79465495D01*
X89444505Y-79563141D01*
X89521218Y-79677951D01*
X89574062Y-79805527D01*
X89601000Y-79940956D01*
X89601000Y-80079044D01*
X89574062Y-80214473D01*
X89521218Y-80342049D01*
X89444505Y-80456859D01*
X89346859Y-80554505D01*
X89232049Y-80631218D01*
X89104473Y-80684062D01*
X88969044Y-80711000D01*
X88830956Y-80711000D01*
X88695527Y-80684062D01*
X88567951Y-80631218D01*
X88453141Y-80554505D01*
X88355495Y-80456859D01*
X88278782Y-80342049D01*
X88225938Y-80214473D01*
X88199000Y-80079044D01*
X88199000Y-79940956D01*
X88225938Y-79805527D01*
X88278782Y-79677951D01*
X88355495Y-79563141D01*
X88453141Y-79465495D01*
X88567951Y-79388782D01*
X88695527Y-79335938D01*
X88830956Y-79309000D01*
X88969044Y-79309000D01*
X89104473Y-79335938D01*
G37*
G36*
X40765589Y-78486876D02*
G01*
X40864893Y-78506629D01*
X41005206Y-78564748D01*
X41131484Y-78649125D01*
X41238875Y-78756516D01*
X41323252Y-78882794D01*
X41381371Y-79023107D01*
X41411000Y-79172063D01*
X41411000Y-79323937D01*
X41381371Y-79472893D01*
X41323252Y-79613206D01*
X41238875Y-79739484D01*
X41131484Y-79846875D01*
X41005206Y-79931252D01*
X40864893Y-79989371D01*
X40765589Y-80009124D01*
X40715938Y-80019000D01*
X40564062Y-80019000D01*
X40514411Y-80009124D01*
X40415107Y-79989371D01*
X40274794Y-79931252D01*
X40148516Y-79846875D01*
X40041125Y-79739484D01*
X39956748Y-79613206D01*
X39898629Y-79472893D01*
X39869000Y-79323937D01*
X39869000Y-79172063D01*
X39898629Y-79023107D01*
X39956748Y-78882794D01*
X40041125Y-78756516D01*
X40148516Y-78649125D01*
X40274794Y-78564748D01*
X40415107Y-78506629D01*
X40514411Y-78486876D01*
X40564062Y-78477000D01*
X40715938Y-78477000D01*
X40765589Y-78486876D01*
G37*
G36*
X44843000Y-78371000D02*
G01*
X43041000Y-78371000D01*
X43041000Y-76569000D01*
X44843000Y-76569000D01*
X44843000Y-78371000D01*
G37*
G36*
X94184473Y-76795938D02*
G01*
X94312049Y-76848782D01*
X94426859Y-76925495D01*
X94524505Y-77023141D01*
X94601218Y-77137951D01*
X94654062Y-77265527D01*
X94681000Y-77400956D01*
X94681000Y-77539044D01*
X94654062Y-77674473D01*
X94601218Y-77802049D01*
X94524505Y-77916859D01*
X94426859Y-78014505D01*
X94312049Y-78091218D01*
X94184473Y-78144062D01*
X94049044Y-78171000D01*
X93910956Y-78171000D01*
X93775527Y-78144062D01*
X93647951Y-78091218D01*
X93533141Y-78014505D01*
X93435495Y-77916859D01*
X93358782Y-77802049D01*
X93305938Y-77674473D01*
X93279000Y-77539044D01*
X93279000Y-77400956D01*
X93305938Y-77265527D01*
X93358782Y-77137951D01*
X93435495Y-77023141D01*
X93533141Y-76925495D01*
X93647951Y-76848782D01*
X93775527Y-76795938D01*
X93910956Y-76769000D01*
X94049044Y-76769000D01*
X94184473Y-76795938D01*
G37*
G36*
X78944473Y-76795938D02*
G01*
X79072049Y-76848782D01*
X79186859Y-76925495D01*
X79284505Y-77023141D01*
X79361218Y-77137951D01*
X79414062Y-77265527D01*
X79441000Y-77400956D01*
X79441000Y-77539044D01*
X79414062Y-77674473D01*
X79361218Y-77802049D01*
X79284505Y-77916859D01*
X79186859Y-78014505D01*
X79072049Y-78091218D01*
X78944473Y-78144062D01*
X78809044Y-78171000D01*
X78670956Y-78171000D01*
X78535527Y-78144062D01*
X78407951Y-78091218D01*
X78293141Y-78014505D01*
X78195495Y-77916859D01*
X78118782Y-77802049D01*
X78065938Y-77674473D01*
X78039000Y-77539044D01*
X78039000Y-77400956D01*
X78065938Y-77265527D01*
X78118782Y-77137951D01*
X78195495Y-77023141D01*
X78293141Y-76925495D01*
X78407951Y-76848782D01*
X78535527Y-76795938D01*
X78670956Y-76769000D01*
X78809044Y-76769000D01*
X78944473Y-76795938D01*
G37*
G36*
X84024473Y-76795938D02*
G01*
X84152049Y-76848782D01*
X84266859Y-76925495D01*
X84364505Y-77023141D01*
X84441218Y-77137951D01*
X84494062Y-77265527D01*
X84521000Y-77400956D01*
X84521000Y-77539044D01*
X84494062Y-77674473D01*
X84441218Y-77802049D01*
X84364505Y-77916859D01*
X84266859Y-78014505D01*
X84152049Y-78091218D01*
X84024473Y-78144062D01*
X83889044Y-78171000D01*
X83750956Y-78171000D01*
X83615527Y-78144062D01*
X83487951Y-78091218D01*
X83373141Y-78014505D01*
X83275495Y-77916859D01*
X83198782Y-77802049D01*
X83145938Y-77674473D01*
X83119000Y-77539044D01*
X83119000Y-77400956D01*
X83145938Y-77265527D01*
X83198782Y-77137951D01*
X83275495Y-77023141D01*
X83373141Y-76925495D01*
X83487951Y-76848782D01*
X83615527Y-76795938D01*
X83750956Y-76769000D01*
X83889044Y-76769000D01*
X84024473Y-76795938D01*
G37*
G36*
X73864473Y-76795938D02*
G01*
X73992049Y-76848782D01*
X74106859Y-76925495D01*
X74204505Y-77023141D01*
X74281218Y-77137951D01*
X74334062Y-77265527D01*
X74361000Y-77400956D01*
X74361000Y-77539044D01*
X74334062Y-77674473D01*
X74281218Y-77802049D01*
X74204505Y-77916859D01*
X74106859Y-78014505D01*
X73992049Y-78091218D01*
X73864473Y-78144062D01*
X73729044Y-78171000D01*
X73590956Y-78171000D01*
X73455527Y-78144062D01*
X73327951Y-78091218D01*
X73213141Y-78014505D01*
X73115495Y-77916859D01*
X73038782Y-77802049D01*
X72985938Y-77674473D01*
X72959000Y-77539044D01*
X72959000Y-77400956D01*
X72985938Y-77265527D01*
X73038782Y-77137951D01*
X73115495Y-77023141D01*
X73213141Y-76925495D01*
X73327951Y-76848782D01*
X73455527Y-76795938D01*
X73590956Y-76769000D01*
X73729044Y-76769000D01*
X73864473Y-76795938D01*
G37*
G36*
X76404473Y-76795938D02*
G01*
X76532049Y-76848782D01*
X76646859Y-76925495D01*
X76744505Y-77023141D01*
X76821218Y-77137951D01*
X76874062Y-77265527D01*
X76901000Y-77400956D01*
X76901000Y-77539044D01*
X76874062Y-77674473D01*
X76821218Y-77802049D01*
X76744505Y-77916859D01*
X76646859Y-78014505D01*
X76532049Y-78091218D01*
X76404473Y-78144062D01*
X76269044Y-78171000D01*
X76130956Y-78171000D01*
X75995527Y-78144062D01*
X75867951Y-78091218D01*
X75753141Y-78014505D01*
X75655495Y-77916859D01*
X75578782Y-77802049D01*
X75525938Y-77674473D01*
X75499000Y-77539044D01*
X75499000Y-77400956D01*
X75525938Y-77265527D01*
X75578782Y-77137951D01*
X75655495Y-77023141D01*
X75753141Y-76925495D01*
X75867951Y-76848782D01*
X75995527Y-76795938D01*
X76130956Y-76769000D01*
X76269044Y-76769000D01*
X76404473Y-76795938D01*
G37*
G36*
X86564473Y-76795938D02*
G01*
X86692049Y-76848782D01*
X86806859Y-76925495D01*
X86904505Y-77023141D01*
X86981218Y-77137951D01*
X87034062Y-77265527D01*
X87061000Y-77400956D01*
X87061000Y-77539044D01*
X87034062Y-77674473D01*
X86981218Y-77802049D01*
X86904505Y-77916859D01*
X86806859Y-78014505D01*
X86692049Y-78091218D01*
X86564473Y-78144062D01*
X86429044Y-78171000D01*
X86290956Y-78171000D01*
X86155527Y-78144062D01*
X86027951Y-78091218D01*
X85913141Y-78014505D01*
X85815495Y-77916859D01*
X85738782Y-77802049D01*
X85685938Y-77674473D01*
X85659000Y-77539044D01*
X85659000Y-77400956D01*
X85685938Y-77265527D01*
X85738782Y-77137951D01*
X85815495Y-77023141D01*
X85913141Y-76925495D01*
X86027951Y-76848782D01*
X86155527Y-76795938D01*
X86290956Y-76769000D01*
X86429044Y-76769000D01*
X86564473Y-76795938D01*
G37*
G36*
X89104473Y-76795938D02*
G01*
X89232049Y-76848782D01*
X89346859Y-76925495D01*
X89444505Y-77023141D01*
X89521218Y-77137951D01*
X89574062Y-77265527D01*
X89601000Y-77400956D01*
X89601000Y-77539044D01*
X89574062Y-77674473D01*
X89521218Y-77802049D01*
X89444505Y-77916859D01*
X89346859Y-78014505D01*
X89232049Y-78091218D01*
X89104473Y-78144062D01*
X88969044Y-78171000D01*
X88830956Y-78171000D01*
X88695527Y-78144062D01*
X88567951Y-78091218D01*
X88453141Y-78014505D01*
X88355495Y-77916859D01*
X88278782Y-77802049D01*
X88225938Y-77674473D01*
X88199000Y-77539044D01*
X88199000Y-77400956D01*
X88225938Y-77265527D01*
X88278782Y-77137951D01*
X88355495Y-77023141D01*
X88453141Y-76925495D01*
X88567951Y-76848782D01*
X88695527Y-76795938D01*
X88830956Y-76769000D01*
X88969044Y-76769000D01*
X89104473Y-76795938D01*
G37*
G36*
X91644473Y-76795938D02*
G01*
X91772049Y-76848782D01*
X91886859Y-76925495D01*
X91984505Y-77023141D01*
X92061218Y-77137951D01*
X92114062Y-77265527D01*
X92141000Y-77400956D01*
X92141000Y-77539044D01*
X92114062Y-77674473D01*
X92061218Y-77802049D01*
X91984505Y-77916859D01*
X91886859Y-78014505D01*
X91772049Y-78091218D01*
X91644473Y-78144062D01*
X91509044Y-78171000D01*
X91370956Y-78171000D01*
X91235527Y-78144062D01*
X91107951Y-78091218D01*
X90993141Y-78014505D01*
X90895495Y-77916859D01*
X90818782Y-77802049D01*
X90765938Y-77674473D01*
X90739000Y-77539044D01*
X90739000Y-77400956D01*
X90765938Y-77265527D01*
X90818782Y-77137951D01*
X90895495Y-77023141D01*
X90993141Y-76925495D01*
X91107951Y-76848782D01*
X91235527Y-76795938D01*
X91370956Y-76769000D01*
X91509044Y-76769000D01*
X91644473Y-76795938D01*
G37*
G36*
X81484473Y-76795938D02*
G01*
X81612049Y-76848782D01*
X81726859Y-76925495D01*
X81824505Y-77023141D01*
X81901218Y-77137951D01*
X81954062Y-77265527D01*
X81981000Y-77400956D01*
X81981000Y-77539044D01*
X81954062Y-77674473D01*
X81901218Y-77802049D01*
X81824505Y-77916859D01*
X81726859Y-78014505D01*
X81612049Y-78091218D01*
X81484473Y-78144062D01*
X81349044Y-78171000D01*
X81210956Y-78171000D01*
X81075527Y-78144062D01*
X80947951Y-78091218D01*
X80833141Y-78014505D01*
X80735495Y-77916859D01*
X80658782Y-77802049D01*
X80605938Y-77674473D01*
X80579000Y-77539044D01*
X80579000Y-77400956D01*
X80605938Y-77265527D01*
X80658782Y-77137951D01*
X80735495Y-77023141D01*
X80833141Y-76925495D01*
X80947951Y-76848782D01*
X81075527Y-76795938D01*
X81210956Y-76769000D01*
X81349044Y-76769000D01*
X81484473Y-76795938D01*
G37*
G36*
X96724473Y-76795938D02*
G01*
X96852049Y-76848782D01*
X96966859Y-76925495D01*
X97064505Y-77023141D01*
X97141218Y-77137951D01*
X97194062Y-77265527D01*
X97221000Y-77400956D01*
X97221000Y-77539044D01*
X97194062Y-77674473D01*
X97141218Y-77802049D01*
X97064505Y-77916859D01*
X96966859Y-78014505D01*
X96852049Y-78091218D01*
X96724473Y-78144062D01*
X96589044Y-78171000D01*
X96450956Y-78171000D01*
X96315527Y-78144062D01*
X96187951Y-78091218D01*
X96073141Y-78014505D01*
X95975495Y-77916859D01*
X95898782Y-77802049D01*
X95845938Y-77674473D01*
X95819000Y-77539044D01*
X95819000Y-77400956D01*
X95845938Y-77265527D01*
X95898782Y-77137951D01*
X95975495Y-77023141D01*
X96073141Y-76925495D01*
X96187951Y-76848782D01*
X96315527Y-76795938D01*
X96450956Y-76769000D01*
X96589044Y-76769000D01*
X96724473Y-76795938D01*
G37*
G36*
X99264473Y-76795938D02*
G01*
X99392049Y-76848782D01*
X99506859Y-76925495D01*
X99604505Y-77023141D01*
X99681218Y-77137951D01*
X99734062Y-77265527D01*
X99761000Y-77400956D01*
X99761000Y-77539044D01*
X99734062Y-77674473D01*
X99681218Y-77802049D01*
X99604505Y-77916859D01*
X99506859Y-78014505D01*
X99392049Y-78091218D01*
X99264473Y-78144062D01*
X99129044Y-78171000D01*
X98990956Y-78171000D01*
X98855527Y-78144062D01*
X98727951Y-78091218D01*
X98613141Y-78014505D01*
X98515495Y-77916859D01*
X98438782Y-77802049D01*
X98385938Y-77674473D01*
X98359000Y-77539044D01*
X98359000Y-77400956D01*
X98385938Y-77265527D01*
X98438782Y-77137951D01*
X98515495Y-77023141D01*
X98613141Y-76925495D01*
X98727951Y-76848782D01*
X98855527Y-76795938D01*
X98990956Y-76769000D01*
X99129044Y-76769000D01*
X99264473Y-76795938D01*
G37*
G36*
X101804473Y-76795938D02*
G01*
X101932049Y-76848782D01*
X102046859Y-76925495D01*
X102144505Y-77023141D01*
X102221218Y-77137951D01*
X102274062Y-77265527D01*
X102301000Y-77400956D01*
X102301000Y-77539044D01*
X102274062Y-77674473D01*
X102221218Y-77802049D01*
X102144505Y-77916859D01*
X102046859Y-78014505D01*
X101932049Y-78091218D01*
X101804473Y-78144062D01*
X101669044Y-78171000D01*
X101530956Y-78171000D01*
X101395527Y-78144062D01*
X101267951Y-78091218D01*
X101153141Y-78014505D01*
X101055495Y-77916859D01*
X100978782Y-77802049D01*
X100925938Y-77674473D01*
X100899000Y-77539044D01*
X100899000Y-77400956D01*
X100925938Y-77265527D01*
X100978782Y-77137951D01*
X101055495Y-77023141D01*
X101153141Y-76925495D01*
X101267951Y-76848782D01*
X101395527Y-76795938D01*
X101530956Y-76769000D01*
X101669044Y-76769000D01*
X101804473Y-76795938D01*
G37*
G36*
X104344473Y-76795938D02*
G01*
X104472049Y-76848782D01*
X104586859Y-76925495D01*
X104684505Y-77023141D01*
X104761218Y-77137951D01*
X104814062Y-77265527D01*
X104841000Y-77400956D01*
X104841000Y-77539044D01*
X104814062Y-77674473D01*
X104761218Y-77802049D01*
X104684505Y-77916859D01*
X104586859Y-78014505D01*
X104472049Y-78091218D01*
X104344473Y-78144062D01*
X104209044Y-78171000D01*
X104070956Y-78171000D01*
X103935527Y-78144062D01*
X103807951Y-78091218D01*
X103693141Y-78014505D01*
X103595495Y-77916859D01*
X103518782Y-77802049D01*
X103465938Y-77674473D01*
X103439000Y-77539044D01*
X103439000Y-77400956D01*
X103465938Y-77265527D01*
X103518782Y-77137951D01*
X103595495Y-77023141D01*
X103693141Y-76925495D01*
X103807951Y-76848782D01*
X103935527Y-76795938D01*
X104070956Y-76769000D01*
X104209044Y-76769000D01*
X104344473Y-76795938D01*
G37*
G36*
X38225589Y-75946876D02*
G01*
X38324893Y-75966629D01*
X38465206Y-76024748D01*
X38591484Y-76109125D01*
X38698875Y-76216516D01*
X38783252Y-76342794D01*
X38841371Y-76483107D01*
X38871000Y-76632063D01*
X38871000Y-76783937D01*
X38841371Y-76932893D01*
X38783252Y-77073206D01*
X38698875Y-77199484D01*
X38591484Y-77306875D01*
X38465206Y-77391252D01*
X38324893Y-77449371D01*
X38225589Y-77469124D01*
X38175938Y-77479000D01*
X38024062Y-77479000D01*
X37974411Y-77469124D01*
X37875107Y-77449371D01*
X37734794Y-77391252D01*
X37608516Y-77306875D01*
X37501125Y-77199484D01*
X37416748Y-77073206D01*
X37358629Y-76932893D01*
X37329000Y-76783937D01*
X37329000Y-76632063D01*
X37358629Y-76483107D01*
X37416748Y-76342794D01*
X37501125Y-76216516D01*
X37608516Y-76109125D01*
X37734794Y-76024748D01*
X37875107Y-75966629D01*
X37974411Y-75946876D01*
X38024062Y-75937000D01*
X38175938Y-75937000D01*
X38225589Y-75946876D01*
G37*
G36*
X51675512Y-74033927D02*
G01*
X51824812Y-74063624D01*
X51988784Y-74131544D01*
X52136354Y-74230147D01*
X52261853Y-74355646D01*
X52360456Y-74503216D01*
X52428376Y-74667188D01*
X52463000Y-74841259D01*
X52463000Y-75018741D01*
X52428376Y-75192812D01*
X52360456Y-75356784D01*
X52261853Y-75504354D01*
X52136354Y-75629853D01*
X51988784Y-75728456D01*
X51824812Y-75796376D01*
X51675512Y-75826073D01*
X51650742Y-75831000D01*
X51473258Y-75831000D01*
X51448488Y-75826073D01*
X51299188Y-75796376D01*
X51135216Y-75728456D01*
X50987646Y-75629853D01*
X50862147Y-75504354D01*
X50763544Y-75356784D01*
X50695624Y-75192812D01*
X50661000Y-75018741D01*
X50661000Y-74841259D01*
X50695624Y-74667188D01*
X50763544Y-74503216D01*
X50862147Y-74355646D01*
X50987646Y-74230147D01*
X51135216Y-74131544D01*
X51299188Y-74063624D01*
X51448488Y-74033927D01*
X51473258Y-74029000D01*
X51650742Y-74029000D01*
X51675512Y-74033927D01*
G37*
G36*
X49135512Y-74033927D02*
G01*
X49284812Y-74063624D01*
X49448784Y-74131544D01*
X49596354Y-74230147D01*
X49721853Y-74355646D01*
X49820456Y-74503216D01*
X49888376Y-74667188D01*
X49923000Y-74841259D01*
X49923000Y-75018741D01*
X49888376Y-75192812D01*
X49820456Y-75356784D01*
X49721853Y-75504354D01*
X49596354Y-75629853D01*
X49448784Y-75728456D01*
X49284812Y-75796376D01*
X49135512Y-75826073D01*
X49110742Y-75831000D01*
X48933258Y-75831000D01*
X48908488Y-75826073D01*
X48759188Y-75796376D01*
X48595216Y-75728456D01*
X48447646Y-75629853D01*
X48322147Y-75504354D01*
X48223544Y-75356784D01*
X48155624Y-75192812D01*
X48121000Y-75018741D01*
X48121000Y-74841259D01*
X48155624Y-74667188D01*
X48223544Y-74503216D01*
X48322147Y-74355646D01*
X48447646Y-74230147D01*
X48595216Y-74131544D01*
X48759188Y-74063624D01*
X48908488Y-74033927D01*
X48933258Y-74029000D01*
X49110742Y-74029000D01*
X49135512Y-74033927D01*
G37*
G36*
X73864473Y-74255938D02*
G01*
X73992049Y-74308782D01*
X74106859Y-74385495D01*
X74204505Y-74483141D01*
X74281218Y-74597951D01*
X74334062Y-74725527D01*
X74361000Y-74860956D01*
X74361000Y-74999044D01*
X74334062Y-75134473D01*
X74281218Y-75262049D01*
X74204505Y-75376859D01*
X74106859Y-75474505D01*
X73992049Y-75551218D01*
X73864473Y-75604062D01*
X73729044Y-75631000D01*
X73590956Y-75631000D01*
X73455527Y-75604062D01*
X73327951Y-75551218D01*
X73213141Y-75474505D01*
X73115495Y-75376859D01*
X73038782Y-75262049D01*
X72985938Y-75134473D01*
X72959000Y-74999044D01*
X72959000Y-74860956D01*
X72985938Y-74725527D01*
X73038782Y-74597951D01*
X73115495Y-74483141D01*
X73213141Y-74385495D01*
X73327951Y-74308782D01*
X73455527Y-74255938D01*
X73590956Y-74229000D01*
X73729044Y-74229000D01*
X73864473Y-74255938D01*
G37*
G36*
X76404473Y-74255938D02*
G01*
X76532049Y-74308782D01*
X76646859Y-74385495D01*
X76744505Y-74483141D01*
X76821218Y-74597951D01*
X76874062Y-74725527D01*
X76901000Y-74860956D01*
X76901000Y-74999044D01*
X76874062Y-75134473D01*
X76821218Y-75262049D01*
X76744505Y-75376859D01*
X76646859Y-75474505D01*
X76532049Y-75551218D01*
X76404473Y-75604062D01*
X76269044Y-75631000D01*
X76130956Y-75631000D01*
X75995527Y-75604062D01*
X75867951Y-75551218D01*
X75753141Y-75474505D01*
X75655495Y-75376859D01*
X75578782Y-75262049D01*
X75525938Y-75134473D01*
X75499000Y-74999044D01*
X75499000Y-74860956D01*
X75525938Y-74725527D01*
X75578782Y-74597951D01*
X75655495Y-74483141D01*
X75753141Y-74385495D01*
X75867951Y-74308782D01*
X75995527Y-74255938D01*
X76130956Y-74229000D01*
X76269044Y-74229000D01*
X76404473Y-74255938D01*
G37*
G36*
X104344473Y-74255938D02*
G01*
X104472049Y-74308782D01*
X104586859Y-74385495D01*
X104684505Y-74483141D01*
X104761218Y-74597951D01*
X104814062Y-74725527D01*
X104841000Y-74860956D01*
X104841000Y-74999044D01*
X104814062Y-75134473D01*
X104761218Y-75262049D01*
X104684505Y-75376859D01*
X104586859Y-75474505D01*
X104472049Y-75551218D01*
X104344473Y-75604062D01*
X104209044Y-75631000D01*
X104070956Y-75631000D01*
X103935527Y-75604062D01*
X103807951Y-75551218D01*
X103693141Y-75474505D01*
X103595495Y-75376859D01*
X103518782Y-75262049D01*
X103465938Y-75134473D01*
X103439000Y-74999044D01*
X103439000Y-74860956D01*
X103465938Y-74725527D01*
X103518782Y-74597951D01*
X103595495Y-74483141D01*
X103693141Y-74385495D01*
X103807951Y-74308782D01*
X103935527Y-74255938D01*
X104070956Y-74229000D01*
X104209044Y-74229000D01*
X104344473Y-74255938D01*
G37*
G36*
X101804473Y-74255938D02*
G01*
X101932049Y-74308782D01*
X102046859Y-74385495D01*
X102144505Y-74483141D01*
X102221218Y-74597951D01*
X102274062Y-74725527D01*
X102301000Y-74860956D01*
X102301000Y-74999044D01*
X102274062Y-75134473D01*
X102221218Y-75262049D01*
X102144505Y-75376859D01*
X102046859Y-75474505D01*
X101932049Y-75551218D01*
X101804473Y-75604062D01*
X101669044Y-75631000D01*
X101530956Y-75631000D01*
X101395527Y-75604062D01*
X101267951Y-75551218D01*
X101153141Y-75474505D01*
X101055495Y-75376859D01*
X100978782Y-75262049D01*
X100925938Y-75134473D01*
X100899000Y-74999044D01*
X100899000Y-74860956D01*
X100925938Y-74725527D01*
X100978782Y-74597951D01*
X101055495Y-74483141D01*
X101153141Y-74385495D01*
X101267951Y-74308782D01*
X101395527Y-74255938D01*
X101530956Y-74229000D01*
X101669044Y-74229000D01*
X101804473Y-74255938D01*
G37*
G36*
X127113512Y-73779927D02*
G01*
X127262812Y-73809624D01*
X127426784Y-73877544D01*
X127574354Y-73976147D01*
X127699853Y-74101646D01*
X127798456Y-74249216D01*
X127866376Y-74413188D01*
X127901000Y-74587259D01*
X127901000Y-74764741D01*
X127866376Y-74938812D01*
X127798456Y-75102784D01*
X127699853Y-75250354D01*
X127574354Y-75375853D01*
X127426784Y-75474456D01*
X127262812Y-75542376D01*
X127113512Y-75572073D01*
X127088742Y-75577000D01*
X126911258Y-75577000D01*
X126886488Y-75572073D01*
X126737188Y-75542376D01*
X126573216Y-75474456D01*
X126425646Y-75375853D01*
X126300147Y-75250354D01*
X126201544Y-75102784D01*
X126133624Y-74938812D01*
X126099000Y-74764741D01*
X126099000Y-74587259D01*
X126133624Y-74413188D01*
X126201544Y-74249216D01*
X126300147Y-74101646D01*
X126425646Y-73976147D01*
X126573216Y-73877544D01*
X126737188Y-73809624D01*
X126886488Y-73779927D01*
X126911258Y-73775000D01*
X127088742Y-73775000D01*
X127113512Y-73779927D01*
G37*
G36*
X129653512Y-73779927D02*
G01*
X129802812Y-73809624D01*
X129966784Y-73877544D01*
X130114354Y-73976147D01*
X130239853Y-74101646D01*
X130338456Y-74249216D01*
X130406376Y-74413188D01*
X130441000Y-74587259D01*
X130441000Y-74764741D01*
X130406376Y-74938812D01*
X130338456Y-75102784D01*
X130239853Y-75250354D01*
X130114354Y-75375853D01*
X129966784Y-75474456D01*
X129802812Y-75542376D01*
X129653512Y-75572073D01*
X129628742Y-75577000D01*
X129451258Y-75577000D01*
X129426488Y-75572073D01*
X129277188Y-75542376D01*
X129113216Y-75474456D01*
X128965646Y-75375853D01*
X128840147Y-75250354D01*
X128741544Y-75102784D01*
X128673624Y-74938812D01*
X128639000Y-74764741D01*
X128639000Y-74587259D01*
X128673624Y-74413188D01*
X128741544Y-74249216D01*
X128840147Y-74101646D01*
X128965646Y-73976147D01*
X129113216Y-73877544D01*
X129277188Y-73809624D01*
X129426488Y-73779927D01*
X129451258Y-73775000D01*
X129628742Y-73775000D01*
X129653512Y-73779927D01*
G37*
G36*
X49135512Y-71493927D02*
G01*
X49284812Y-71523624D01*
X49448784Y-71591544D01*
X49596354Y-71690147D01*
X49721853Y-71815646D01*
X49820456Y-71963216D01*
X49888376Y-72127188D01*
X49923000Y-72301259D01*
X49923000Y-72478741D01*
X49888376Y-72652812D01*
X49820456Y-72816784D01*
X49721853Y-72964354D01*
X49596354Y-73089853D01*
X49448784Y-73188456D01*
X49284812Y-73256376D01*
X49135512Y-73286073D01*
X49110742Y-73291000D01*
X48933258Y-73291000D01*
X48908488Y-73286073D01*
X48759188Y-73256376D01*
X48595216Y-73188456D01*
X48447646Y-73089853D01*
X48322147Y-72964354D01*
X48223544Y-72816784D01*
X48155624Y-72652812D01*
X48121000Y-72478741D01*
X48121000Y-72301259D01*
X48155624Y-72127188D01*
X48223544Y-71963216D01*
X48322147Y-71815646D01*
X48447646Y-71690147D01*
X48595216Y-71591544D01*
X48759188Y-71523624D01*
X48908488Y-71493927D01*
X48933258Y-71489000D01*
X49110742Y-71489000D01*
X49135512Y-71493927D01*
G37*
G36*
X51675512Y-71493927D02*
G01*
X51824812Y-71523624D01*
X51988784Y-71591544D01*
X52136354Y-71690147D01*
X52261853Y-71815646D01*
X52360456Y-71963216D01*
X52428376Y-72127188D01*
X52463000Y-72301259D01*
X52463000Y-72478741D01*
X52428376Y-72652812D01*
X52360456Y-72816784D01*
X52261853Y-72964354D01*
X52136354Y-73089853D01*
X51988784Y-73188456D01*
X51824812Y-73256376D01*
X51675512Y-73286073D01*
X51650742Y-73291000D01*
X51473258Y-73291000D01*
X51448488Y-73286073D01*
X51299188Y-73256376D01*
X51135216Y-73188456D01*
X50987646Y-73089853D01*
X50862147Y-72964354D01*
X50763544Y-72816784D01*
X50695624Y-72652812D01*
X50661000Y-72478741D01*
X50661000Y-72301259D01*
X50695624Y-72127188D01*
X50763544Y-71963216D01*
X50862147Y-71815646D01*
X50987646Y-71690147D01*
X51135216Y-71591544D01*
X51299188Y-71523624D01*
X51448488Y-71493927D01*
X51473258Y-71489000D01*
X51650742Y-71489000D01*
X51675512Y-71493927D01*
G37*
G36*
X73864473Y-71715938D02*
G01*
X73992049Y-71768782D01*
X74106859Y-71845495D01*
X74204505Y-71943141D01*
X74281218Y-72057951D01*
X74334062Y-72185527D01*
X74361000Y-72320956D01*
X74361000Y-72459044D01*
X74334062Y-72594473D01*
X74281218Y-72722049D01*
X74204505Y-72836859D01*
X74106859Y-72934505D01*
X73992049Y-73011218D01*
X73864473Y-73064062D01*
X73729044Y-73091000D01*
X73590956Y-73091000D01*
X73455527Y-73064062D01*
X73327951Y-73011218D01*
X73213141Y-72934505D01*
X73115495Y-72836859D01*
X73038782Y-72722049D01*
X72985938Y-72594473D01*
X72959000Y-72459044D01*
X72959000Y-72320956D01*
X72985938Y-72185527D01*
X73038782Y-72057951D01*
X73115495Y-71943141D01*
X73213141Y-71845495D01*
X73327951Y-71768782D01*
X73455527Y-71715938D01*
X73590956Y-71689000D01*
X73729044Y-71689000D01*
X73864473Y-71715938D01*
G37*
G36*
X76404473Y-71715938D02*
G01*
X76532049Y-71768782D01*
X76646859Y-71845495D01*
X76744505Y-71943141D01*
X76821218Y-72057951D01*
X76874062Y-72185527D01*
X76901000Y-72320956D01*
X76901000Y-72459044D01*
X76874062Y-72594473D01*
X76821218Y-72722049D01*
X76744505Y-72836859D01*
X76646859Y-72934505D01*
X76532049Y-73011218D01*
X76404473Y-73064062D01*
X76269044Y-73091000D01*
X76130956Y-73091000D01*
X75995527Y-73064062D01*
X75867951Y-73011218D01*
X75753141Y-72934505D01*
X75655495Y-72836859D01*
X75578782Y-72722049D01*
X75525938Y-72594473D01*
X75499000Y-72459044D01*
X75499000Y-72320956D01*
X75525938Y-72185527D01*
X75578782Y-72057951D01*
X75655495Y-71943141D01*
X75753141Y-71845495D01*
X75867951Y-71768782D01*
X75995527Y-71715938D01*
X76130956Y-71689000D01*
X76269044Y-71689000D01*
X76404473Y-71715938D01*
G37*
G36*
X101804473Y-71715938D02*
G01*
X101932049Y-71768782D01*
X102046859Y-71845495D01*
X102144505Y-71943141D01*
X102221218Y-72057951D01*
X102274062Y-72185527D01*
X102301000Y-72320956D01*
X102301000Y-72459044D01*
X102274062Y-72594473D01*
X102221218Y-72722049D01*
X102144505Y-72836859D01*
X102046859Y-72934505D01*
X101932049Y-73011218D01*
X101804473Y-73064062D01*
X101669044Y-73091000D01*
X101530956Y-73091000D01*
X101395527Y-73064062D01*
X101267951Y-73011218D01*
X101153141Y-72934505D01*
X101055495Y-72836859D01*
X100978782Y-72722049D01*
X100925938Y-72594473D01*
X100899000Y-72459044D01*
X100899000Y-72320956D01*
X100925938Y-72185527D01*
X100978782Y-72057951D01*
X101055495Y-71943141D01*
X101153141Y-71845495D01*
X101267951Y-71768782D01*
X101395527Y-71715938D01*
X101530956Y-71689000D01*
X101669044Y-71689000D01*
X101804473Y-71715938D01*
G37*
G36*
X104344473Y-71715938D02*
G01*
X104472049Y-71768782D01*
X104586859Y-71845495D01*
X104684505Y-71943141D01*
X104761218Y-72057951D01*
X104814062Y-72185527D01*
X104841000Y-72320956D01*
X104841000Y-72459044D01*
X104814062Y-72594473D01*
X104761218Y-72722049D01*
X104684505Y-72836859D01*
X104586859Y-72934505D01*
X104472049Y-73011218D01*
X104344473Y-73064062D01*
X104209044Y-73091000D01*
X104070956Y-73091000D01*
X103935527Y-73064062D01*
X103807951Y-73011218D01*
X103693141Y-72934505D01*
X103595495Y-72836859D01*
X103518782Y-72722049D01*
X103465938Y-72594473D01*
X103439000Y-72459044D01*
X103439000Y-72320956D01*
X103465938Y-72185527D01*
X103518782Y-72057951D01*
X103595495Y-71943141D01*
X103693141Y-71845495D01*
X103807951Y-71768782D01*
X103935527Y-71715938D01*
X104070956Y-71689000D01*
X104209044Y-71689000D01*
X104344473Y-71715938D01*
G37*
G36*
X129653512Y-71239927D02*
G01*
X129802812Y-71269624D01*
X129966784Y-71337544D01*
X130114354Y-71436147D01*
X130239853Y-71561646D01*
X130338456Y-71709216D01*
X130406376Y-71873188D01*
X130441000Y-72047259D01*
X130441000Y-72224741D01*
X130406376Y-72398812D01*
X130338456Y-72562784D01*
X130239853Y-72710354D01*
X130114354Y-72835853D01*
X129966784Y-72934456D01*
X129802812Y-73002376D01*
X129653512Y-73032073D01*
X129628742Y-73037000D01*
X129451258Y-73037000D01*
X129426488Y-73032073D01*
X129277188Y-73002376D01*
X129113216Y-72934456D01*
X128965646Y-72835853D01*
X128840147Y-72710354D01*
X128741544Y-72562784D01*
X128673624Y-72398812D01*
X128639000Y-72224741D01*
X128639000Y-72047259D01*
X128673624Y-71873188D01*
X128741544Y-71709216D01*
X128840147Y-71561646D01*
X128965646Y-71436147D01*
X129113216Y-71337544D01*
X129277188Y-71269624D01*
X129426488Y-71239927D01*
X129451258Y-71235000D01*
X129628742Y-71235000D01*
X129653512Y-71239927D01*
G37*
G36*
X127113512Y-71239927D02*
G01*
X127262812Y-71269624D01*
X127426784Y-71337544D01*
X127574354Y-71436147D01*
X127699853Y-71561646D01*
X127798456Y-71709216D01*
X127866376Y-71873188D01*
X127901000Y-72047259D01*
X127901000Y-72224741D01*
X127866376Y-72398812D01*
X127798456Y-72562784D01*
X127699853Y-72710354D01*
X127574354Y-72835853D01*
X127426784Y-72934456D01*
X127262812Y-73002376D01*
X127113512Y-73032073D01*
X127088742Y-73037000D01*
X126911258Y-73037000D01*
X126886488Y-73032073D01*
X126737188Y-73002376D01*
X126573216Y-72934456D01*
X126425646Y-72835853D01*
X126300147Y-72710354D01*
X126201544Y-72562784D01*
X126133624Y-72398812D01*
X126099000Y-72224741D01*
X126099000Y-72047259D01*
X126133624Y-71873188D01*
X126201544Y-71709216D01*
X126300147Y-71561646D01*
X126425646Y-71436147D01*
X126573216Y-71337544D01*
X126737188Y-71269624D01*
X126886488Y-71239927D01*
X126911258Y-71235000D01*
X127088742Y-71235000D01*
X127113512Y-71239927D01*
G37*
G36*
X49135512Y-68953927D02*
G01*
X49284812Y-68983624D01*
X49448784Y-69051544D01*
X49596354Y-69150147D01*
X49721853Y-69275646D01*
X49820456Y-69423216D01*
X49888376Y-69587188D01*
X49923000Y-69761259D01*
X49923000Y-69938741D01*
X49888376Y-70112812D01*
X49820456Y-70276784D01*
X49721853Y-70424354D01*
X49596354Y-70549853D01*
X49448784Y-70648456D01*
X49284812Y-70716376D01*
X49135512Y-70746073D01*
X49110742Y-70751000D01*
X48933258Y-70751000D01*
X48908488Y-70746073D01*
X48759188Y-70716376D01*
X48595216Y-70648456D01*
X48447646Y-70549853D01*
X48322147Y-70424354D01*
X48223544Y-70276784D01*
X48155624Y-70112812D01*
X48121000Y-69938741D01*
X48121000Y-69761259D01*
X48155624Y-69587188D01*
X48223544Y-69423216D01*
X48322147Y-69275646D01*
X48447646Y-69150147D01*
X48595216Y-69051544D01*
X48759188Y-68983624D01*
X48908488Y-68953927D01*
X48933258Y-68949000D01*
X49110742Y-68949000D01*
X49135512Y-68953927D01*
G37*
G36*
X51675512Y-68953927D02*
G01*
X51824812Y-68983624D01*
X51988784Y-69051544D01*
X52136354Y-69150147D01*
X52261853Y-69275646D01*
X52360456Y-69423216D01*
X52428376Y-69587188D01*
X52463000Y-69761259D01*
X52463000Y-69938741D01*
X52428376Y-70112812D01*
X52360456Y-70276784D01*
X52261853Y-70424354D01*
X52136354Y-70549853D01*
X51988784Y-70648456D01*
X51824812Y-70716376D01*
X51675512Y-70746073D01*
X51650742Y-70751000D01*
X51473258Y-70751000D01*
X51448488Y-70746073D01*
X51299188Y-70716376D01*
X51135216Y-70648456D01*
X50987646Y-70549853D01*
X50862147Y-70424354D01*
X50763544Y-70276784D01*
X50695624Y-70112812D01*
X50661000Y-69938741D01*
X50661000Y-69761259D01*
X50695624Y-69587188D01*
X50763544Y-69423216D01*
X50862147Y-69275646D01*
X50987646Y-69150147D01*
X51135216Y-69051544D01*
X51299188Y-68983624D01*
X51448488Y-68953927D01*
X51473258Y-68949000D01*
X51650742Y-68949000D01*
X51675512Y-68953927D01*
G37*
G36*
X104344473Y-69175938D02*
G01*
X104472049Y-69228782D01*
X104586859Y-69305495D01*
X104684505Y-69403141D01*
X104761218Y-69517951D01*
X104814062Y-69645527D01*
X104841000Y-69780956D01*
X104841000Y-69919044D01*
X104814062Y-70054473D01*
X104761218Y-70182049D01*
X104684505Y-70296859D01*
X104586859Y-70394505D01*
X104472049Y-70471218D01*
X104344473Y-70524062D01*
X104209044Y-70551000D01*
X104070956Y-70551000D01*
X103935527Y-70524062D01*
X103807951Y-70471218D01*
X103693141Y-70394505D01*
X103595495Y-70296859D01*
X103518782Y-70182049D01*
X103465938Y-70054473D01*
X103439000Y-69919044D01*
X103439000Y-69780956D01*
X103465938Y-69645527D01*
X103518782Y-69517951D01*
X103595495Y-69403141D01*
X103693141Y-69305495D01*
X103807951Y-69228782D01*
X103935527Y-69175938D01*
X104070956Y-69149000D01*
X104209044Y-69149000D01*
X104344473Y-69175938D01*
G37*
G36*
X101804473Y-69175938D02*
G01*
X101932049Y-69228782D01*
X102046859Y-69305495D01*
X102144505Y-69403141D01*
X102221218Y-69517951D01*
X102274062Y-69645527D01*
X102301000Y-69780956D01*
X102301000Y-69919044D01*
X102274062Y-70054473D01*
X102221218Y-70182049D01*
X102144505Y-70296859D01*
X102046859Y-70394505D01*
X101932049Y-70471218D01*
X101804473Y-70524062D01*
X101669044Y-70551000D01*
X101530956Y-70551000D01*
X101395527Y-70524062D01*
X101267951Y-70471218D01*
X101153141Y-70394505D01*
X101055495Y-70296859D01*
X100978782Y-70182049D01*
X100925938Y-70054473D01*
X100899000Y-69919044D01*
X100899000Y-69780956D01*
X100925938Y-69645527D01*
X100978782Y-69517951D01*
X101055495Y-69403141D01*
X101153141Y-69305495D01*
X101267951Y-69228782D01*
X101395527Y-69175938D01*
X101530956Y-69149000D01*
X101669044Y-69149000D01*
X101804473Y-69175938D01*
G37*
G36*
X76404473Y-69175938D02*
G01*
X76532049Y-69228782D01*
X76646859Y-69305495D01*
X76744505Y-69403141D01*
X76821218Y-69517951D01*
X76874062Y-69645527D01*
X76901000Y-69780956D01*
X76901000Y-69919044D01*
X76874062Y-70054473D01*
X76821218Y-70182049D01*
X76744505Y-70296859D01*
X76646859Y-70394505D01*
X76532049Y-70471218D01*
X76404473Y-70524062D01*
X76269044Y-70551000D01*
X76130956Y-70551000D01*
X75995527Y-70524062D01*
X75867951Y-70471218D01*
X75753141Y-70394505D01*
X75655495Y-70296859D01*
X75578782Y-70182049D01*
X75525938Y-70054473D01*
X75499000Y-69919044D01*
X75499000Y-69780956D01*
X75525938Y-69645527D01*
X75578782Y-69517951D01*
X75655495Y-69403141D01*
X75753141Y-69305495D01*
X75867951Y-69228782D01*
X75995527Y-69175938D01*
X76130956Y-69149000D01*
X76269044Y-69149000D01*
X76404473Y-69175938D01*
G37*
G36*
X73864473Y-69175938D02*
G01*
X73992049Y-69228782D01*
X74106859Y-69305495D01*
X74204505Y-69403141D01*
X74281218Y-69517951D01*
X74334062Y-69645527D01*
X74361000Y-69780956D01*
X74361000Y-69919044D01*
X74334062Y-70054473D01*
X74281218Y-70182049D01*
X74204505Y-70296859D01*
X74106859Y-70394505D01*
X73992049Y-70471218D01*
X73864473Y-70524062D01*
X73729044Y-70551000D01*
X73590956Y-70551000D01*
X73455527Y-70524062D01*
X73327951Y-70471218D01*
X73213141Y-70394505D01*
X73115495Y-70296859D01*
X73038782Y-70182049D01*
X72985938Y-70054473D01*
X72959000Y-69919044D01*
X72959000Y-69780956D01*
X72985938Y-69645527D01*
X73038782Y-69517951D01*
X73115495Y-69403141D01*
X73213141Y-69305495D01*
X73327951Y-69228782D01*
X73455527Y-69175938D01*
X73590956Y-69149000D01*
X73729044Y-69149000D01*
X73864473Y-69175938D01*
G37*
G36*
X129653512Y-68699927D02*
G01*
X129802812Y-68729624D01*
X129966784Y-68797544D01*
X130114354Y-68896147D01*
X130239853Y-69021646D01*
X130338456Y-69169216D01*
X130406376Y-69333188D01*
X130441000Y-69507259D01*
X130441000Y-69684741D01*
X130406376Y-69858812D01*
X130338456Y-70022784D01*
X130239853Y-70170354D01*
X130114354Y-70295853D01*
X129966784Y-70394456D01*
X129802812Y-70462376D01*
X129653512Y-70492073D01*
X129628742Y-70497000D01*
X129451258Y-70497000D01*
X129426488Y-70492073D01*
X129277188Y-70462376D01*
X129113216Y-70394456D01*
X128965646Y-70295853D01*
X128840147Y-70170354D01*
X128741544Y-70022784D01*
X128673624Y-69858812D01*
X128639000Y-69684741D01*
X128639000Y-69507259D01*
X128673624Y-69333188D01*
X128741544Y-69169216D01*
X128840147Y-69021646D01*
X128965646Y-68896147D01*
X129113216Y-68797544D01*
X129277188Y-68729624D01*
X129426488Y-68699927D01*
X129451258Y-68695000D01*
X129628742Y-68695000D01*
X129653512Y-68699927D01*
G37*
G36*
X127113512Y-68699927D02*
G01*
X127262812Y-68729624D01*
X127426784Y-68797544D01*
X127574354Y-68896147D01*
X127699853Y-69021646D01*
X127798456Y-69169216D01*
X127866376Y-69333188D01*
X127901000Y-69507259D01*
X127901000Y-69684741D01*
X127866376Y-69858812D01*
X127798456Y-70022784D01*
X127699853Y-70170354D01*
X127574354Y-70295853D01*
X127426784Y-70394456D01*
X127262812Y-70462376D01*
X127113512Y-70492073D01*
X127088742Y-70497000D01*
X126911258Y-70497000D01*
X126886488Y-70492073D01*
X126737188Y-70462376D01*
X126573216Y-70394456D01*
X126425646Y-70295853D01*
X126300147Y-70170354D01*
X126201544Y-70022784D01*
X126133624Y-69858812D01*
X126099000Y-69684741D01*
X126099000Y-69507259D01*
X126133624Y-69333188D01*
X126201544Y-69169216D01*
X126300147Y-69021646D01*
X126425646Y-68896147D01*
X126573216Y-68797544D01*
X126737188Y-68729624D01*
X126886488Y-68699927D01*
X126911258Y-68695000D01*
X127088742Y-68695000D01*
X127113512Y-68699927D01*
G37*
G36*
X49135512Y-66413927D02*
G01*
X49284812Y-66443624D01*
X49448784Y-66511544D01*
X49596354Y-66610147D01*
X49721853Y-66735646D01*
X49820456Y-66883216D01*
X49888376Y-67047188D01*
X49923000Y-67221259D01*
X49923000Y-67398741D01*
X49888376Y-67572812D01*
X49820456Y-67736784D01*
X49721853Y-67884354D01*
X49596354Y-68009853D01*
X49448784Y-68108456D01*
X49284812Y-68176376D01*
X49135512Y-68206073D01*
X49110742Y-68211000D01*
X48933258Y-68211000D01*
X48908488Y-68206073D01*
X48759188Y-68176376D01*
X48595216Y-68108456D01*
X48447646Y-68009853D01*
X48322147Y-67884354D01*
X48223544Y-67736784D01*
X48155624Y-67572812D01*
X48121000Y-67398741D01*
X48121000Y-67221259D01*
X48155624Y-67047188D01*
X48223544Y-66883216D01*
X48322147Y-66735646D01*
X48447646Y-66610147D01*
X48595216Y-66511544D01*
X48759188Y-66443624D01*
X48908488Y-66413927D01*
X48933258Y-66409000D01*
X49110742Y-66409000D01*
X49135512Y-66413927D01*
G37*
G36*
X51675512Y-66413927D02*
G01*
X51824812Y-66443624D01*
X51988784Y-66511544D01*
X52136354Y-66610147D01*
X52261853Y-66735646D01*
X52360456Y-66883216D01*
X52428376Y-67047188D01*
X52463000Y-67221259D01*
X52463000Y-67398741D01*
X52428376Y-67572812D01*
X52360456Y-67736784D01*
X52261853Y-67884354D01*
X52136354Y-68009853D01*
X51988784Y-68108456D01*
X51824812Y-68176376D01*
X51675512Y-68206073D01*
X51650742Y-68211000D01*
X51473258Y-68211000D01*
X51448488Y-68206073D01*
X51299188Y-68176376D01*
X51135216Y-68108456D01*
X50987646Y-68009853D01*
X50862147Y-67884354D01*
X50763544Y-67736784D01*
X50695624Y-67572812D01*
X50661000Y-67398741D01*
X50661000Y-67221259D01*
X50695624Y-67047188D01*
X50763544Y-66883216D01*
X50862147Y-66735646D01*
X50987646Y-66610147D01*
X51135216Y-66511544D01*
X51299188Y-66443624D01*
X51448488Y-66413927D01*
X51473258Y-66409000D01*
X51650742Y-66409000D01*
X51675512Y-66413927D01*
G37*
G36*
X104344473Y-66635938D02*
G01*
X104472049Y-66688782D01*
X104586859Y-66765495D01*
X104684505Y-66863141D01*
X104761218Y-66977951D01*
X104814062Y-67105527D01*
X104841000Y-67240956D01*
X104841000Y-67379044D01*
X104814062Y-67514473D01*
X104761218Y-67642049D01*
X104684505Y-67756859D01*
X104586859Y-67854505D01*
X104472049Y-67931218D01*
X104344473Y-67984062D01*
X104209044Y-68011000D01*
X104070956Y-68011000D01*
X103935527Y-67984062D01*
X103807951Y-67931218D01*
X103693141Y-67854505D01*
X103595495Y-67756859D01*
X103518782Y-67642049D01*
X103465938Y-67514473D01*
X103439000Y-67379044D01*
X103439000Y-67240956D01*
X103465938Y-67105527D01*
X103518782Y-66977951D01*
X103595495Y-66863141D01*
X103693141Y-66765495D01*
X103807951Y-66688782D01*
X103935527Y-66635938D01*
X104070956Y-66609000D01*
X104209044Y-66609000D01*
X104344473Y-66635938D01*
G37*
G36*
X73864473Y-66635938D02*
G01*
X73992049Y-66688782D01*
X74106859Y-66765495D01*
X74204505Y-66863141D01*
X74281218Y-66977951D01*
X74334062Y-67105527D01*
X74361000Y-67240956D01*
X74361000Y-67379044D01*
X74334062Y-67514473D01*
X74281218Y-67642049D01*
X74204505Y-67756859D01*
X74106859Y-67854505D01*
X73992049Y-67931218D01*
X73864473Y-67984062D01*
X73729044Y-68011000D01*
X73590956Y-68011000D01*
X73455527Y-67984062D01*
X73327951Y-67931218D01*
X73213141Y-67854505D01*
X73115495Y-67756859D01*
X73038782Y-67642049D01*
X72985938Y-67514473D01*
X72959000Y-67379044D01*
X72959000Y-67240956D01*
X72985938Y-67105527D01*
X73038782Y-66977951D01*
X73115495Y-66863141D01*
X73213141Y-66765495D01*
X73327951Y-66688782D01*
X73455527Y-66635938D01*
X73590956Y-66609000D01*
X73729044Y-66609000D01*
X73864473Y-66635938D01*
G37*
G36*
X101804473Y-66635938D02*
G01*
X101932049Y-66688782D01*
X102046859Y-66765495D01*
X102144505Y-66863141D01*
X102221218Y-66977951D01*
X102274062Y-67105527D01*
X102301000Y-67240956D01*
X102301000Y-67379044D01*
X102274062Y-67514473D01*
X102221218Y-67642049D01*
X102144505Y-67756859D01*
X102046859Y-67854505D01*
X101932049Y-67931218D01*
X101804473Y-67984062D01*
X101669044Y-68011000D01*
X101530956Y-68011000D01*
X101395527Y-67984062D01*
X101267951Y-67931218D01*
X101153141Y-67854505D01*
X101055495Y-67756859D01*
X100978782Y-67642049D01*
X100925938Y-67514473D01*
X100899000Y-67379044D01*
X100899000Y-67240956D01*
X100925938Y-67105527D01*
X100978782Y-66977951D01*
X101055495Y-66863141D01*
X101153141Y-66765495D01*
X101267951Y-66688782D01*
X101395527Y-66635938D01*
X101530956Y-66609000D01*
X101669044Y-66609000D01*
X101804473Y-66635938D01*
G37*
G36*
X76404473Y-66635938D02*
G01*
X76532049Y-66688782D01*
X76646859Y-66765495D01*
X76744505Y-66863141D01*
X76821218Y-66977951D01*
X76874062Y-67105527D01*
X76901000Y-67240956D01*
X76901000Y-67379044D01*
X76874062Y-67514473D01*
X76821218Y-67642049D01*
X76744505Y-67756859D01*
X76646859Y-67854505D01*
X76532049Y-67931218D01*
X76404473Y-67984062D01*
X76269044Y-68011000D01*
X76130956Y-68011000D01*
X75995527Y-67984062D01*
X75867951Y-67931218D01*
X75753141Y-67854505D01*
X75655495Y-67756859D01*
X75578782Y-67642049D01*
X75525938Y-67514473D01*
X75499000Y-67379044D01*
X75499000Y-67240956D01*
X75525938Y-67105527D01*
X75578782Y-66977951D01*
X75655495Y-66863141D01*
X75753141Y-66765495D01*
X75867951Y-66688782D01*
X75995527Y-66635938D01*
X76130956Y-66609000D01*
X76269044Y-66609000D01*
X76404473Y-66635938D01*
G37*
G36*
X129653512Y-66159927D02*
G01*
X129802812Y-66189624D01*
X129966784Y-66257544D01*
X130114354Y-66356147D01*
X130239853Y-66481646D01*
X130338456Y-66629216D01*
X130406376Y-66793188D01*
X130441000Y-66967259D01*
X130441000Y-67144741D01*
X130406376Y-67318812D01*
X130338456Y-67482784D01*
X130239853Y-67630354D01*
X130114354Y-67755853D01*
X129966784Y-67854456D01*
X129802812Y-67922376D01*
X129653512Y-67952073D01*
X129628742Y-67957000D01*
X129451258Y-67957000D01*
X129426488Y-67952073D01*
X129277188Y-67922376D01*
X129113216Y-67854456D01*
X128965646Y-67755853D01*
X128840147Y-67630354D01*
X128741544Y-67482784D01*
X128673624Y-67318812D01*
X128639000Y-67144741D01*
X128639000Y-66967259D01*
X128673624Y-66793188D01*
X128741544Y-66629216D01*
X128840147Y-66481646D01*
X128965646Y-66356147D01*
X129113216Y-66257544D01*
X129277188Y-66189624D01*
X129426488Y-66159927D01*
X129451258Y-66155000D01*
X129628742Y-66155000D01*
X129653512Y-66159927D01*
G37*
G36*
X127901000Y-67957000D02*
G01*
X126099000Y-67957000D01*
X126099000Y-66155000D01*
X127901000Y-66155000D01*
X127901000Y-67957000D01*
G37*
G36*
X49135512Y-63873927D02*
G01*
X49284812Y-63903624D01*
X49448784Y-63971544D01*
X49596354Y-64070147D01*
X49721853Y-64195646D01*
X49820456Y-64343216D01*
X49888376Y-64507188D01*
X49923000Y-64681259D01*
X49923000Y-64858741D01*
X49888376Y-65032812D01*
X49820456Y-65196784D01*
X49721853Y-65344354D01*
X49596354Y-65469853D01*
X49448784Y-65568456D01*
X49284812Y-65636376D01*
X49135512Y-65666073D01*
X49110742Y-65671000D01*
X48933258Y-65671000D01*
X48908488Y-65666073D01*
X48759188Y-65636376D01*
X48595216Y-65568456D01*
X48447646Y-65469853D01*
X48322147Y-65344354D01*
X48223544Y-65196784D01*
X48155624Y-65032812D01*
X48121000Y-64858741D01*
X48121000Y-64681259D01*
X48155624Y-64507188D01*
X48223544Y-64343216D01*
X48322147Y-64195646D01*
X48447646Y-64070147D01*
X48595216Y-63971544D01*
X48759188Y-63903624D01*
X48908488Y-63873927D01*
X48933258Y-63869000D01*
X49110742Y-63869000D01*
X49135512Y-63873927D01*
G37*
G36*
X51675512Y-63873927D02*
G01*
X51824812Y-63903624D01*
X51988784Y-63971544D01*
X52136354Y-64070147D01*
X52261853Y-64195646D01*
X52360456Y-64343216D01*
X52428376Y-64507188D01*
X52463000Y-64681259D01*
X52463000Y-64858741D01*
X52428376Y-65032812D01*
X52360456Y-65196784D01*
X52261853Y-65344354D01*
X52136354Y-65469853D01*
X51988784Y-65568456D01*
X51824812Y-65636376D01*
X51675512Y-65666073D01*
X51650742Y-65671000D01*
X51473258Y-65671000D01*
X51448488Y-65666073D01*
X51299188Y-65636376D01*
X51135216Y-65568456D01*
X50987646Y-65469853D01*
X50862147Y-65344354D01*
X50763544Y-65196784D01*
X50695624Y-65032812D01*
X50661000Y-64858741D01*
X50661000Y-64681259D01*
X50695624Y-64507188D01*
X50763544Y-64343216D01*
X50862147Y-64195646D01*
X50987646Y-64070147D01*
X51135216Y-63971544D01*
X51299188Y-63903624D01*
X51448488Y-63873927D01*
X51473258Y-63869000D01*
X51650742Y-63869000D01*
X51675512Y-63873927D01*
G37*
G36*
X76404473Y-64095938D02*
G01*
X76532049Y-64148782D01*
X76646859Y-64225495D01*
X76744505Y-64323141D01*
X76821218Y-64437951D01*
X76874062Y-64565527D01*
X76901000Y-64700956D01*
X76901000Y-64839044D01*
X76874062Y-64974473D01*
X76821218Y-65102049D01*
X76744505Y-65216859D01*
X76646859Y-65314505D01*
X76532049Y-65391218D01*
X76404473Y-65444062D01*
X76269044Y-65471000D01*
X76130956Y-65471000D01*
X75995527Y-65444062D01*
X75867951Y-65391218D01*
X75753141Y-65314505D01*
X75655495Y-65216859D01*
X75578782Y-65102049D01*
X75525938Y-64974473D01*
X75499000Y-64839044D01*
X75499000Y-64700956D01*
X75525938Y-64565527D01*
X75578782Y-64437951D01*
X75655495Y-64323141D01*
X75753141Y-64225495D01*
X75867951Y-64148782D01*
X75995527Y-64095938D01*
X76130956Y-64069000D01*
X76269044Y-64069000D01*
X76404473Y-64095938D01*
G37*
G36*
X73864473Y-64095938D02*
G01*
X73992049Y-64148782D01*
X74106859Y-64225495D01*
X74204505Y-64323141D01*
X74281218Y-64437951D01*
X74334062Y-64565527D01*
X74361000Y-64700956D01*
X74361000Y-64839044D01*
X74334062Y-64974473D01*
X74281218Y-65102049D01*
X74204505Y-65216859D01*
X74106859Y-65314505D01*
X73992049Y-65391218D01*
X73864473Y-65444062D01*
X73729044Y-65471000D01*
X73590956Y-65471000D01*
X73455527Y-65444062D01*
X73327951Y-65391218D01*
X73213141Y-65314505D01*
X73115495Y-65216859D01*
X73038782Y-65102049D01*
X72985938Y-64974473D01*
X72959000Y-64839044D01*
X72959000Y-64700956D01*
X72985938Y-64565527D01*
X73038782Y-64437951D01*
X73115495Y-64323141D01*
X73213141Y-64225495D01*
X73327951Y-64148782D01*
X73455527Y-64095938D01*
X73590956Y-64069000D01*
X73729044Y-64069000D01*
X73864473Y-64095938D01*
G37*
G36*
X101804473Y-64095938D02*
G01*
X101932049Y-64148782D01*
X102046859Y-64225495D01*
X102144505Y-64323141D01*
X102221218Y-64437951D01*
X102274062Y-64565527D01*
X102301000Y-64700956D01*
X102301000Y-64839044D01*
X102274062Y-64974473D01*
X102221218Y-65102049D01*
X102144505Y-65216859D01*
X102046859Y-65314505D01*
X101932049Y-65391218D01*
X101804473Y-65444062D01*
X101669044Y-65471000D01*
X101530956Y-65471000D01*
X101395527Y-65444062D01*
X101267951Y-65391218D01*
X101153141Y-65314505D01*
X101055495Y-65216859D01*
X100978782Y-65102049D01*
X100925938Y-64974473D01*
X100899000Y-64839044D01*
X100899000Y-64700956D01*
X100925938Y-64565527D01*
X100978782Y-64437951D01*
X101055495Y-64323141D01*
X101153141Y-64225495D01*
X101267951Y-64148782D01*
X101395527Y-64095938D01*
X101530956Y-64069000D01*
X101669044Y-64069000D01*
X101804473Y-64095938D01*
G37*
G36*
X104344473Y-64095938D02*
G01*
X104472049Y-64148782D01*
X104586859Y-64225495D01*
X104684505Y-64323141D01*
X104761218Y-64437951D01*
X104814062Y-64565527D01*
X104841000Y-64700956D01*
X104841000Y-64839044D01*
X104814062Y-64974473D01*
X104761218Y-65102049D01*
X104684505Y-65216859D01*
X104586859Y-65314505D01*
X104472049Y-65391218D01*
X104344473Y-65444062D01*
X104209044Y-65471000D01*
X104070956Y-65471000D01*
X103935527Y-65444062D01*
X103807951Y-65391218D01*
X103693141Y-65314505D01*
X103595495Y-65216859D01*
X103518782Y-65102049D01*
X103465938Y-64974473D01*
X103439000Y-64839044D01*
X103439000Y-64700956D01*
X103465938Y-64565527D01*
X103518782Y-64437951D01*
X103595495Y-64323141D01*
X103693141Y-64225495D01*
X103807951Y-64148782D01*
X103935527Y-64095938D01*
X104070956Y-64069000D01*
X104209044Y-64069000D01*
X104344473Y-64095938D01*
G37*
G36*
X127113512Y-63619927D02*
G01*
X127262812Y-63649624D01*
X127426784Y-63717544D01*
X127574354Y-63816147D01*
X127699853Y-63941646D01*
X127798456Y-64089216D01*
X127866376Y-64253188D01*
X127901000Y-64427259D01*
X127901000Y-64604741D01*
X127866376Y-64778812D01*
X127798456Y-64942784D01*
X127699853Y-65090354D01*
X127574354Y-65215853D01*
X127426784Y-65314456D01*
X127262812Y-65382376D01*
X127113512Y-65412073D01*
X127088742Y-65417000D01*
X126911258Y-65417000D01*
X126886488Y-65412073D01*
X126737188Y-65382376D01*
X126573216Y-65314456D01*
X126425646Y-65215853D01*
X126300147Y-65090354D01*
X126201544Y-64942784D01*
X126133624Y-64778812D01*
X126099000Y-64604741D01*
X126099000Y-64427259D01*
X126133624Y-64253188D01*
X126201544Y-64089216D01*
X126300147Y-63941646D01*
X126425646Y-63816147D01*
X126573216Y-63717544D01*
X126737188Y-63649624D01*
X126886488Y-63619927D01*
X126911258Y-63615000D01*
X127088742Y-63615000D01*
X127113512Y-63619927D01*
G37*
G36*
X129653512Y-63619927D02*
G01*
X129802812Y-63649624D01*
X129966784Y-63717544D01*
X130114354Y-63816147D01*
X130239853Y-63941646D01*
X130338456Y-64089216D01*
X130406376Y-64253188D01*
X130441000Y-64427259D01*
X130441000Y-64604741D01*
X130406376Y-64778812D01*
X130338456Y-64942784D01*
X130239853Y-65090354D01*
X130114354Y-65215853D01*
X129966784Y-65314456D01*
X129802812Y-65382376D01*
X129653512Y-65412073D01*
X129628742Y-65417000D01*
X129451258Y-65417000D01*
X129426488Y-65412073D01*
X129277188Y-65382376D01*
X129113216Y-65314456D01*
X128965646Y-65215853D01*
X128840147Y-65090354D01*
X128741544Y-64942784D01*
X128673624Y-64778812D01*
X128639000Y-64604741D01*
X128639000Y-64427259D01*
X128673624Y-64253188D01*
X128741544Y-64089216D01*
X128840147Y-63941646D01*
X128965646Y-63816147D01*
X129113216Y-63717544D01*
X129277188Y-63649624D01*
X129426488Y-63619927D01*
X129451258Y-63615000D01*
X129628742Y-63615000D01*
X129653512Y-63619927D01*
G37*
G36*
X51675512Y-61333927D02*
G01*
X51824812Y-61363624D01*
X51988784Y-61431544D01*
X52136354Y-61530147D01*
X52261853Y-61655646D01*
X52360456Y-61803216D01*
X52428376Y-61967188D01*
X52463000Y-62141259D01*
X52463000Y-62318741D01*
X52428376Y-62492812D01*
X52360456Y-62656784D01*
X52261853Y-62804354D01*
X52136354Y-62929853D01*
X51988784Y-63028456D01*
X51824812Y-63096376D01*
X51675512Y-63126073D01*
X51650742Y-63131000D01*
X51473258Y-63131000D01*
X51448488Y-63126073D01*
X51299188Y-63096376D01*
X51135216Y-63028456D01*
X50987646Y-62929853D01*
X50862147Y-62804354D01*
X50763544Y-62656784D01*
X50695624Y-62492812D01*
X50661000Y-62318741D01*
X50661000Y-62141259D01*
X50695624Y-61967188D01*
X50763544Y-61803216D01*
X50862147Y-61655646D01*
X50987646Y-61530147D01*
X51135216Y-61431544D01*
X51299188Y-61363624D01*
X51448488Y-61333927D01*
X51473258Y-61329000D01*
X51650742Y-61329000D01*
X51675512Y-61333927D01*
G37*
G36*
X49135512Y-61333927D02*
G01*
X49284812Y-61363624D01*
X49448784Y-61431544D01*
X49596354Y-61530147D01*
X49721853Y-61655646D01*
X49820456Y-61803216D01*
X49888376Y-61967188D01*
X49923000Y-62141259D01*
X49923000Y-62318741D01*
X49888376Y-62492812D01*
X49820456Y-62656784D01*
X49721853Y-62804354D01*
X49596354Y-62929853D01*
X49448784Y-63028456D01*
X49284812Y-63096376D01*
X49135512Y-63126073D01*
X49110742Y-63131000D01*
X48933258Y-63131000D01*
X48908488Y-63126073D01*
X48759188Y-63096376D01*
X48595216Y-63028456D01*
X48447646Y-62929853D01*
X48322147Y-62804354D01*
X48223544Y-62656784D01*
X48155624Y-62492812D01*
X48121000Y-62318741D01*
X48121000Y-62141259D01*
X48155624Y-61967188D01*
X48223544Y-61803216D01*
X48322147Y-61655646D01*
X48447646Y-61530147D01*
X48595216Y-61431544D01*
X48759188Y-61363624D01*
X48908488Y-61333927D01*
X48933258Y-61329000D01*
X49110742Y-61329000D01*
X49135512Y-61333927D01*
G37*
G36*
X76404473Y-61555938D02*
G01*
X76532049Y-61608782D01*
X76646859Y-61685495D01*
X76744505Y-61783141D01*
X76821218Y-61897951D01*
X76874062Y-62025527D01*
X76901000Y-62160956D01*
X76901000Y-62299044D01*
X76874062Y-62434473D01*
X76821218Y-62562049D01*
X76744505Y-62676859D01*
X76646859Y-62774505D01*
X76532049Y-62851218D01*
X76404473Y-62904062D01*
X76269044Y-62931000D01*
X76130956Y-62931000D01*
X75995527Y-62904062D01*
X75867951Y-62851218D01*
X75753141Y-62774505D01*
X75655495Y-62676859D01*
X75578782Y-62562049D01*
X75525938Y-62434473D01*
X75499000Y-62299044D01*
X75499000Y-62160956D01*
X75525938Y-62025527D01*
X75578782Y-61897951D01*
X75655495Y-61783141D01*
X75753141Y-61685495D01*
X75867951Y-61608782D01*
X75995527Y-61555938D01*
X76130956Y-61529000D01*
X76269044Y-61529000D01*
X76404473Y-61555938D01*
G37*
G36*
X73864473Y-61555938D02*
G01*
X73992049Y-61608782D01*
X74106859Y-61685495D01*
X74204505Y-61783141D01*
X74281218Y-61897951D01*
X74334062Y-62025527D01*
X74361000Y-62160956D01*
X74361000Y-62299044D01*
X74334062Y-62434473D01*
X74281218Y-62562049D01*
X74204505Y-62676859D01*
X74106859Y-62774505D01*
X73992049Y-62851218D01*
X73864473Y-62904062D01*
X73729044Y-62931000D01*
X73590956Y-62931000D01*
X73455527Y-62904062D01*
X73327951Y-62851218D01*
X73213141Y-62774505D01*
X73115495Y-62676859D01*
X73038782Y-62562049D01*
X72985938Y-62434473D01*
X72959000Y-62299044D01*
X72959000Y-62160956D01*
X72985938Y-62025527D01*
X73038782Y-61897951D01*
X73115495Y-61783141D01*
X73213141Y-61685495D01*
X73327951Y-61608782D01*
X73455527Y-61555938D01*
X73590956Y-61529000D01*
X73729044Y-61529000D01*
X73864473Y-61555938D01*
G37*
G36*
X104344473Y-61555938D02*
G01*
X104472049Y-61608782D01*
X104586859Y-61685495D01*
X104684505Y-61783141D01*
X104761218Y-61897951D01*
X104814062Y-62025527D01*
X104841000Y-62160956D01*
X104841000Y-62299044D01*
X104814062Y-62434473D01*
X104761218Y-62562049D01*
X104684505Y-62676859D01*
X104586859Y-62774505D01*
X104472049Y-62851218D01*
X104344473Y-62904062D01*
X104209044Y-62931000D01*
X104070956Y-62931000D01*
X103935527Y-62904062D01*
X103807951Y-62851218D01*
X103693141Y-62774505D01*
X103595495Y-62676859D01*
X103518782Y-62562049D01*
X103465938Y-62434473D01*
X103439000Y-62299044D01*
X103439000Y-62160956D01*
X103465938Y-62025527D01*
X103518782Y-61897951D01*
X103595495Y-61783141D01*
X103693141Y-61685495D01*
X103807951Y-61608782D01*
X103935527Y-61555938D01*
X104070956Y-61529000D01*
X104209044Y-61529000D01*
X104344473Y-61555938D01*
G37*
G36*
X101804473Y-61555938D02*
G01*
X101932049Y-61608782D01*
X102046859Y-61685495D01*
X102144505Y-61783141D01*
X102221218Y-61897951D01*
X102274062Y-62025527D01*
X102301000Y-62160956D01*
X102301000Y-62299044D01*
X102274062Y-62434473D01*
X102221218Y-62562049D01*
X102144505Y-62676859D01*
X102046859Y-62774505D01*
X101932049Y-62851218D01*
X101804473Y-62904062D01*
X101669044Y-62931000D01*
X101530956Y-62931000D01*
X101395527Y-62904062D01*
X101267951Y-62851218D01*
X101153141Y-62774505D01*
X101055495Y-62676859D01*
X100978782Y-62562049D01*
X100925938Y-62434473D01*
X100899000Y-62299044D01*
X100899000Y-62160956D01*
X100925938Y-62025527D01*
X100978782Y-61897951D01*
X101055495Y-61783141D01*
X101153141Y-61685495D01*
X101267951Y-61608782D01*
X101395527Y-61555938D01*
X101530956Y-61529000D01*
X101669044Y-61529000D01*
X101804473Y-61555938D01*
G37*
G36*
X129653512Y-61079927D02*
G01*
X129802812Y-61109624D01*
X129966784Y-61177544D01*
X130114354Y-61276147D01*
X130239853Y-61401646D01*
X130338456Y-61549216D01*
X130406376Y-61713188D01*
X130441000Y-61887259D01*
X130441000Y-62064741D01*
X130406376Y-62238812D01*
X130338456Y-62402784D01*
X130239853Y-62550354D01*
X130114354Y-62675853D01*
X129966784Y-62774456D01*
X129802812Y-62842376D01*
X129653512Y-62872073D01*
X129628742Y-62877000D01*
X129451258Y-62877000D01*
X129426488Y-62872073D01*
X129277188Y-62842376D01*
X129113216Y-62774456D01*
X128965646Y-62675853D01*
X128840147Y-62550354D01*
X128741544Y-62402784D01*
X128673624Y-62238812D01*
X128639000Y-62064741D01*
X128639000Y-61887259D01*
X128673624Y-61713188D01*
X128741544Y-61549216D01*
X128840147Y-61401646D01*
X128965646Y-61276147D01*
X129113216Y-61177544D01*
X129277188Y-61109624D01*
X129426488Y-61079927D01*
X129451258Y-61075000D01*
X129628742Y-61075000D01*
X129653512Y-61079927D01*
G37*
G36*
X127113512Y-61079927D02*
G01*
X127262812Y-61109624D01*
X127426784Y-61177544D01*
X127574354Y-61276147D01*
X127699853Y-61401646D01*
X127798456Y-61549216D01*
X127866376Y-61713188D01*
X127901000Y-61887259D01*
X127901000Y-62064741D01*
X127866376Y-62238812D01*
X127798456Y-62402784D01*
X127699853Y-62550354D01*
X127574354Y-62675853D01*
X127426784Y-62774456D01*
X127262812Y-62842376D01*
X127113512Y-62872073D01*
X127088742Y-62877000D01*
X126911258Y-62877000D01*
X126886488Y-62872073D01*
X126737188Y-62842376D01*
X126573216Y-62774456D01*
X126425646Y-62675853D01*
X126300147Y-62550354D01*
X126201544Y-62402784D01*
X126133624Y-62238812D01*
X126099000Y-62064741D01*
X126099000Y-61887259D01*
X126133624Y-61713188D01*
X126201544Y-61549216D01*
X126300147Y-61401646D01*
X126425646Y-61276147D01*
X126573216Y-61177544D01*
X126737188Y-61109624D01*
X126886488Y-61079927D01*
X126911258Y-61075000D01*
X127088742Y-61075000D01*
X127113512Y-61079927D01*
G37*
G36*
X37463589Y-59436876D02*
G01*
X37562893Y-59456629D01*
X37703206Y-59514748D01*
X37829484Y-59599125D01*
X37936875Y-59706516D01*
X38021252Y-59832794D01*
X38079371Y-59973107D01*
X38109000Y-60122063D01*
X38109000Y-60273937D01*
X38079371Y-60422893D01*
X38021252Y-60563206D01*
X37936875Y-60689484D01*
X37829484Y-60796875D01*
X37703206Y-60881252D01*
X37562893Y-60939371D01*
X37463589Y-60959124D01*
X37413938Y-60969000D01*
X37262062Y-60969000D01*
X37212411Y-60959124D01*
X37113107Y-60939371D01*
X36972794Y-60881252D01*
X36846516Y-60796875D01*
X36739125Y-60689484D01*
X36654748Y-60563206D01*
X36596629Y-60422893D01*
X36567000Y-60273937D01*
X36567000Y-60122063D01*
X36596629Y-59973107D01*
X36654748Y-59832794D01*
X36739125Y-59706516D01*
X36846516Y-59599125D01*
X36972794Y-59514748D01*
X37113107Y-59456629D01*
X37212411Y-59436876D01*
X37262062Y-59427000D01*
X37413938Y-59427000D01*
X37463589Y-59436876D01*
G37*
G36*
X49135512Y-58793927D02*
G01*
X49284812Y-58823624D01*
X49448784Y-58891544D01*
X49596354Y-58990147D01*
X49721853Y-59115646D01*
X49820456Y-59263216D01*
X49888376Y-59427188D01*
X49923000Y-59601259D01*
X49923000Y-59778741D01*
X49888376Y-59952812D01*
X49820456Y-60116784D01*
X49721853Y-60264354D01*
X49596354Y-60389853D01*
X49448784Y-60488456D01*
X49284812Y-60556376D01*
X49135512Y-60586073D01*
X49110742Y-60591000D01*
X48933258Y-60591000D01*
X48908488Y-60586073D01*
X48759188Y-60556376D01*
X48595216Y-60488456D01*
X48447646Y-60389853D01*
X48322147Y-60264354D01*
X48223544Y-60116784D01*
X48155624Y-59952812D01*
X48121000Y-59778741D01*
X48121000Y-59601259D01*
X48155624Y-59427188D01*
X48223544Y-59263216D01*
X48322147Y-59115646D01*
X48447646Y-58990147D01*
X48595216Y-58891544D01*
X48759188Y-58823624D01*
X48908488Y-58793927D01*
X48933258Y-58789000D01*
X49110742Y-58789000D01*
X49135512Y-58793927D01*
G37*
G36*
X51675512Y-58793927D02*
G01*
X51824812Y-58823624D01*
X51988784Y-58891544D01*
X52136354Y-58990147D01*
X52261853Y-59115646D01*
X52360456Y-59263216D01*
X52428376Y-59427188D01*
X52463000Y-59601259D01*
X52463000Y-59778741D01*
X52428376Y-59952812D01*
X52360456Y-60116784D01*
X52261853Y-60264354D01*
X52136354Y-60389853D01*
X51988784Y-60488456D01*
X51824812Y-60556376D01*
X51675512Y-60586073D01*
X51650742Y-60591000D01*
X51473258Y-60591000D01*
X51448488Y-60586073D01*
X51299188Y-60556376D01*
X51135216Y-60488456D01*
X50987646Y-60389853D01*
X50862147Y-60264354D01*
X50763544Y-60116784D01*
X50695624Y-59952812D01*
X50661000Y-59778741D01*
X50661000Y-59601259D01*
X50695624Y-59427188D01*
X50763544Y-59263216D01*
X50862147Y-59115646D01*
X50987646Y-58990147D01*
X51135216Y-58891544D01*
X51299188Y-58823624D01*
X51448488Y-58793927D01*
X51473258Y-58789000D01*
X51650742Y-58789000D01*
X51675512Y-58793927D01*
G37*
G36*
X104344473Y-59015938D02*
G01*
X104472049Y-59068782D01*
X104586859Y-59145495D01*
X104684505Y-59243141D01*
X104761218Y-59357951D01*
X104814062Y-59485527D01*
X104841000Y-59620956D01*
X104841000Y-59759044D01*
X104814062Y-59894473D01*
X104761218Y-60022049D01*
X104684505Y-60136859D01*
X104586859Y-60234505D01*
X104472049Y-60311218D01*
X104344473Y-60364062D01*
X104209044Y-60391000D01*
X104070956Y-60391000D01*
X103935527Y-60364062D01*
X103807951Y-60311218D01*
X103693141Y-60234505D01*
X103595495Y-60136859D01*
X103518782Y-60022049D01*
X103465938Y-59894473D01*
X103439000Y-59759044D01*
X103439000Y-59620956D01*
X103465938Y-59485527D01*
X103518782Y-59357951D01*
X103595495Y-59243141D01*
X103693141Y-59145495D01*
X103807951Y-59068782D01*
X103935527Y-59015938D01*
X104070956Y-58989000D01*
X104209044Y-58989000D01*
X104344473Y-59015938D01*
G37*
G36*
X101804473Y-59015938D02*
G01*
X101932049Y-59068782D01*
X102046859Y-59145495D01*
X102144505Y-59243141D01*
X102221218Y-59357951D01*
X102274062Y-59485527D01*
X102301000Y-59620956D01*
X102301000Y-59759044D01*
X102274062Y-59894473D01*
X102221218Y-60022049D01*
X102144505Y-60136859D01*
X102046859Y-60234505D01*
X101932049Y-60311218D01*
X101804473Y-60364062D01*
X101669044Y-60391000D01*
X101530956Y-60391000D01*
X101395527Y-60364062D01*
X101267951Y-60311218D01*
X101153141Y-60234505D01*
X101055495Y-60136859D01*
X100978782Y-60022049D01*
X100925938Y-59894473D01*
X100899000Y-59759044D01*
X100899000Y-59620956D01*
X100925938Y-59485527D01*
X100978782Y-59357951D01*
X101055495Y-59243141D01*
X101153141Y-59145495D01*
X101267951Y-59068782D01*
X101395527Y-59015938D01*
X101530956Y-58989000D01*
X101669044Y-58989000D01*
X101804473Y-59015938D01*
G37*
G36*
X76404473Y-59015938D02*
G01*
X76532049Y-59068782D01*
X76646859Y-59145495D01*
X76744505Y-59243141D01*
X76821218Y-59357951D01*
X76874062Y-59485527D01*
X76901000Y-59620956D01*
X76901000Y-59759044D01*
X76874062Y-59894473D01*
X76821218Y-60022049D01*
X76744505Y-60136859D01*
X76646859Y-60234505D01*
X76532049Y-60311218D01*
X76404473Y-60364062D01*
X76269044Y-60391000D01*
X76130956Y-60391000D01*
X75995527Y-60364062D01*
X75867951Y-60311218D01*
X75753141Y-60234505D01*
X75655495Y-60136859D01*
X75578782Y-60022049D01*
X75525938Y-59894473D01*
X75499000Y-59759044D01*
X75499000Y-59620956D01*
X75525938Y-59485527D01*
X75578782Y-59357951D01*
X75655495Y-59243141D01*
X75753141Y-59145495D01*
X75867951Y-59068782D01*
X75995527Y-59015938D01*
X76130956Y-58989000D01*
X76269044Y-58989000D01*
X76404473Y-59015938D01*
G37*
G36*
X73864473Y-59015938D02*
G01*
X73992049Y-59068782D01*
X74106859Y-59145495D01*
X74204505Y-59243141D01*
X74281218Y-59357951D01*
X74334062Y-59485527D01*
X74361000Y-59620956D01*
X74361000Y-59759044D01*
X74334062Y-59894473D01*
X74281218Y-60022049D01*
X74204505Y-60136859D01*
X74106859Y-60234505D01*
X73992049Y-60311218D01*
X73864473Y-60364062D01*
X73729044Y-60391000D01*
X73590956Y-60391000D01*
X73455527Y-60364062D01*
X73327951Y-60311218D01*
X73213141Y-60234505D01*
X73115495Y-60136859D01*
X73038782Y-60022049D01*
X72985938Y-59894473D01*
X72959000Y-59759044D01*
X72959000Y-59620956D01*
X72985938Y-59485527D01*
X73038782Y-59357951D01*
X73115495Y-59243141D01*
X73213141Y-59145495D01*
X73327951Y-59068782D01*
X73455527Y-59015938D01*
X73590956Y-58989000D01*
X73729044Y-58989000D01*
X73864473Y-59015938D01*
G37*
G36*
X127113512Y-58539927D02*
G01*
X127262812Y-58569624D01*
X127426784Y-58637544D01*
X127574354Y-58736147D01*
X127699853Y-58861646D01*
X127798456Y-59009216D01*
X127866376Y-59173188D01*
X127901000Y-59347259D01*
X127901000Y-59524741D01*
X127866376Y-59698812D01*
X127798456Y-59862784D01*
X127699853Y-60010354D01*
X127574354Y-60135853D01*
X127426784Y-60234456D01*
X127262812Y-60302376D01*
X127113512Y-60332073D01*
X127088742Y-60337000D01*
X126911258Y-60337000D01*
X126886488Y-60332073D01*
X126737188Y-60302376D01*
X126573216Y-60234456D01*
X126425646Y-60135853D01*
X126300147Y-60010354D01*
X126201544Y-59862784D01*
X126133624Y-59698812D01*
X126099000Y-59524741D01*
X126099000Y-59347259D01*
X126133624Y-59173188D01*
X126201544Y-59009216D01*
X126300147Y-58861646D01*
X126425646Y-58736147D01*
X126573216Y-58637544D01*
X126737188Y-58569624D01*
X126886488Y-58539927D01*
X126911258Y-58535000D01*
X127088742Y-58535000D01*
X127113512Y-58539927D01*
G37*
G36*
X129653512Y-58539927D02*
G01*
X129802812Y-58569624D01*
X129966784Y-58637544D01*
X130114354Y-58736147D01*
X130239853Y-58861646D01*
X130338456Y-59009216D01*
X130406376Y-59173188D01*
X130441000Y-59347259D01*
X130441000Y-59524741D01*
X130406376Y-59698812D01*
X130338456Y-59862784D01*
X130239853Y-60010354D01*
X130114354Y-60135853D01*
X129966784Y-60234456D01*
X129802812Y-60302376D01*
X129653512Y-60332073D01*
X129628742Y-60337000D01*
X129451258Y-60337000D01*
X129426488Y-60332073D01*
X129277188Y-60302376D01*
X129113216Y-60234456D01*
X128965646Y-60135853D01*
X128840147Y-60010354D01*
X128741544Y-59862784D01*
X128673624Y-59698812D01*
X128639000Y-59524741D01*
X128639000Y-59347259D01*
X128673624Y-59173188D01*
X128741544Y-59009216D01*
X128840147Y-58861646D01*
X128965646Y-58736147D01*
X129113216Y-58637544D01*
X129277188Y-58569624D01*
X129426488Y-58539927D01*
X129451258Y-58535000D01*
X129628742Y-58535000D01*
X129653512Y-58539927D01*
G37*
G36*
X40003589Y-56896876D02*
G01*
X40102893Y-56916629D01*
X40243206Y-56974748D01*
X40369484Y-57059125D01*
X40476875Y-57166516D01*
X40561252Y-57292794D01*
X40619371Y-57433107D01*
X40649000Y-57582063D01*
X40649000Y-57733937D01*
X40619371Y-57882893D01*
X40561252Y-58023206D01*
X40476875Y-58149484D01*
X40369484Y-58256875D01*
X40243206Y-58341252D01*
X40102893Y-58399371D01*
X40003589Y-58419124D01*
X39953938Y-58429000D01*
X39802062Y-58429000D01*
X39752411Y-58419124D01*
X39653107Y-58399371D01*
X39512794Y-58341252D01*
X39386516Y-58256875D01*
X39279125Y-58149484D01*
X39194748Y-58023206D01*
X39136629Y-57882893D01*
X39107000Y-57733937D01*
X39107000Y-57582063D01*
X39136629Y-57433107D01*
X39194748Y-57292794D01*
X39279125Y-57166516D01*
X39386516Y-57059125D01*
X39512794Y-56974748D01*
X39653107Y-56916629D01*
X39752411Y-56896876D01*
X39802062Y-56887000D01*
X39953938Y-56887000D01*
X40003589Y-56896876D01*
G37*
G36*
X51675512Y-56253927D02*
G01*
X51824812Y-56283624D01*
X51988784Y-56351544D01*
X52136354Y-56450147D01*
X52261853Y-56575646D01*
X52360456Y-56723216D01*
X52428376Y-56887188D01*
X52463000Y-57061259D01*
X52463000Y-57238741D01*
X52428376Y-57412812D01*
X52360456Y-57576784D01*
X52261853Y-57724354D01*
X52136354Y-57849853D01*
X51988784Y-57948456D01*
X51824812Y-58016376D01*
X51675512Y-58046073D01*
X51650742Y-58051000D01*
X51473258Y-58051000D01*
X51448488Y-58046073D01*
X51299188Y-58016376D01*
X51135216Y-57948456D01*
X50987646Y-57849853D01*
X50862147Y-57724354D01*
X50763544Y-57576784D01*
X50695624Y-57412812D01*
X50661000Y-57238741D01*
X50661000Y-57061259D01*
X50695624Y-56887188D01*
X50763544Y-56723216D01*
X50862147Y-56575646D01*
X50987646Y-56450147D01*
X51135216Y-56351544D01*
X51299188Y-56283624D01*
X51448488Y-56253927D01*
X51473258Y-56249000D01*
X51650742Y-56249000D01*
X51675512Y-56253927D01*
G37*
G36*
X49923000Y-58051000D02*
G01*
X48121000Y-58051000D01*
X48121000Y-56249000D01*
X49923000Y-56249000D01*
X49923000Y-58051000D01*
G37*
G36*
X73864473Y-56475938D02*
G01*
X73992049Y-56528782D01*
X74106859Y-56605495D01*
X74204505Y-56703141D01*
X74281218Y-56817951D01*
X74334062Y-56945527D01*
X74361000Y-57080956D01*
X74361000Y-57219044D01*
X74334062Y-57354473D01*
X74281218Y-57482049D01*
X74204505Y-57596859D01*
X74106859Y-57694505D01*
X73992049Y-57771218D01*
X73864473Y-57824062D01*
X73729044Y-57851000D01*
X73590956Y-57851000D01*
X73455527Y-57824062D01*
X73327951Y-57771218D01*
X73213141Y-57694505D01*
X73115495Y-57596859D01*
X73038782Y-57482049D01*
X72985938Y-57354473D01*
X72959000Y-57219044D01*
X72959000Y-57080956D01*
X72985938Y-56945527D01*
X73038782Y-56817951D01*
X73115495Y-56703141D01*
X73213141Y-56605495D01*
X73327951Y-56528782D01*
X73455527Y-56475938D01*
X73590956Y-56449000D01*
X73729044Y-56449000D01*
X73864473Y-56475938D01*
G37*
G36*
X104344473Y-56475938D02*
G01*
X104472049Y-56528782D01*
X104586859Y-56605495D01*
X104684505Y-56703141D01*
X104761218Y-56817951D01*
X104814062Y-56945527D01*
X104841000Y-57080956D01*
X104841000Y-57219044D01*
X104814062Y-57354473D01*
X104761218Y-57482049D01*
X104684505Y-57596859D01*
X104586859Y-57694505D01*
X104472049Y-57771218D01*
X104344473Y-57824062D01*
X104209044Y-57851000D01*
X104070956Y-57851000D01*
X103935527Y-57824062D01*
X103807951Y-57771218D01*
X103693141Y-57694505D01*
X103595495Y-57596859D01*
X103518782Y-57482049D01*
X103465938Y-57354473D01*
X103439000Y-57219044D01*
X103439000Y-57080956D01*
X103465938Y-56945527D01*
X103518782Y-56817951D01*
X103595495Y-56703141D01*
X103693141Y-56605495D01*
X103807951Y-56528782D01*
X103935527Y-56475938D01*
X104070956Y-56449000D01*
X104209044Y-56449000D01*
X104344473Y-56475938D01*
G37*
G36*
X101804473Y-56475938D02*
G01*
X101932049Y-56528782D01*
X102046859Y-56605495D01*
X102144505Y-56703141D01*
X102221218Y-56817951D01*
X102274062Y-56945527D01*
X102301000Y-57080956D01*
X102301000Y-57219044D01*
X102274062Y-57354473D01*
X102221218Y-57482049D01*
X102144505Y-57596859D01*
X102046859Y-57694505D01*
X101932049Y-57771218D01*
X101804473Y-57824062D01*
X101669044Y-57851000D01*
X101530956Y-57851000D01*
X101395527Y-57824062D01*
X101267951Y-57771218D01*
X101153141Y-57694505D01*
X101055495Y-57596859D01*
X100978782Y-57482049D01*
X100925938Y-57354473D01*
X100899000Y-57219044D01*
X100899000Y-57080956D01*
X100925938Y-56945527D01*
X100978782Y-56817951D01*
X101055495Y-56703141D01*
X101153141Y-56605495D01*
X101267951Y-56528782D01*
X101395527Y-56475938D01*
X101530956Y-56449000D01*
X101669044Y-56449000D01*
X101804473Y-56475938D01*
G37*
G36*
X76404473Y-56475938D02*
G01*
X76532049Y-56528782D01*
X76646859Y-56605495D01*
X76744505Y-56703141D01*
X76821218Y-56817951D01*
X76874062Y-56945527D01*
X76901000Y-57080956D01*
X76901000Y-57219044D01*
X76874062Y-57354473D01*
X76821218Y-57482049D01*
X76744505Y-57596859D01*
X76646859Y-57694505D01*
X76532049Y-57771218D01*
X76404473Y-57824062D01*
X76269044Y-57851000D01*
X76130956Y-57851000D01*
X75995527Y-57824062D01*
X75867951Y-57771218D01*
X75753141Y-57694505D01*
X75655495Y-57596859D01*
X75578782Y-57482049D01*
X75525938Y-57354473D01*
X75499000Y-57219044D01*
X75499000Y-57080956D01*
X75525938Y-56945527D01*
X75578782Y-56817951D01*
X75655495Y-56703141D01*
X75753141Y-56605495D01*
X75867951Y-56528782D01*
X75995527Y-56475938D01*
X76130956Y-56449000D01*
X76269044Y-56449000D01*
X76404473Y-56475938D01*
G37*
G36*
X127901000Y-57797000D02*
G01*
X126099000Y-57797000D01*
X126099000Y-55995000D01*
X127901000Y-55995000D01*
X127901000Y-57797000D01*
G37*
G36*
X129653512Y-55999927D02*
G01*
X129802812Y-56029624D01*
X129966784Y-56097544D01*
X130114354Y-56196147D01*
X130239853Y-56321646D01*
X130338456Y-56469216D01*
X130406376Y-56633188D01*
X130441000Y-56807259D01*
X130441000Y-56984741D01*
X130406376Y-57158812D01*
X130338456Y-57322784D01*
X130239853Y-57470354D01*
X130114354Y-57595853D01*
X129966784Y-57694456D01*
X129802812Y-57762376D01*
X129653512Y-57792073D01*
X129628742Y-57797000D01*
X129451258Y-57797000D01*
X129426488Y-57792073D01*
X129277188Y-57762376D01*
X129113216Y-57694456D01*
X128965646Y-57595853D01*
X128840147Y-57470354D01*
X128741544Y-57322784D01*
X128673624Y-57158812D01*
X128639000Y-56984741D01*
X128639000Y-56807259D01*
X128673624Y-56633188D01*
X128741544Y-56469216D01*
X128840147Y-56321646D01*
X128965646Y-56196147D01*
X129113216Y-56097544D01*
X129277188Y-56029624D01*
X129426488Y-55999927D01*
X129451258Y-55995000D01*
X129628742Y-55995000D01*
X129653512Y-55999927D01*
G37*
G36*
X37463589Y-54356876D02*
G01*
X37562893Y-54376629D01*
X37703206Y-54434748D01*
X37829484Y-54519125D01*
X37936875Y-54626516D01*
X38021252Y-54752794D01*
X38079371Y-54893107D01*
X38109000Y-55042063D01*
X38109000Y-55193937D01*
X38079371Y-55342893D01*
X38021252Y-55483206D01*
X37936875Y-55609484D01*
X37829484Y-55716875D01*
X37703206Y-55801252D01*
X37562893Y-55859371D01*
X37463589Y-55879124D01*
X37413938Y-55889000D01*
X37262062Y-55889000D01*
X37212411Y-55879124D01*
X37113107Y-55859371D01*
X36972794Y-55801252D01*
X36846516Y-55716875D01*
X36739125Y-55609484D01*
X36654748Y-55483206D01*
X36596629Y-55342893D01*
X36567000Y-55193937D01*
X36567000Y-55042063D01*
X36596629Y-54893107D01*
X36654748Y-54752794D01*
X36739125Y-54626516D01*
X36846516Y-54519125D01*
X36972794Y-54434748D01*
X37113107Y-54376629D01*
X37212411Y-54356876D01*
X37262062Y-54347000D01*
X37413938Y-54347000D01*
X37463589Y-54356876D01*
G37*
G36*
X101804473Y-53935938D02*
G01*
X101932049Y-53988782D01*
X102046859Y-54065495D01*
X102144505Y-54163141D01*
X102221218Y-54277951D01*
X102274062Y-54405527D01*
X102301000Y-54540956D01*
X102301000Y-54679044D01*
X102274062Y-54814473D01*
X102221218Y-54942049D01*
X102144505Y-55056859D01*
X102046859Y-55154505D01*
X101932049Y-55231218D01*
X101804473Y-55284062D01*
X101669044Y-55311000D01*
X101530956Y-55311000D01*
X101395527Y-55284062D01*
X101267951Y-55231218D01*
X101153141Y-55154505D01*
X101055495Y-55056859D01*
X100978782Y-54942049D01*
X100925938Y-54814473D01*
X100899000Y-54679044D01*
X100899000Y-54540956D01*
X100925938Y-54405527D01*
X100978782Y-54277951D01*
X101055495Y-54163141D01*
X101153141Y-54065495D01*
X101267951Y-53988782D01*
X101395527Y-53935938D01*
X101530956Y-53909000D01*
X101669044Y-53909000D01*
X101804473Y-53935938D01*
G37*
G36*
X76404473Y-53935938D02*
G01*
X76532049Y-53988782D01*
X76646859Y-54065495D01*
X76744505Y-54163141D01*
X76821218Y-54277951D01*
X76874062Y-54405527D01*
X76901000Y-54540956D01*
X76901000Y-54679044D01*
X76874062Y-54814473D01*
X76821218Y-54942049D01*
X76744505Y-55056859D01*
X76646859Y-55154505D01*
X76532049Y-55231218D01*
X76404473Y-55284062D01*
X76269044Y-55311000D01*
X76130956Y-55311000D01*
X75995527Y-55284062D01*
X75867951Y-55231218D01*
X75753141Y-55154505D01*
X75655495Y-55056859D01*
X75578782Y-54942049D01*
X75525938Y-54814473D01*
X75499000Y-54679044D01*
X75499000Y-54540956D01*
X75525938Y-54405527D01*
X75578782Y-54277951D01*
X75655495Y-54163141D01*
X75753141Y-54065495D01*
X75867951Y-53988782D01*
X75995527Y-53935938D01*
X76130956Y-53909000D01*
X76269044Y-53909000D01*
X76404473Y-53935938D01*
G37*
G36*
X73864473Y-53935938D02*
G01*
X73992049Y-53988782D01*
X74106859Y-54065495D01*
X74204505Y-54163141D01*
X74281218Y-54277951D01*
X74334062Y-54405527D01*
X74361000Y-54540956D01*
X74361000Y-54679044D01*
X74334062Y-54814473D01*
X74281218Y-54942049D01*
X74204505Y-55056859D01*
X74106859Y-55154505D01*
X73992049Y-55231218D01*
X73864473Y-55284062D01*
X73729044Y-55311000D01*
X73590956Y-55311000D01*
X73455527Y-55284062D01*
X73327951Y-55231218D01*
X73213141Y-55154505D01*
X73115495Y-55056859D01*
X73038782Y-54942049D01*
X72985938Y-54814473D01*
X72959000Y-54679044D01*
X72959000Y-54540956D01*
X72985938Y-54405527D01*
X73038782Y-54277951D01*
X73115495Y-54163141D01*
X73213141Y-54065495D01*
X73327951Y-53988782D01*
X73455527Y-53935938D01*
X73590956Y-53909000D01*
X73729044Y-53909000D01*
X73864473Y-53935938D01*
G37*
G36*
X104344473Y-53935938D02*
G01*
X104472049Y-53988782D01*
X104586859Y-54065495D01*
X104684505Y-54163141D01*
X104761218Y-54277951D01*
X104814062Y-54405527D01*
X104841000Y-54540956D01*
X104841000Y-54679044D01*
X104814062Y-54814473D01*
X104761218Y-54942049D01*
X104684505Y-55056859D01*
X104586859Y-55154505D01*
X104472049Y-55231218D01*
X104344473Y-55284062D01*
X104209044Y-55311000D01*
X104070956Y-55311000D01*
X103935527Y-55284062D01*
X103807951Y-55231218D01*
X103693141Y-55154505D01*
X103595495Y-55056859D01*
X103518782Y-54942049D01*
X103465938Y-54814473D01*
X103439000Y-54679044D01*
X103439000Y-54540956D01*
X103465938Y-54405527D01*
X103518782Y-54277951D01*
X103595495Y-54163141D01*
X103693141Y-54065495D01*
X103807951Y-53988782D01*
X103935527Y-53935938D01*
X104070956Y-53909000D01*
X104209044Y-53909000D01*
X104344473Y-53935938D01*
G37*
G36*
X143268000Y-52971000D02*
G01*
X141466000Y-52971000D01*
X141466000Y-51169000D01*
X143268000Y-51169000D01*
X143268000Y-52971000D01*
G37*
G36*
X145020512Y-51173927D02*
G01*
X145169812Y-51203624D01*
X145333784Y-51271544D01*
X145481354Y-51370147D01*
X145606853Y-51495646D01*
X145705456Y-51643216D01*
X145773376Y-51807188D01*
X145808000Y-51981259D01*
X145808000Y-52158741D01*
X145773376Y-52332812D01*
X145705456Y-52496784D01*
X145606853Y-52644354D01*
X145481354Y-52769853D01*
X145333784Y-52868456D01*
X145169812Y-52936376D01*
X145020512Y-52966073D01*
X144995742Y-52971000D01*
X144818258Y-52971000D01*
X144793488Y-52966073D01*
X144644188Y-52936376D01*
X144480216Y-52868456D01*
X144332646Y-52769853D01*
X144207147Y-52644354D01*
X144108544Y-52496784D01*
X144040624Y-52332812D01*
X144006000Y-52158741D01*
X144006000Y-51981259D01*
X144040624Y-51807188D01*
X144108544Y-51643216D01*
X144207147Y-51495646D01*
X144332646Y-51370147D01*
X144480216Y-51271544D01*
X144644188Y-51203624D01*
X144793488Y-51173927D01*
X144818258Y-51169000D01*
X144995742Y-51169000D01*
X145020512Y-51173927D01*
G37*
G36*
X96724473Y-51395938D02*
G01*
X96852049Y-51448782D01*
X96966859Y-51525495D01*
X97064505Y-51623141D01*
X97141218Y-51737951D01*
X97194062Y-51865527D01*
X97221000Y-52000956D01*
X97221000Y-52139044D01*
X97194062Y-52274473D01*
X97141218Y-52402049D01*
X97064505Y-52516859D01*
X96966859Y-52614505D01*
X96852049Y-52691218D01*
X96724473Y-52744062D01*
X96589044Y-52771000D01*
X96450956Y-52771000D01*
X96315527Y-52744062D01*
X96187951Y-52691218D01*
X96073141Y-52614505D01*
X95975495Y-52516859D01*
X95898782Y-52402049D01*
X95845938Y-52274473D01*
X95819000Y-52139044D01*
X95819000Y-52000956D01*
X95845938Y-51865527D01*
X95898782Y-51737951D01*
X95975495Y-51623141D01*
X96073141Y-51525495D01*
X96187951Y-51448782D01*
X96315527Y-51395938D01*
X96450956Y-51369000D01*
X96589044Y-51369000D01*
X96724473Y-51395938D01*
G37*
G36*
X91644473Y-51395938D02*
G01*
X91772049Y-51448782D01*
X91886859Y-51525495D01*
X91984505Y-51623141D01*
X92061218Y-51737951D01*
X92114062Y-51865527D01*
X92141000Y-52000956D01*
X92141000Y-52139044D01*
X92114062Y-52274473D01*
X92061218Y-52402049D01*
X91984505Y-52516859D01*
X91886859Y-52614505D01*
X91772049Y-52691218D01*
X91644473Y-52744062D01*
X91509044Y-52771000D01*
X91370956Y-52771000D01*
X91235527Y-52744062D01*
X91107951Y-52691218D01*
X90993141Y-52614505D01*
X90895495Y-52516859D01*
X90818782Y-52402049D01*
X90765938Y-52274473D01*
X90739000Y-52139044D01*
X90739000Y-52000956D01*
X90765938Y-51865527D01*
X90818782Y-51737951D01*
X90895495Y-51623141D01*
X90993141Y-51525495D01*
X91107951Y-51448782D01*
X91235527Y-51395938D01*
X91370956Y-51369000D01*
X91509044Y-51369000D01*
X91644473Y-51395938D01*
G37*
G36*
X86564473Y-51395938D02*
G01*
X86692049Y-51448782D01*
X86806859Y-51525495D01*
X86904505Y-51623141D01*
X86981218Y-51737951D01*
X87034062Y-51865527D01*
X87061000Y-52000956D01*
X87061000Y-52139044D01*
X87034062Y-52274473D01*
X86981218Y-52402049D01*
X86904505Y-52516859D01*
X86806859Y-52614505D01*
X86692049Y-52691218D01*
X86564473Y-52744062D01*
X86429044Y-52771000D01*
X86290956Y-52771000D01*
X86155527Y-52744062D01*
X86027951Y-52691218D01*
X85913141Y-52614505D01*
X85815495Y-52516859D01*
X85738782Y-52402049D01*
X85685938Y-52274473D01*
X85659000Y-52139044D01*
X85659000Y-52000956D01*
X85685938Y-51865527D01*
X85738782Y-51737951D01*
X85815495Y-51623141D01*
X85913141Y-51525495D01*
X86027951Y-51448782D01*
X86155527Y-51395938D01*
X86290956Y-51369000D01*
X86429044Y-51369000D01*
X86564473Y-51395938D01*
G37*
G36*
X84024473Y-51395938D02*
G01*
X84152049Y-51448782D01*
X84266859Y-51525495D01*
X84364505Y-51623141D01*
X84441218Y-51737951D01*
X84494062Y-51865527D01*
X84521000Y-52000956D01*
X84521000Y-52139044D01*
X84494062Y-52274473D01*
X84441218Y-52402049D01*
X84364505Y-52516859D01*
X84266859Y-52614505D01*
X84152049Y-52691218D01*
X84024473Y-52744062D01*
X83889044Y-52771000D01*
X83750956Y-52771000D01*
X83615527Y-52744062D01*
X83487951Y-52691218D01*
X83373141Y-52614505D01*
X83275495Y-52516859D01*
X83198782Y-52402049D01*
X83145938Y-52274473D01*
X83119000Y-52139044D01*
X83119000Y-52000956D01*
X83145938Y-51865527D01*
X83198782Y-51737951D01*
X83275495Y-51623141D01*
X83373141Y-51525495D01*
X83487951Y-51448782D01*
X83615527Y-51395938D01*
X83750956Y-51369000D01*
X83889044Y-51369000D01*
X84024473Y-51395938D01*
G37*
G36*
X81484473Y-51395938D02*
G01*
X81612049Y-51448782D01*
X81726859Y-51525495D01*
X81824505Y-51623141D01*
X81901218Y-51737951D01*
X81954062Y-51865527D01*
X81981000Y-52000956D01*
X81981000Y-52139044D01*
X81954062Y-52274473D01*
X81901218Y-52402049D01*
X81824505Y-52516859D01*
X81726859Y-52614505D01*
X81612049Y-52691218D01*
X81484473Y-52744062D01*
X81349044Y-52771000D01*
X81210956Y-52771000D01*
X81075527Y-52744062D01*
X80947951Y-52691218D01*
X80833141Y-52614505D01*
X80735495Y-52516859D01*
X80658782Y-52402049D01*
X80605938Y-52274473D01*
X80579000Y-52139044D01*
X80579000Y-52000956D01*
X80605938Y-51865527D01*
X80658782Y-51737951D01*
X80735495Y-51623141D01*
X80833141Y-51525495D01*
X80947951Y-51448782D01*
X81075527Y-51395938D01*
X81210956Y-51369000D01*
X81349044Y-51369000D01*
X81484473Y-51395938D01*
G37*
G36*
X78944473Y-51395938D02*
G01*
X79072049Y-51448782D01*
X79186859Y-51525495D01*
X79284505Y-51623141D01*
X79361218Y-51737951D01*
X79414062Y-51865527D01*
X79441000Y-52000956D01*
X79441000Y-52139044D01*
X79414062Y-52274473D01*
X79361218Y-52402049D01*
X79284505Y-52516859D01*
X79186859Y-52614505D01*
X79072049Y-52691218D01*
X78944473Y-52744062D01*
X78809044Y-52771000D01*
X78670956Y-52771000D01*
X78535527Y-52744062D01*
X78407951Y-52691218D01*
X78293141Y-52614505D01*
X78195495Y-52516859D01*
X78118782Y-52402049D01*
X78065938Y-52274473D01*
X78039000Y-52139044D01*
X78039000Y-52000956D01*
X78065938Y-51865527D01*
X78118782Y-51737951D01*
X78195495Y-51623141D01*
X78293141Y-51525495D01*
X78407951Y-51448782D01*
X78535527Y-51395938D01*
X78670956Y-51369000D01*
X78809044Y-51369000D01*
X78944473Y-51395938D01*
G37*
G36*
X94184473Y-51395938D02*
G01*
X94312049Y-51448782D01*
X94426859Y-51525495D01*
X94524505Y-51623141D01*
X94601218Y-51737951D01*
X94654062Y-51865527D01*
X94681000Y-52000956D01*
X94681000Y-52139044D01*
X94654062Y-52274473D01*
X94601218Y-52402049D01*
X94524505Y-52516859D01*
X94426859Y-52614505D01*
X94312049Y-52691218D01*
X94184473Y-52744062D01*
X94049044Y-52771000D01*
X93910956Y-52771000D01*
X93775527Y-52744062D01*
X93647951Y-52691218D01*
X93533141Y-52614505D01*
X93435495Y-52516859D01*
X93358782Y-52402049D01*
X93305938Y-52274473D01*
X93279000Y-52139044D01*
X93279000Y-52000956D01*
X93305938Y-51865527D01*
X93358782Y-51737951D01*
X93435495Y-51623141D01*
X93533141Y-51525495D01*
X93647951Y-51448782D01*
X93775527Y-51395938D01*
X93910956Y-51369000D01*
X94049044Y-51369000D01*
X94184473Y-51395938D01*
G37*
G36*
X101804473Y-51395938D02*
G01*
X101932049Y-51448782D01*
X102046859Y-51525495D01*
X102144505Y-51623141D01*
X102221218Y-51737951D01*
X102274062Y-51865527D01*
X102301000Y-52000956D01*
X102301000Y-52139044D01*
X102274062Y-52274473D01*
X102221218Y-52402049D01*
X102144505Y-52516859D01*
X102046859Y-52614505D01*
X101932049Y-52691218D01*
X101804473Y-52744062D01*
X101669044Y-52771000D01*
X101530956Y-52771000D01*
X101395527Y-52744062D01*
X101267951Y-52691218D01*
X101153141Y-52614505D01*
X101055495Y-52516859D01*
X100978782Y-52402049D01*
X100925938Y-52274473D01*
X100899000Y-52139044D01*
X100899000Y-52000956D01*
X100925938Y-51865527D01*
X100978782Y-51737951D01*
X101055495Y-51623141D01*
X101153141Y-51525495D01*
X101267951Y-51448782D01*
X101395527Y-51395938D01*
X101530956Y-51369000D01*
X101669044Y-51369000D01*
X101804473Y-51395938D01*
G37*
G36*
X99264473Y-51395938D02*
G01*
X99392049Y-51448782D01*
X99506859Y-51525495D01*
X99604505Y-51623141D01*
X99681218Y-51737951D01*
X99734062Y-51865527D01*
X99761000Y-52000956D01*
X99761000Y-52139044D01*
X99734062Y-52274473D01*
X99681218Y-52402049D01*
X99604505Y-52516859D01*
X99506859Y-52614505D01*
X99392049Y-52691218D01*
X99264473Y-52744062D01*
X99129044Y-52771000D01*
X98990956Y-52771000D01*
X98855527Y-52744062D01*
X98727951Y-52691218D01*
X98613141Y-52614505D01*
X98515495Y-52516859D01*
X98438782Y-52402049D01*
X98385938Y-52274473D01*
X98359000Y-52139044D01*
X98359000Y-52000956D01*
X98385938Y-51865527D01*
X98438782Y-51737951D01*
X98515495Y-51623141D01*
X98613141Y-51525495D01*
X98727951Y-51448782D01*
X98855527Y-51395938D01*
X98990956Y-51369000D01*
X99129044Y-51369000D01*
X99264473Y-51395938D01*
G37*
G36*
X89104473Y-51395938D02*
G01*
X89232049Y-51448782D01*
X89346859Y-51525495D01*
X89444505Y-51623141D01*
X89521218Y-51737951D01*
X89574062Y-51865527D01*
X89601000Y-52000956D01*
X89601000Y-52139044D01*
X89574062Y-52274473D01*
X89521218Y-52402049D01*
X89444505Y-52516859D01*
X89346859Y-52614505D01*
X89232049Y-52691218D01*
X89104473Y-52744062D01*
X88969044Y-52771000D01*
X88830956Y-52771000D01*
X88695527Y-52744062D01*
X88567951Y-52691218D01*
X88453141Y-52614505D01*
X88355495Y-52516859D01*
X88278782Y-52402049D01*
X88225938Y-52274473D01*
X88199000Y-52139044D01*
X88199000Y-52000956D01*
X88225938Y-51865527D01*
X88278782Y-51737951D01*
X88355495Y-51623141D01*
X88453141Y-51525495D01*
X88567951Y-51448782D01*
X88695527Y-51395938D01*
X88830956Y-51369000D01*
X88969044Y-51369000D01*
X89104473Y-51395938D01*
G37*
G36*
X73864473Y-51395938D02*
G01*
X73992049Y-51448782D01*
X74106859Y-51525495D01*
X74204505Y-51623141D01*
X74281218Y-51737951D01*
X74334062Y-51865527D01*
X74361000Y-52000956D01*
X74361000Y-52139044D01*
X74334062Y-52274473D01*
X74281218Y-52402049D01*
X74204505Y-52516859D01*
X74106859Y-52614505D01*
X73992049Y-52691218D01*
X73864473Y-52744062D01*
X73729044Y-52771000D01*
X73590956Y-52771000D01*
X73455527Y-52744062D01*
X73327951Y-52691218D01*
X73213141Y-52614505D01*
X73115495Y-52516859D01*
X73038782Y-52402049D01*
X72985938Y-52274473D01*
X72959000Y-52139044D01*
X72959000Y-52000956D01*
X72985938Y-51865527D01*
X73038782Y-51737951D01*
X73115495Y-51623141D01*
X73213141Y-51525495D01*
X73327951Y-51448782D01*
X73455527Y-51395938D01*
X73590956Y-51369000D01*
X73729044Y-51369000D01*
X73864473Y-51395938D01*
G37*
G36*
X76404473Y-51395938D02*
G01*
X76532049Y-51448782D01*
X76646859Y-51525495D01*
X76744505Y-51623141D01*
X76821218Y-51737951D01*
X76874062Y-51865527D01*
X76901000Y-52000956D01*
X76901000Y-52139044D01*
X76874062Y-52274473D01*
X76821218Y-52402049D01*
X76744505Y-52516859D01*
X76646859Y-52614505D01*
X76532049Y-52691218D01*
X76404473Y-52744062D01*
X76269044Y-52771000D01*
X76130956Y-52771000D01*
X75995527Y-52744062D01*
X75867951Y-52691218D01*
X75753141Y-52614505D01*
X75655495Y-52516859D01*
X75578782Y-52402049D01*
X75525938Y-52274473D01*
X75499000Y-52139044D01*
X75499000Y-52000956D01*
X75525938Y-51865527D01*
X75578782Y-51737951D01*
X75655495Y-51623141D01*
X75753141Y-51525495D01*
X75867951Y-51448782D01*
X75995527Y-51395938D01*
X76130956Y-51369000D01*
X76269044Y-51369000D01*
X76404473Y-51395938D01*
G37*
G36*
X104344473Y-51395938D02*
G01*
X104472049Y-51448782D01*
X104586859Y-51525495D01*
X104684505Y-51623141D01*
X104761218Y-51737951D01*
X104814062Y-51865527D01*
X104841000Y-52000956D01*
X104841000Y-52139044D01*
X104814062Y-52274473D01*
X104761218Y-52402049D01*
X104684505Y-52516859D01*
X104586859Y-52614505D01*
X104472049Y-52691218D01*
X104344473Y-52744062D01*
X104209044Y-52771000D01*
X104070956Y-52771000D01*
X103935527Y-52744062D01*
X103807951Y-52691218D01*
X103693141Y-52614505D01*
X103595495Y-52516859D01*
X103518782Y-52402049D01*
X103465938Y-52274473D01*
X103439000Y-52139044D01*
X103439000Y-52000956D01*
X103465938Y-51865527D01*
X103518782Y-51737951D01*
X103595495Y-51623141D01*
X103693141Y-51525495D01*
X103807951Y-51448782D01*
X103935527Y-51395938D01*
X104070956Y-51369000D01*
X104209044Y-51369000D01*
X104344473Y-51395938D01*
G37*
G36*
X86564473Y-48855938D02*
G01*
X86692049Y-48908782D01*
X86806859Y-48985495D01*
X86904505Y-49083141D01*
X86981218Y-49197951D01*
X87034062Y-49325527D01*
X87061000Y-49460956D01*
X87061000Y-49599044D01*
X87034062Y-49734473D01*
X86981218Y-49862049D01*
X86904505Y-49976859D01*
X86806859Y-50074505D01*
X86692049Y-50151218D01*
X86564473Y-50204062D01*
X86429044Y-50231000D01*
X86290956Y-50231000D01*
X86155527Y-50204062D01*
X86027951Y-50151218D01*
X85913141Y-50074505D01*
X85815495Y-49976859D01*
X85738782Y-49862049D01*
X85685938Y-49734473D01*
X85659000Y-49599044D01*
X85659000Y-49460956D01*
X85685938Y-49325527D01*
X85738782Y-49197951D01*
X85815495Y-49083141D01*
X85913141Y-48985495D01*
X86027951Y-48908782D01*
X86155527Y-48855938D01*
X86290956Y-48829000D01*
X86429044Y-48829000D01*
X86564473Y-48855938D01*
G37*
G36*
X84024473Y-48855938D02*
G01*
X84152049Y-48908782D01*
X84266859Y-48985495D01*
X84364505Y-49083141D01*
X84441218Y-49197951D01*
X84494062Y-49325527D01*
X84521000Y-49460956D01*
X84521000Y-49599044D01*
X84494062Y-49734473D01*
X84441218Y-49862049D01*
X84364505Y-49976859D01*
X84266859Y-50074505D01*
X84152049Y-50151218D01*
X84024473Y-50204062D01*
X83889044Y-50231000D01*
X83750956Y-50231000D01*
X83615527Y-50204062D01*
X83487951Y-50151218D01*
X83373141Y-50074505D01*
X83275495Y-49976859D01*
X83198782Y-49862049D01*
X83145938Y-49734473D01*
X83119000Y-49599044D01*
X83119000Y-49460956D01*
X83145938Y-49325527D01*
X83198782Y-49197951D01*
X83275495Y-49083141D01*
X83373141Y-48985495D01*
X83487951Y-48908782D01*
X83615527Y-48855938D01*
X83750956Y-48829000D01*
X83889044Y-48829000D01*
X84024473Y-48855938D01*
G37*
G36*
X81484473Y-48855938D02*
G01*
X81612049Y-48908782D01*
X81726859Y-48985495D01*
X81824505Y-49083141D01*
X81901218Y-49197951D01*
X81954062Y-49325527D01*
X81981000Y-49460956D01*
X81981000Y-49599044D01*
X81954062Y-49734473D01*
X81901218Y-49862049D01*
X81824505Y-49976859D01*
X81726859Y-50074505D01*
X81612049Y-50151218D01*
X81484473Y-50204062D01*
X81349044Y-50231000D01*
X81210956Y-50231000D01*
X81075527Y-50204062D01*
X80947951Y-50151218D01*
X80833141Y-50074505D01*
X80735495Y-49976859D01*
X80658782Y-49862049D01*
X80605938Y-49734473D01*
X80579000Y-49599044D01*
X80579000Y-49460956D01*
X80605938Y-49325527D01*
X80658782Y-49197951D01*
X80735495Y-49083141D01*
X80833141Y-48985495D01*
X80947951Y-48908782D01*
X81075527Y-48855938D01*
X81210956Y-48829000D01*
X81349044Y-48829000D01*
X81484473Y-48855938D01*
G37*
G36*
X78944473Y-48855938D02*
G01*
X79072049Y-48908782D01*
X79186859Y-48985495D01*
X79284505Y-49083141D01*
X79361218Y-49197951D01*
X79414062Y-49325527D01*
X79441000Y-49460956D01*
X79441000Y-49599044D01*
X79414062Y-49734473D01*
X79361218Y-49862049D01*
X79284505Y-49976859D01*
X79186859Y-50074505D01*
X79072049Y-50151218D01*
X78944473Y-50204062D01*
X78809044Y-50231000D01*
X78670956Y-50231000D01*
X78535527Y-50204062D01*
X78407951Y-50151218D01*
X78293141Y-50074505D01*
X78195495Y-49976859D01*
X78118782Y-49862049D01*
X78065938Y-49734473D01*
X78039000Y-49599044D01*
X78039000Y-49460956D01*
X78065938Y-49325527D01*
X78118782Y-49197951D01*
X78195495Y-49083141D01*
X78293141Y-48985495D01*
X78407951Y-48908782D01*
X78535527Y-48855938D01*
X78670956Y-48829000D01*
X78809044Y-48829000D01*
X78944473Y-48855938D01*
G37*
G36*
X76404473Y-48855938D02*
G01*
X76532049Y-48908782D01*
X76646859Y-48985495D01*
X76744505Y-49083141D01*
X76821218Y-49197951D01*
X76874062Y-49325527D01*
X76901000Y-49460956D01*
X76901000Y-49599044D01*
X76874062Y-49734473D01*
X76821218Y-49862049D01*
X76744505Y-49976859D01*
X76646859Y-50074505D01*
X76532049Y-50151218D01*
X76404473Y-50204062D01*
X76269044Y-50231000D01*
X76130956Y-50231000D01*
X75995527Y-50204062D01*
X75867951Y-50151218D01*
X75753141Y-50074505D01*
X75655495Y-49976859D01*
X75578782Y-49862049D01*
X75525938Y-49734473D01*
X75499000Y-49599044D01*
X75499000Y-49460956D01*
X75525938Y-49325527D01*
X75578782Y-49197951D01*
X75655495Y-49083141D01*
X75753141Y-48985495D01*
X75867951Y-48908782D01*
X75995527Y-48855938D01*
X76130956Y-48829000D01*
X76269044Y-48829000D01*
X76404473Y-48855938D01*
G37*
G36*
X91644473Y-48855938D02*
G01*
X91772049Y-48908782D01*
X91886859Y-48985495D01*
X91984505Y-49083141D01*
X92061218Y-49197951D01*
X92114062Y-49325527D01*
X92141000Y-49460956D01*
X92141000Y-49599044D01*
X92114062Y-49734473D01*
X92061218Y-49862049D01*
X91984505Y-49976859D01*
X91886859Y-50074505D01*
X91772049Y-50151218D01*
X91644473Y-50204062D01*
X91509044Y-50231000D01*
X91370956Y-50231000D01*
X91235527Y-50204062D01*
X91107951Y-50151218D01*
X90993141Y-50074505D01*
X90895495Y-49976859D01*
X90818782Y-49862049D01*
X90765938Y-49734473D01*
X90739000Y-49599044D01*
X90739000Y-49460956D01*
X90765938Y-49325527D01*
X90818782Y-49197951D01*
X90895495Y-49083141D01*
X90993141Y-48985495D01*
X91107951Y-48908782D01*
X91235527Y-48855938D01*
X91370956Y-48829000D01*
X91509044Y-48829000D01*
X91644473Y-48855938D01*
G37*
G36*
X101804473Y-48855938D02*
G01*
X101932049Y-48908782D01*
X102046859Y-48985495D01*
X102144505Y-49083141D01*
X102221218Y-49197951D01*
X102274062Y-49325527D01*
X102301000Y-49460956D01*
X102301000Y-49599044D01*
X102274062Y-49734473D01*
X102221218Y-49862049D01*
X102144505Y-49976859D01*
X102046859Y-50074505D01*
X101932049Y-50151218D01*
X101804473Y-50204062D01*
X101669044Y-50231000D01*
X101530956Y-50231000D01*
X101395527Y-50204062D01*
X101267951Y-50151218D01*
X101153141Y-50074505D01*
X101055495Y-49976859D01*
X100978782Y-49862049D01*
X100925938Y-49734473D01*
X100899000Y-49599044D01*
X100899000Y-49460956D01*
X100925938Y-49325527D01*
X100978782Y-49197951D01*
X101055495Y-49083141D01*
X101153141Y-48985495D01*
X101267951Y-48908782D01*
X101395527Y-48855938D01*
X101530956Y-48829000D01*
X101669044Y-48829000D01*
X101804473Y-48855938D01*
G37*
G36*
X96724473Y-48855938D02*
G01*
X96852049Y-48908782D01*
X96966859Y-48985495D01*
X97064505Y-49083141D01*
X97141218Y-49197951D01*
X97194062Y-49325527D01*
X97221000Y-49460956D01*
X97221000Y-49599044D01*
X97194062Y-49734473D01*
X97141218Y-49862049D01*
X97064505Y-49976859D01*
X96966859Y-50074505D01*
X96852049Y-50151218D01*
X96724473Y-50204062D01*
X96589044Y-50231000D01*
X96450956Y-50231000D01*
X96315527Y-50204062D01*
X96187951Y-50151218D01*
X96073141Y-50074505D01*
X95975495Y-49976859D01*
X95898782Y-49862049D01*
X95845938Y-49734473D01*
X95819000Y-49599044D01*
X95819000Y-49460956D01*
X95845938Y-49325527D01*
X95898782Y-49197951D01*
X95975495Y-49083141D01*
X96073141Y-48985495D01*
X96187951Y-48908782D01*
X96315527Y-48855938D01*
X96450956Y-48829000D01*
X96589044Y-48829000D01*
X96724473Y-48855938D01*
G37*
G36*
X94184473Y-48855938D02*
G01*
X94312049Y-48908782D01*
X94426859Y-48985495D01*
X94524505Y-49083141D01*
X94601218Y-49197951D01*
X94654062Y-49325527D01*
X94681000Y-49460956D01*
X94681000Y-49599044D01*
X94654062Y-49734473D01*
X94601218Y-49862049D01*
X94524505Y-49976859D01*
X94426859Y-50074505D01*
X94312049Y-50151218D01*
X94184473Y-50204062D01*
X94049044Y-50231000D01*
X93910956Y-50231000D01*
X93775527Y-50204062D01*
X93647951Y-50151218D01*
X93533141Y-50074505D01*
X93435495Y-49976859D01*
X93358782Y-49862049D01*
X93305938Y-49734473D01*
X93279000Y-49599044D01*
X93279000Y-49460956D01*
X93305938Y-49325527D01*
X93358782Y-49197951D01*
X93435495Y-49083141D01*
X93533141Y-48985495D01*
X93647951Y-48908782D01*
X93775527Y-48855938D01*
X93910956Y-48829000D01*
X94049044Y-48829000D01*
X94184473Y-48855938D01*
G37*
G36*
X99264473Y-48855938D02*
G01*
X99392049Y-48908782D01*
X99506859Y-48985495D01*
X99604505Y-49083141D01*
X99681218Y-49197951D01*
X99734062Y-49325527D01*
X99761000Y-49460956D01*
X99761000Y-49599044D01*
X99734062Y-49734473D01*
X99681218Y-49862049D01*
X99604505Y-49976859D01*
X99506859Y-50074505D01*
X99392049Y-50151218D01*
X99264473Y-50204062D01*
X99129044Y-50231000D01*
X98990956Y-50231000D01*
X98855527Y-50204062D01*
X98727951Y-50151218D01*
X98613141Y-50074505D01*
X98515495Y-49976859D01*
X98438782Y-49862049D01*
X98385938Y-49734473D01*
X98359000Y-49599044D01*
X98359000Y-49460956D01*
X98385938Y-49325527D01*
X98438782Y-49197951D01*
X98515495Y-49083141D01*
X98613141Y-48985495D01*
X98727951Y-48908782D01*
X98855527Y-48855938D01*
X98990956Y-48829000D01*
X99129044Y-48829000D01*
X99264473Y-48855938D01*
G37*
G36*
X89104473Y-48855938D02*
G01*
X89232049Y-48908782D01*
X89346859Y-48985495D01*
X89444505Y-49083141D01*
X89521218Y-49197951D01*
X89574062Y-49325527D01*
X89601000Y-49460956D01*
X89601000Y-49599044D01*
X89574062Y-49734473D01*
X89521218Y-49862049D01*
X89444505Y-49976859D01*
X89346859Y-50074505D01*
X89232049Y-50151218D01*
X89104473Y-50204062D01*
X88969044Y-50231000D01*
X88830956Y-50231000D01*
X88695527Y-50204062D01*
X88567951Y-50151218D01*
X88453141Y-50074505D01*
X88355495Y-49976859D01*
X88278782Y-49862049D01*
X88225938Y-49734473D01*
X88199000Y-49599044D01*
X88199000Y-49460956D01*
X88225938Y-49325527D01*
X88278782Y-49197951D01*
X88355495Y-49083141D01*
X88453141Y-48985495D01*
X88567951Y-48908782D01*
X88695527Y-48855938D01*
X88830956Y-48829000D01*
X88969044Y-48829000D01*
X89104473Y-48855938D01*
G37*
G36*
X44309512Y-47236927D02*
G01*
X44458812Y-47266624D01*
X44622784Y-47334544D01*
X44770354Y-47433147D01*
X44895853Y-47558646D01*
X44994456Y-47706216D01*
X45062376Y-47870188D01*
X45097000Y-48044259D01*
X45097000Y-48221741D01*
X45062376Y-48395812D01*
X44994456Y-48559784D01*
X44895853Y-48707354D01*
X44770354Y-48832853D01*
X44622784Y-48931456D01*
X44458812Y-48999376D01*
X44309512Y-49029073D01*
X44284742Y-49034000D01*
X44107258Y-49034000D01*
X44082488Y-49029073D01*
X43933188Y-48999376D01*
X43769216Y-48931456D01*
X43621646Y-48832853D01*
X43496147Y-48707354D01*
X43397544Y-48559784D01*
X43329624Y-48395812D01*
X43295000Y-48221741D01*
X43295000Y-48044259D01*
X43329624Y-47870188D01*
X43397544Y-47706216D01*
X43496147Y-47558646D01*
X43621646Y-47433147D01*
X43769216Y-47334544D01*
X43933188Y-47266624D01*
X44082488Y-47236927D01*
X44107258Y-47232000D01*
X44284742Y-47232000D01*
X44309512Y-47236927D01*
G37*
G36*
X42557000Y-49034000D02*
G01*
X40755000Y-49034000D01*
X40755000Y-47232000D01*
X42557000Y-47232000D01*
X42557000Y-49034000D01*
G37*
G36*
X60692512Y-41775927D02*
G01*
X60841812Y-41805624D01*
X61005784Y-41873544D01*
X61153354Y-41972147D01*
X61278853Y-42097646D01*
X61377456Y-42245216D01*
X61445376Y-42409188D01*
X61480000Y-42583259D01*
X61480000Y-42760741D01*
X61445376Y-42934812D01*
X61377456Y-43098784D01*
X61278853Y-43246354D01*
X61153354Y-43371853D01*
X61005784Y-43470456D01*
X60841812Y-43538376D01*
X60692512Y-43568073D01*
X60667742Y-43573000D01*
X60490258Y-43573000D01*
X60465488Y-43568073D01*
X60316188Y-43538376D01*
X60152216Y-43470456D01*
X60004646Y-43371853D01*
X59879147Y-43246354D01*
X59780544Y-43098784D01*
X59712624Y-42934812D01*
X59678000Y-42760741D01*
X59678000Y-42583259D01*
X59712624Y-42409188D01*
X59780544Y-42245216D01*
X59879147Y-42097646D01*
X60004646Y-41972147D01*
X60152216Y-41873544D01*
X60316188Y-41805624D01*
X60465488Y-41775927D01*
X60490258Y-41771000D01*
X60667742Y-41771000D01*
X60692512Y-41775927D01*
G37*
G36*
X121424000Y-43573000D02*
G01*
X119622000Y-43573000D01*
X119622000Y-41771000D01*
X121424000Y-41771000D01*
X121424000Y-43573000D01*
G37*
G36*
X123176512Y-41775927D02*
G01*
X123325812Y-41805624D01*
X123489784Y-41873544D01*
X123637354Y-41972147D01*
X123762853Y-42097646D01*
X123861456Y-42245216D01*
X123929376Y-42409188D01*
X123964000Y-42583259D01*
X123964000Y-42760741D01*
X123929376Y-42934812D01*
X123861456Y-43098784D01*
X123762853Y-43246354D01*
X123637354Y-43371853D01*
X123489784Y-43470456D01*
X123325812Y-43538376D01*
X123176512Y-43568073D01*
X123151742Y-43573000D01*
X122974258Y-43573000D01*
X122949488Y-43568073D01*
X122800188Y-43538376D01*
X122636216Y-43470456D01*
X122488646Y-43371853D01*
X122363147Y-43246354D01*
X122264544Y-43098784D01*
X122196624Y-42934812D01*
X122162000Y-42760741D01*
X122162000Y-42583259D01*
X122196624Y-42409188D01*
X122264544Y-42245216D01*
X122363147Y-42097646D01*
X122488646Y-41972147D01*
X122636216Y-41873544D01*
X122800188Y-41805624D01*
X122949488Y-41775927D01*
X122974258Y-41771000D01*
X123151742Y-41771000D01*
X123176512Y-41775927D01*
G37*
G36*
X125716512Y-41775927D02*
G01*
X125865812Y-41805624D01*
X126029784Y-41873544D01*
X126177354Y-41972147D01*
X126302853Y-42097646D01*
X126401456Y-42245216D01*
X126469376Y-42409188D01*
X126504000Y-42583259D01*
X126504000Y-42760741D01*
X126469376Y-42934812D01*
X126401456Y-43098784D01*
X126302853Y-43246354D01*
X126177354Y-43371853D01*
X126029784Y-43470456D01*
X125865812Y-43538376D01*
X125716512Y-43568073D01*
X125691742Y-43573000D01*
X125514258Y-43573000D01*
X125489488Y-43568073D01*
X125340188Y-43538376D01*
X125176216Y-43470456D01*
X125028646Y-43371853D01*
X124903147Y-43246354D01*
X124804544Y-43098784D01*
X124736624Y-42934812D01*
X124702000Y-42760741D01*
X124702000Y-42583259D01*
X124736624Y-42409188D01*
X124804544Y-42245216D01*
X124903147Y-42097646D01*
X125028646Y-41972147D01*
X125176216Y-41873544D01*
X125340188Y-41805624D01*
X125489488Y-41775927D01*
X125514258Y-41771000D01*
X125691742Y-41771000D01*
X125716512Y-41775927D01*
G37*
G36*
X56400000Y-43573000D02*
G01*
X54598000Y-43573000D01*
X54598000Y-41771000D01*
X56400000Y-41771000D01*
X56400000Y-43573000D01*
G37*
G36*
X58152512Y-41775927D02*
G01*
X58301812Y-41805624D01*
X58465784Y-41873544D01*
X58613354Y-41972147D01*
X58738853Y-42097646D01*
X58837456Y-42245216D01*
X58905376Y-42409188D01*
X58940000Y-42583259D01*
X58940000Y-42760741D01*
X58905376Y-42934812D01*
X58837456Y-43098784D01*
X58738853Y-43246354D01*
X58613354Y-43371853D01*
X58465784Y-43470456D01*
X58301812Y-43538376D01*
X58152512Y-43568073D01*
X58127742Y-43573000D01*
X57950258Y-43573000D01*
X57925488Y-43568073D01*
X57776188Y-43538376D01*
X57612216Y-43470456D01*
X57464646Y-43371853D01*
X57339147Y-43246354D01*
X57240544Y-43098784D01*
X57172624Y-42934812D01*
X57138000Y-42760741D01*
X57138000Y-42583259D01*
X57172624Y-42409188D01*
X57240544Y-42245216D01*
X57339147Y-42097646D01*
X57464646Y-41972147D01*
X57612216Y-41873544D01*
X57776188Y-41805624D01*
X57925488Y-41775927D01*
X57950258Y-41771000D01*
X58127742Y-41771000D01*
X58152512Y-41775927D01*
G37*
G36*
X94855512Y-37203927D02*
G01*
X95004812Y-37233624D01*
X95168784Y-37301544D01*
X95316354Y-37400147D01*
X95441853Y-37525646D01*
X95540456Y-37673216D01*
X95608376Y-37837188D01*
X95643000Y-38011259D01*
X95643000Y-38188741D01*
X95608376Y-38362812D01*
X95540456Y-38526784D01*
X95441853Y-38674354D01*
X95316354Y-38799853D01*
X95168784Y-38898456D01*
X95004812Y-38966376D01*
X94855512Y-38996073D01*
X94830742Y-39001000D01*
X94653258Y-39001000D01*
X94628488Y-38996073D01*
X94479188Y-38966376D01*
X94315216Y-38898456D01*
X94167646Y-38799853D01*
X94042147Y-38674354D01*
X93943544Y-38526784D01*
X93875624Y-38362812D01*
X93841000Y-38188741D01*
X93841000Y-38011259D01*
X93875624Y-37837188D01*
X93943544Y-37673216D01*
X94042147Y-37525646D01*
X94167646Y-37400147D01*
X94315216Y-37301544D01*
X94479188Y-37233624D01*
X94628488Y-37203927D01*
X94653258Y-37199000D01*
X94830742Y-37199000D01*
X94855512Y-37203927D01*
G37*
G36*
X74281512Y-37203927D02*
G01*
X74430812Y-37233624D01*
X74594784Y-37301544D01*
X74742354Y-37400147D01*
X74867853Y-37525646D01*
X74966456Y-37673216D01*
X75034376Y-37837188D01*
X75069000Y-38011259D01*
X75069000Y-38188741D01*
X75034376Y-38362812D01*
X74966456Y-38526784D01*
X74867853Y-38674354D01*
X74742354Y-38799853D01*
X74594784Y-38898456D01*
X74430812Y-38966376D01*
X74281512Y-38996073D01*
X74256742Y-39001000D01*
X74079258Y-39001000D01*
X74054488Y-38996073D01*
X73905188Y-38966376D01*
X73741216Y-38898456D01*
X73593646Y-38799853D01*
X73468147Y-38674354D01*
X73369544Y-38526784D01*
X73301624Y-38362812D01*
X73267000Y-38188741D01*
X73267000Y-38011259D01*
X73301624Y-37837188D01*
X73369544Y-37673216D01*
X73468147Y-37525646D01*
X73593646Y-37400147D01*
X73741216Y-37301544D01*
X73905188Y-37233624D01*
X74054488Y-37203927D01*
X74079258Y-37199000D01*
X74256742Y-37199000D01*
X74281512Y-37203927D01*
G37*
G36*
X141730589Y-36322876D02*
G01*
X141829893Y-36342629D01*
X141970206Y-36400748D01*
X142096484Y-36485125D01*
X142203875Y-36592516D01*
X142288252Y-36718794D01*
X142346371Y-36859107D01*
X142376000Y-37008063D01*
X142376000Y-37159937D01*
X142346371Y-37308893D01*
X142288252Y-37449206D01*
X142203875Y-37575484D01*
X142096484Y-37682875D01*
X141970206Y-37767252D01*
X141829893Y-37825371D01*
X141730589Y-37845124D01*
X141680938Y-37855000D01*
X141529062Y-37855000D01*
X141479411Y-37845124D01*
X141380107Y-37825371D01*
X141239794Y-37767252D01*
X141113516Y-37682875D01*
X141006125Y-37575484D01*
X140921748Y-37449206D01*
X140863629Y-37308893D01*
X140834000Y-37159937D01*
X140834000Y-37008063D01*
X140863629Y-36859107D01*
X140921748Y-36718794D01*
X141006125Y-36592516D01*
X141113516Y-36485125D01*
X141239794Y-36400748D01*
X141380107Y-36342629D01*
X141479411Y-36322876D01*
X141529062Y-36313000D01*
X141680938Y-36313000D01*
X141730589Y-36322876D01*
G37*
G36*
X146810589Y-36322876D02*
G01*
X146909893Y-36342629D01*
X147050206Y-36400748D01*
X147176484Y-36485125D01*
X147283875Y-36592516D01*
X147368252Y-36718794D01*
X147426371Y-36859107D01*
X147456000Y-37008063D01*
X147456000Y-37159937D01*
X147426371Y-37308893D01*
X147368252Y-37449206D01*
X147283875Y-37575484D01*
X147176484Y-37682875D01*
X147050206Y-37767252D01*
X146909893Y-37825371D01*
X146810589Y-37845124D01*
X146760938Y-37855000D01*
X146609062Y-37855000D01*
X146559411Y-37845124D01*
X146460107Y-37825371D01*
X146319794Y-37767252D01*
X146193516Y-37682875D01*
X146086125Y-37575484D01*
X146001748Y-37449206D01*
X145943629Y-37308893D01*
X145914000Y-37159937D01*
X145914000Y-37008063D01*
X145943629Y-36859107D01*
X146001748Y-36718794D01*
X146086125Y-36592516D01*
X146193516Y-36485125D01*
X146319794Y-36400748D01*
X146460107Y-36342629D01*
X146559411Y-36322876D01*
X146609062Y-36313000D01*
X146760938Y-36313000D01*
X146810589Y-36322876D01*
G37*
G36*
X75069000Y-36461000D02*
G01*
X73267000Y-36461000D01*
X73267000Y-34659000D01*
X75069000Y-34659000D01*
X75069000Y-36461000D01*
G37*
G36*
X95643000Y-36461000D02*
G01*
X93841000Y-36461000D01*
X93841000Y-34659000D01*
X95643000Y-34659000D01*
X95643000Y-36461000D01*
G37*
G36*
X144270589Y-33782876D02*
G01*
X144369893Y-33802629D01*
X144510206Y-33860748D01*
X144636484Y-33945125D01*
X144743875Y-34052516D01*
X144828252Y-34178794D01*
X144886371Y-34319107D01*
X144916000Y-34468063D01*
X144916000Y-34619937D01*
X144886371Y-34768893D01*
X144828252Y-34909206D01*
X144743875Y-35035484D01*
X144636484Y-35142875D01*
X144510206Y-35227252D01*
X144369893Y-35285371D01*
X144270589Y-35305124D01*
X144220938Y-35315000D01*
X144069062Y-35315000D01*
X144019411Y-35305124D01*
X143920107Y-35285371D01*
X143779794Y-35227252D01*
X143653516Y-35142875D01*
X143546125Y-35035484D01*
X143461748Y-34909206D01*
X143403629Y-34768893D01*
X143374000Y-34619937D01*
X143374000Y-34468063D01*
X143403629Y-34319107D01*
X143461748Y-34178794D01*
X143546125Y-34052516D01*
X143653516Y-33945125D01*
X143779794Y-33860748D01*
X143920107Y-33802629D01*
X144019411Y-33782876D01*
X144069062Y-33773000D01*
X144220938Y-33773000D01*
X144270589Y-33782876D01*
G37*
G36*
X149618281Y-27072519D02*
G01*
X149760657Y-27100839D01*
X149842044Y-27134551D01*
X150015621Y-27206449D01*
X150054356Y-27232331D01*
X150245086Y-27359772D01*
X150440228Y-27554914D01*
X150542675Y-27708237D01*
X150593551Y-27784379D01*
X150699161Y-28039344D01*
X150753000Y-28310012D01*
X150753000Y-28585988D01*
X150729080Y-28706242D01*
X150699161Y-28856657D01*
X150655415Y-28962267D01*
X150593551Y-29111621D01*
X150593550Y-29111622D01*
X150440228Y-29341086D01*
X150245086Y-29536228D01*
X150091763Y-29638675D01*
X150015621Y-29689551D01*
X149866267Y-29751415D01*
X149760657Y-29795161D01*
X149670433Y-29813107D01*
X149489988Y-29849000D01*
X149214012Y-29849000D01*
X149033567Y-29813107D01*
X148943343Y-29795161D01*
X148837733Y-29751415D01*
X148688379Y-29689551D01*
X148612237Y-29638675D01*
X148458914Y-29536228D01*
X148263772Y-29341086D01*
X148110450Y-29111622D01*
X148110449Y-29111621D01*
X148048585Y-28962267D01*
X148004839Y-28856657D01*
X147974920Y-28706242D01*
X147951000Y-28585988D01*
X147951000Y-28310012D01*
X148004839Y-28039344D01*
X148110449Y-27784379D01*
X148161325Y-27708237D01*
X148263772Y-27554914D01*
X148458914Y-27359772D01*
X148649644Y-27232331D01*
X148688379Y-27206449D01*
X148861956Y-27134551D01*
X148943343Y-27100839D01*
X149085719Y-27072519D01*
X149214012Y-27047000D01*
X149489988Y-27047000D01*
X149618281Y-27072519D01*
G37*
G36*
X28714281Y-27072519D02*
G01*
X28856657Y-27100839D01*
X28938044Y-27134551D01*
X29111621Y-27206449D01*
X29150356Y-27232331D01*
X29341086Y-27359772D01*
X29536228Y-27554914D01*
X29638675Y-27708237D01*
X29689551Y-27784379D01*
X29795161Y-28039344D01*
X29849000Y-28310012D01*
X29849000Y-28585988D01*
X29825080Y-28706242D01*
X29795161Y-28856657D01*
X29751415Y-28962267D01*
X29689551Y-29111621D01*
X29689550Y-29111622D01*
X29536228Y-29341086D01*
X29341086Y-29536228D01*
X29187763Y-29638675D01*
X29111621Y-29689551D01*
X28962267Y-29751415D01*
X28856657Y-29795161D01*
X28766433Y-29813107D01*
X28585988Y-29849000D01*
X28310012Y-29849000D01*
X28129567Y-29813107D01*
X28039343Y-29795161D01*
X27933733Y-29751415D01*
X27784379Y-29689551D01*
X27708237Y-29638675D01*
X27554914Y-29536228D01*
X27359772Y-29341086D01*
X27206450Y-29111622D01*
X27206449Y-29111621D01*
X27144585Y-28962267D01*
X27100839Y-28856657D01*
X27070920Y-28706242D01*
X27047000Y-28585988D01*
X27047000Y-28310012D01*
X27100839Y-28039344D01*
X27206449Y-27784379D01*
X27257325Y-27708237D01*
X27359772Y-27554914D01*
X27554914Y-27359772D01*
X27745644Y-27232331D01*
X27784379Y-27206449D01*
X27957956Y-27134551D01*
X28039343Y-27100839D01*
X28181719Y-27072519D01*
X28310012Y-27047000D01*
X28585988Y-27047000D01*
X28714281Y-27072519D01*
G37*
G36*
X123539617Y-27023420D02*
G01*
X123620399Y-27047925D01*
X123662335Y-27060646D01*
X123775424Y-27121094D01*
X123874554Y-27202447D01*
X123955906Y-27301575D01*
X124016354Y-27414664D01*
X124026040Y-27446596D01*
X124053580Y-27537382D01*
X124063000Y-27633027D01*
X124063000Y-28246973D01*
X124053580Y-28342618D01*
X124026040Y-28433404D01*
X124016354Y-28465336D01*
X123955906Y-28578425D01*
X123874554Y-28677554D01*
X123775425Y-28758906D01*
X123662336Y-28819354D01*
X123630404Y-28829040D01*
X123539618Y-28856580D01*
X123412000Y-28869149D01*
X123284383Y-28856580D01*
X123193597Y-28829040D01*
X123161665Y-28819354D01*
X123048576Y-28758906D01*
X122949447Y-28677554D01*
X122868096Y-28578427D01*
X122868095Y-28578425D01*
X122807647Y-28465336D01*
X122807645Y-28465333D01*
X122795237Y-28424427D01*
X122770420Y-28342618D01*
X122761000Y-28246973D01*
X122761000Y-27633028D01*
X122770420Y-27537383D01*
X122807645Y-27414669D01*
X122807646Y-27414665D01*
X122868094Y-27301576D01*
X122949447Y-27202446D01*
X123048575Y-27121094D01*
X123161664Y-27060646D01*
X123203600Y-27047925D01*
X123284382Y-27023420D01*
X123412000Y-27010851D01*
X123539617Y-27023420D01*
G37*
G36*
X60515617Y-27023420D02*
G01*
X60596399Y-27047925D01*
X60638335Y-27060646D01*
X60751424Y-27121094D01*
X60850554Y-27202447D01*
X60931906Y-27301575D01*
X60992354Y-27414664D01*
X61002040Y-27446596D01*
X61029580Y-27537382D01*
X61039000Y-27633027D01*
X61039000Y-28246973D01*
X61029580Y-28342618D01*
X61002040Y-28433404D01*
X60992354Y-28465336D01*
X60931906Y-28578425D01*
X60850554Y-28677554D01*
X60751425Y-28758906D01*
X60638336Y-28819354D01*
X60606404Y-28829040D01*
X60515618Y-28856580D01*
X60388000Y-28869149D01*
X60260383Y-28856580D01*
X60169597Y-28829040D01*
X60137665Y-28819354D01*
X60024576Y-28758906D01*
X59925447Y-28677554D01*
X59844096Y-28578427D01*
X59844095Y-28578425D01*
X59783647Y-28465336D01*
X59783645Y-28465333D01*
X59771237Y-28424427D01*
X59746420Y-28342618D01*
X59737000Y-28246973D01*
X59737000Y-27633028D01*
X59746420Y-27537383D01*
X59783645Y-27414669D01*
X59783646Y-27414665D01*
X59844094Y-27301576D01*
X59925447Y-27202446D01*
X60024575Y-27121094D01*
X60137664Y-27060646D01*
X60179600Y-27047925D01*
X60260382Y-27023420D01*
X60388000Y-27010851D01*
X60515617Y-27023420D01*
G37*
G36*
X58515617Y-27023420D02*
G01*
X58596399Y-27047925D01*
X58638335Y-27060646D01*
X58751424Y-27121094D01*
X58850554Y-27202447D01*
X58931906Y-27301575D01*
X58992354Y-27414664D01*
X59002040Y-27446596D01*
X59029580Y-27537382D01*
X59039000Y-27633027D01*
X59039000Y-28246973D01*
X59029580Y-28342618D01*
X59002040Y-28433404D01*
X58992354Y-28465336D01*
X58931906Y-28578425D01*
X58850554Y-28677554D01*
X58751425Y-28758906D01*
X58638336Y-28819354D01*
X58606404Y-28829040D01*
X58515618Y-28856580D01*
X58388000Y-28869149D01*
X58260383Y-28856580D01*
X58169597Y-28829040D01*
X58137665Y-28819354D01*
X58024576Y-28758906D01*
X57925447Y-28677554D01*
X57844096Y-28578427D01*
X57844095Y-28578425D01*
X57783647Y-28465336D01*
X57783645Y-28465333D01*
X57771237Y-28424427D01*
X57746420Y-28342618D01*
X57737000Y-28246973D01*
X57737000Y-27633028D01*
X57746420Y-27537383D01*
X57783645Y-27414669D01*
X57783646Y-27414665D01*
X57844094Y-27301576D01*
X57925447Y-27202446D01*
X58024575Y-27121094D01*
X58137664Y-27060646D01*
X58179600Y-27047925D01*
X58260382Y-27023420D01*
X58388000Y-27010851D01*
X58515617Y-27023420D01*
G37*
G36*
X125539617Y-27023420D02*
G01*
X125620399Y-27047925D01*
X125662335Y-27060646D01*
X125775424Y-27121094D01*
X125874554Y-27202447D01*
X125955906Y-27301575D01*
X126016354Y-27414664D01*
X126026040Y-27446596D01*
X126053580Y-27537382D01*
X126063000Y-27633027D01*
X126063000Y-28246973D01*
X126053580Y-28342618D01*
X126026040Y-28433404D01*
X126016354Y-28465336D01*
X125955906Y-28578425D01*
X125874554Y-28677554D01*
X125775425Y-28758906D01*
X125662336Y-28819354D01*
X125630404Y-28829040D01*
X125539618Y-28856580D01*
X125412000Y-28869149D01*
X125284383Y-28856580D01*
X125193597Y-28829040D01*
X125161665Y-28819354D01*
X125048576Y-28758906D01*
X124949447Y-28677554D01*
X124868096Y-28578427D01*
X124868095Y-28578425D01*
X124807647Y-28465336D01*
X124807645Y-28465333D01*
X124795237Y-28424427D01*
X124770420Y-28342618D01*
X124761000Y-28246973D01*
X124761000Y-27633028D01*
X124770420Y-27537383D01*
X124807645Y-27414669D01*
X124807646Y-27414665D01*
X124868094Y-27301576D01*
X124949447Y-27202446D01*
X125048575Y-27121094D01*
X125161664Y-27060646D01*
X125203600Y-27047925D01*
X125284382Y-27023420D01*
X125412000Y-27010851D01*
X125539617Y-27023420D01*
G37*
G36*
X121903242Y-27018404D02*
G01*
X121940337Y-27029657D01*
X121974515Y-27047925D01*
X122004481Y-27072519D01*
X122029075Y-27102485D01*
X122047343Y-27136663D01*
X122058596Y-27173758D01*
X122063000Y-27218474D01*
X122063000Y-28661526D01*
X122058596Y-28706242D01*
X122047343Y-28743337D01*
X122029075Y-28777515D01*
X122004481Y-28807481D01*
X121974515Y-28832075D01*
X121940337Y-28850343D01*
X121903242Y-28861596D01*
X121858526Y-28866000D01*
X120965474Y-28866000D01*
X120920758Y-28861596D01*
X120883663Y-28850343D01*
X120849485Y-28832075D01*
X120819519Y-28807481D01*
X120794925Y-28777515D01*
X120776657Y-28743337D01*
X120765404Y-28706242D01*
X120761000Y-28661526D01*
X120761000Y-27218474D01*
X120765404Y-27173758D01*
X120776657Y-27136663D01*
X120794925Y-27102485D01*
X120819519Y-27072519D01*
X120849485Y-27047925D01*
X120883663Y-27029657D01*
X120920758Y-27018404D01*
X120965474Y-27014000D01*
X121858526Y-27014000D01*
X121903242Y-27018404D01*
G37*
G36*
X56879242Y-27018404D02*
G01*
X56916337Y-27029657D01*
X56950515Y-27047925D01*
X56980481Y-27072519D01*
X57005075Y-27102485D01*
X57023343Y-27136663D01*
X57034596Y-27173758D01*
X57039000Y-27218474D01*
X57039000Y-28661526D01*
X57034596Y-28706242D01*
X57023343Y-28743337D01*
X57005075Y-28777515D01*
X56980481Y-28807481D01*
X56950515Y-28832075D01*
X56916337Y-28850343D01*
X56879242Y-28861596D01*
X56834526Y-28866000D01*
X55941474Y-28866000D01*
X55896758Y-28861596D01*
X55859663Y-28850343D01*
X55825485Y-28832075D01*
X55795519Y-28807481D01*
X55770925Y-28777515D01*
X55752657Y-28743337D01*
X55741404Y-28706242D01*
X55737000Y-28661526D01*
X55737000Y-27218474D01*
X55741404Y-27173758D01*
X55752657Y-27136663D01*
X55770925Y-27102485D01*
X55795519Y-27072519D01*
X55825485Y-27047925D01*
X55859663Y-27029657D01*
X55896758Y-27018404D01*
X55941474Y-27014000D01*
X56834526Y-27014000D01*
X56879242Y-27018404D01*
G37*
M02*
