M48
; DRILL file {KiCad (5.1.5)-3} date 8/31/2020 4:34:40 PM
; FORMAT={-:-/ absolute / inch / decimal}
; #@! TF.CreationDate,2020-08-31T16:34:40-07:00
; #@! TF.GenerationSoftware,Kicad,Pcbnew,(5.1.5)-3
FMAT,2
INCH
T1C0.0157
T2C0.0295
T3C0.0315
T4C0.0394
T5C0.0472
T6C0.0520
T7C0.0197
T8C0.0402
T9C0.0984
T10C0.1063
%
G90
G05
T1
X1.16Y-1.885
X1.16Y-1.965
X1.16Y-2.045
X1.16Y-2.145
X1.16Y-2.225
X1.16Y-2.305
X1.16Y-2.385
X1.2Y-2.265
X1.21Y-1.925
X1.21Y-2.005
X1.23Y-2.78
X1.23Y-2.86
X1.23Y-2.94
X1.23Y-3.03
X1.23Y-3.11
X1.23Y-3.28
X1.26Y-2.28
X1.27Y-2.9
X1.27Y-3.09
X1.27Y-3.24
X1.27Y-6.25
X1.28Y-1.865
X1.28Y-6.47
X1.32Y-3.28
X1.345Y-2.28
X1.35Y-6.51
X1.36Y-1.885
X1.36Y-2.055
X1.36Y-3.24
X1.37Y-2.74
X1.41Y-2.575
X1.415Y-2.9
X1.44Y-6.51
X1.46Y-3.095
X1.5Y-2.05
X1.53Y-2.13
X1.5663Y-2.8996
X1.59Y-3.37
X1.615Y-2.99
X1.62Y-2.13
X1.63Y-6.85
X1.695Y-2.985
X1.71Y-6.96
X1.78Y-6.86
X1.845Y-6.125
X1.845Y-6.175
X1.845Y-6.225
X1.845Y-6.275
X1.845Y-6.325
X1.845Y-6.375
X1.845Y-6.425
X1.89Y-1.395
X1.895Y-6.125
X1.895Y-6.175
X1.895Y-6.225
X1.895Y-6.275
X1.895Y-6.325
X1.895Y-6.375
X1.895Y-6.425
X1.91Y-1.07
X1.92Y-1.585
X1.945Y-6.125
X1.945Y-6.175
X1.945Y-6.225
X1.945Y-6.275
X1.945Y-6.325
X1.945Y-6.375
X1.945Y-6.425
X1.955Y-1.825
X1.99Y-1.44
X1.995Y-6.125
X1.995Y-6.175
X1.995Y-6.225
X1.995Y-6.275
X1.995Y-6.325
X1.995Y-6.375
X1.995Y-6.425
X2.0125Y-1.6225
X2.015Y-1.695
X2.02Y-6.63
X2.0225Y-1.5775
X2.045Y-6.125
X2.045Y-6.175
X2.045Y-6.225
X2.045Y-6.275
X2.045Y-6.325
X2.045Y-6.375
X2.045Y-6.425
X2.05Y-1.07
X2.095Y-6.125
X2.095Y-6.175
X2.095Y-6.225
X2.095Y-6.275
X2.095Y-6.325
X2.095Y-6.375
X2.095Y-6.425
X2.11Y-6.63
X2.145Y-6.125
X2.145Y-6.175
X2.145Y-6.225
X2.145Y-6.275
X2.145Y-6.325
X2.145Y-6.375
X2.145Y-6.425
X2.1775Y-1.62
X2.195Y-6.125
X2.195Y-6.175
X2.195Y-6.225
X2.195Y-6.275
X2.195Y-6.325
X2.195Y-6.375
X2.195Y-6.425
X2.2Y-6.63
X2.2125Y-1.5175
X2.22Y-1.3225
X2.245Y-6.125
X2.245Y-6.175
X2.245Y-6.225
X2.245Y-6.275
X2.245Y-6.325
X2.245Y-6.375
X2.245Y-6.425
X2.26Y-1.62
X2.2675Y-1.515
X2.295Y-6.125
X2.295Y-6.175
X2.295Y-6.225
X2.295Y-6.275
X2.295Y-6.325
X2.295Y-6.375
X2.295Y-6.425
X2.3625Y-1.3275
X2.3625Y-1.6125
X2.365Y-1.515
X2.41Y-1.5125
X2.42Y-1.62
X2.43Y-5.43
X2.43Y-5.48
X2.43Y-5.53
X2.43Y-5.58
X2.43Y-5.63
X2.43Y-5.68
X2.43Y-5.73
X2.48Y-5.43
X2.48Y-5.48
X2.48Y-5.53
X2.48Y-5.58
X2.48Y-5.63
X2.48Y-5.68
X2.48Y-5.73
X2.53Y-5.43
X2.53Y-5.48
X2.53Y-5.53
X2.53Y-5.58
X2.53Y-5.63
X2.53Y-5.68
X2.53Y-5.73
X2.54Y-4.98
X2.5462Y-1.5904
X2.55Y-1.07
X2.5675Y-1.5325
X2.58Y-5.58
X2.58Y-5.63
X2.58Y-5.68
X2.58Y-5.73
X2.595Y-1.44
X2.63Y-5.63
X2.63Y-5.68
X2.63Y-5.73
X2.65Y-4.66
X2.68Y-1.0675
X2.68Y-5.43
X2.68Y-5.48
X2.68Y-5.53
X2.68Y-5.58
X2.68Y-5.63
X2.68Y-5.68
X2.68Y-5.73
X2.69Y-1.395
X2.7225Y-1.695
X2.7225Y-1.7775
X2.77Y-4.32
X2.78Y-4.28
X2.78Y-4.66
X2.78Y-4.98
X2.8Y-1.645
X2.89Y-4.66
X2.89Y-4.97
X2.89Y-5.32
X2.89Y-5.51
X2.99Y-1.43
X2.99Y-1.48
X3.185Y-1.4
X3.255Y-1.365
X3.255Y-1.535
X3.32Y-1.435
X3.32Y-1.48
X3.505Y-1.37
X3.555Y-1.36
X3.555Y-1.525
X3.79Y-1.44
X3.795Y-1.505
X3.985Y-1.405
X4.0Y-1.47
X4.05Y-1.345
X4.08Y-4.41
X4.11Y-4.66
X4.11Y-4.98
X4.11Y-5.33
X4.11Y-5.51
X4.1242Y-1.4433
X4.125Y-1.505
X4.22Y-4.66
X4.22Y-4.98
X4.295Y-1.37
X4.34Y-1.53
X4.345Y-1.615
X4.35Y-4.28
X4.35Y-4.3188
X4.35Y-4.66
X4.39Y-1.405
X4.45Y-1.475
X4.46Y-4.98
X4.46Y-5.32
X4.48Y-1.07
X4.4943Y-1.7127
X4.525Y-1.825
X4.575Y-1.615
X4.58Y-1.525
X4.585Y-1.575
X4.61Y-1.07
X4.745Y-5.505
X4.76Y-1.52
X4.78Y-1.325
X4.805Y-1.52
X4.835Y-1.43
X4.835Y-5.51
X4.895Y-1.615
X4.9237Y-1.3263
X4.935Y-5.51
X4.95Y-1.425
X4.97Y-1.61
X5.1062Y-1.5904
X5.11Y-1.07
X5.115Y-1.975
X5.125Y-1.52
X5.13Y-4.94
X5.185Y-5.27
X5.21Y-1.55
X5.23Y-1.82
X5.24Y-1.07
X5.245Y-1.395
X5.265Y-5.27
X5.28Y-1.695
X5.3088Y-5.3495
X5.41Y-2.43
X5.41Y-6.29
X5.4125Y-2.38
X5.4125Y-2.48
X5.4125Y-2.53
X5.4125Y-2.58
X5.415Y-5.17
X5.4525Y-2.4
X5.4525Y-2.45
X5.4525Y-2.5
X5.4525Y-2.55
X5.455Y-5.35
X5.465Y-5.52
X5.4925Y-2.38
X5.4925Y-2.43
X5.4925Y-2.48
X5.4925Y-2.53
X5.4925Y-2.58
X5.5Y-6.295
X5.565Y-1.86
X5.565Y-1.94
X5.5725Y-2.28
X5.575Y-5.01
X5.59Y-6.29
X5.605Y-5.17
X5.605Y-5.43
X5.605Y-5.53
X5.655Y-1.54
X5.655Y-5.01
X5.655Y-5.25
X5.655Y-5.37
X5.655Y-5.48
X5.68Y-6.29
X5.695Y-1.72
X5.695Y-5.07
X5.695Y-5.19
X5.695Y-5.31
X5.695Y-5.43
X5.695Y-5.53
X5.7125Y-2.38
X5.7425Y-2.49
X5.7425Y-2.58
X5.7625Y-2.22
X5.765Y-1.54
X5.765Y-1.71
X5.7725Y-2.54
X5.8025Y-2.49
X5.8025Y-2.58
X5.8325Y-2.54
X5.845Y-1.71
X5.8525Y-2.29
X5.8625Y-2.49
X5.8625Y-2.58
X5.8925Y-2.54
X5.9225Y-2.33
X5.9225Y-2.41
X5.9225Y-2.49
X5.9225Y-2.58
T2
X4.78Y-1.1
X4.8587Y-1.1
X4.9375Y-1.1
X2.22Y-1.1
X2.2987Y-1.1
X2.3775Y-1.1
T3
X1.5Y-3.02
X1.5Y-3.22
X1.6Y-3.12
X5.575Y-1.46
X5.675Y-1.36
X5.775Y-1.46
X1.47Y-2.17
X1.47Y-2.37
X1.57Y-2.27
X2.9Y-2.05
X2.9Y-2.15
X2.9Y-2.25
X2.9Y-2.35
X2.9Y-2.45
X2.9Y-2.55
X2.9Y-2.65
X2.9Y-2.75
X2.9Y-2.85
X2.9Y-2.95
X2.9Y-3.05
X3.0Y-1.95
X3.0Y-2.05
X3.0Y-2.15
X3.0Y-2.25
X3.0Y-2.35
X3.0Y-2.45
X3.0Y-2.55
X3.0Y-2.65
X3.0Y-2.75
X3.0Y-2.85
X3.0Y-2.95
X3.0Y-3.05
X3.0Y-3.15
X3.1Y-1.95
X3.1Y-2.05
X3.1Y-3.05
X3.1Y-3.15
X3.2Y-1.95
X3.2Y-2.05
X3.2Y-3.05
X3.2Y-3.15
X3.3Y-1.95
X3.3Y-2.05
X3.3Y-3.05
X3.3Y-3.15
X3.4Y-1.95
X3.4Y-2.05
X3.4Y-3.05
X3.4Y-3.15
X3.5Y-1.95
X3.5Y-2.05
X3.5Y-3.05
X3.5Y-3.15
X3.6Y-1.95
X3.6Y-2.05
X3.6Y-3.05
X3.6Y-3.15
X3.7Y-1.95
X3.7Y-2.05
X3.7Y-3.05
X3.7Y-3.15
X3.8Y-1.95
X3.8Y-2.05
X3.8Y-3.05
X3.8Y-3.15
X3.9Y-1.95
X3.9Y-1.95
X3.9Y-2.05
X3.9Y-3.05
X3.9Y-3.15
X4.0Y-1.95
X4.0Y-2.05
X4.0Y-2.15
X4.0Y-2.25
X4.0Y-2.35
X4.0Y-2.45
X4.0Y-2.55
X4.0Y-2.65
X4.0Y-2.75
X4.0Y-2.85
X4.0Y-2.95
X4.0Y-3.05
X4.0Y-3.15
X4.1Y-2.05
X4.1Y-2.15
X4.1Y-2.25
X4.1Y-2.35
X4.1Y-2.45
X4.1Y-2.55
X4.1Y-2.65
X4.1Y-2.75
X4.1Y-2.85
X4.1Y-2.95
X4.1Y-3.05
X5.275Y-5.14
X5.375Y-5.04
X5.375Y-5.24
T4
X3.8Y-3.5
X3.8Y-3.6
X3.9Y-3.5
X3.9Y-3.6
X4.0Y-3.5
X4.0Y-3.6
X4.1Y-3.5
X4.1Y-3.6
X2.92Y-1.4
X2.92Y-1.5
X5.085Y-5.5
X5.185Y-5.5
X2.185Y-1.68
X2.285Y-1.68
X2.385Y-1.68
X3.12Y-3.5
X3.12Y-3.6
X3.22Y-3.5
X3.22Y-3.6
X3.32Y-3.5
X3.32Y-3.6
X3.42Y-3.5
X3.42Y-3.6
X1.93Y-2.25
X1.93Y-2.35
X1.93Y-2.45
X1.93Y-2.55
X1.93Y-2.65
X1.93Y-2.75
X1.93Y-2.85
X1.93Y-2.95
X2.03Y-2.25
X2.03Y-2.35
X2.03Y-2.45
X2.03Y-2.55
X2.03Y-2.65
X2.03Y-2.75
X2.03Y-2.85
X2.03Y-2.95
X5.0Y-2.64
X5.0Y-2.74
X5.0Y-2.84
X5.0Y-2.94
X5.1Y-2.64
X5.1Y-2.74
X5.1Y-2.84
X5.1Y-2.94
X1.64Y-1.895
X1.74Y-1.895
X1.73Y-3.05
X1.73Y-3.15
X5.0Y-2.24
X5.0Y-2.34
X5.0Y-2.44
X5.0Y-2.54
X5.1Y-2.24
X5.1Y-2.34
X5.1Y-2.44
X5.1Y-2.54
X4.745Y-1.68
X4.845Y-1.68
X4.945Y-1.68
X5.605Y-2.05
X5.705Y-2.05
X3.73Y-1.4
X3.73Y-1.5
T5
X4.815Y-5.885
X5.0237Y-5.885
T6
X1.1Y-5.95
X1.3Y-5.95
X1.1Y-5.64
X1.3Y-5.64
T7
X1.0704Y-6.1899
X1.0704Y-6.5301
X1.22Y-6.1899
X1.22Y-6.5301
T8
X2.6327Y-4.2213
X2.6327Y-5.5787
X4.2075Y-4.2213
X4.2075Y-5.5787
T9
X2.6339Y-4.0339
X2.6339Y-6.7504
X4.3661Y-4.0339
X4.3661Y-6.7504
T10
X1.12Y-6.88
X5.88Y-1.12
X1.12Y-1.12
X5.88Y-6.88
T0
M30
