G04 #@! TF.GenerationSoftware,KiCad,Pcbnew,(5.1.5)-3*
G04 #@! TF.CreationDate,2020-09-01T10:20:14-07:00*
G04 #@! TF.ProjectId,batty_trees_test_pcb,62617474-795f-4747-9265-65735f746573,rev?*
G04 #@! TF.SameCoordinates,Original*
G04 #@! TF.FileFunction,Profile,NP*
%FSLAX46Y46*%
G04 Gerber Fmt 4.6, Leading zero omitted, Abs format (unit mm)*
G04 Created by KiCad (PCBNEW (5.1.5)-3) date 2020-09-01 10:20:14*
%MOMM*%
%LPD*%
G04 APERTURE LIST*
%ADD10C,0.050000*%
%ADD11C,0.100000*%
G04 APERTURE END LIST*
D10*
X152400000Y-177800000D02*
X152400000Y-25400000D01*
X152400000Y-25400000D02*
X25400000Y-25400000D01*
X25400000Y-25400000D02*
X25400000Y-177800000D01*
X25400000Y-177800000D02*
X152400000Y-177800000D01*
D11*
X31338000Y-156974000D02*
X30638000Y-156974000D01*
X30638000Y-156974000D02*
G75*
G03X30388000Y-157224000I0J-250000D01*
G01*
X30388000Y-157224000D02*
G75*
G03X30638000Y-157474000I250000J0D01*
G01*
X30638000Y-157474000D02*
X31338000Y-157474000D01*
X31338000Y-157474000D02*
G75*
G03X31588000Y-157224000I0J250000D01*
G01*
X31588000Y-157224000D02*
G75*
G03X31338000Y-156974000I-250000J0D01*
G01*
X31338000Y-165614000D02*
X30638000Y-165614000D01*
X30638000Y-165614000D02*
G75*
G03X30388000Y-165864000I0J-250000D01*
G01*
X30388000Y-165864000D02*
G75*
G03X30638000Y-166114000I250000J0D01*
G01*
X30638000Y-166114000D02*
X31338000Y-166114000D01*
X31338000Y-166114000D02*
G75*
G03X31588000Y-165864000I0J250000D01*
G01*
X31588000Y-165864000D02*
G75*
G03X31338000Y-165614000I-250000J0D01*
G01*
X27538000Y-156974000D02*
X26838000Y-156974000D01*
X26838000Y-156974000D02*
G75*
G03X26588000Y-157224000I0J-250000D01*
G01*
X26588000Y-157224000D02*
G75*
G03X26838000Y-157474000I250000J0D01*
G01*
X26838000Y-157474000D02*
X27538000Y-157474000D01*
X27538000Y-157474000D02*
G75*
G03X27788000Y-157224000I0J250000D01*
G01*
X27788000Y-157224000D02*
G75*
G03X27538000Y-156974000I-250000J0D01*
G01*
X27538000Y-165614000D02*
X26838000Y-165614000D01*
X26838000Y-165614000D02*
G75*
G03X26588000Y-165864000I0J-250000D01*
G01*
X26588000Y-165864000D02*
G75*
G03X26838000Y-166114000I250000J0D01*
G01*
X26838000Y-166114000D02*
X27538000Y-166114000D01*
X27538000Y-166114000D02*
G75*
G03X27788000Y-165864000I0J250000D01*
G01*
X27788000Y-165864000D02*
G75*
G03X27538000Y-165614000I-250000J0D01*
G01*
M02*
